<?xml version="1.0" standalone="no"?>
<!DOCTYPE svg PUBLIC "-//W3C//DTD SVG 20010904//EN"
 "http://www.w3.org/TR/2001/REC-SVG-20010904/DTD/svg10.dtd">
<svg version="1.0" xmlns="http://www.w3.org/2000/svg"
 width="512.000000pt" height="512.000000pt" viewBox="0 0 512.000000 512.000000"
 preserveAspectRatio="xMidYMid meet">

<g transform="translate(0.000000,512.000000) scale(0.100000,-0.100000)"
fill="#000000" stroke="none">
<path d="M3528 5104 c-165 -39 -304 -173 -352 -337 -20 -70 -21 -198 0 -267
75 -254 344 -404 594 -331 215 63 356 250 354 471 -2 308 -296 537 -596 464z"/>
<path d="M3755 3970 c-11 -4 -213 -182 -448 -394 l-428 -386 -420 0 c-290 0
-427 -3 -442 -11 -81 -42 -75 -157 10 -190 32 -12 894 -12 926 0 13 5 193 161
398 346 205 185 375 332 377 326 2 -6 52 -275 112 -598 l108 -588 -125 -200
c-70 -110 -133 -212 -142 -227 l-16 -28 -690 0 c-639 0 -692 -2 -711 -18 -12
-9 -27 -28 -34 -41 -9 -18 -79 -1024 -80 -1158 l0 -23 -187 0 c-169 0 -191 -2
-220 -20 -54 -33 -62 -108 -17 -154 34 -33 58 -36 308 -36 243 0 278 7 303 61
8 16 24 212 42 530 17 277 33 537 36 576 l7 72 669 3 669 3 29 30 c41 42 361
552 368 586 3 15 -52 340 -128 756 l-133 728 -32 33 c-33 33 -67 40 -109 22z"/>
<path d="M4420 3278 c0 -374 -79 -984 -155 -1193 -52 -145 -130 -296 -174
-339 l-38 -37 -565 1 c-310 0 -566 -2 -569 -4 -3 -3 6 -60 20 -126 l25 -121
550 6 c303 3 561 8 572 10 19 4 27 -8 67 -98 121 -274 177 -492 177 -681 0
-184 -52 -307 -164 -387 l-39 -29 -771 1 c-875 0 -1523 12 -1611 29 -156 30
-297 128 -385 267 l-30 47 0 953 0 953 720 0 720 0 0 114 0 114 -47 6 c-58 8
-2297 236 -2312 236 -8 0 -11 -63 -11 -200 0 -193 1 -200 20 -200 28 0 487
-39 538 -46 l44 -6 -7 -1006 c-7 -927 -6 -1012 10 -1071 63 -243 259 -398 569
-451 114 -19 161 -20 1419 -20 1396 0 1379 0 1478 50 64 33 142 117 177 190
50 106 63 172 69 330 l4 145 -149 447 c-134 399 -148 449 -134 460 57 47 129
208 171 382 69 285 98 577 108 1104 l6 312 -151 0 -152 0 0 -142z"/>
</g>
</svg>
