<?xml version="1.0" encoding="UTF-8"?>
<svg version="1.1" xmlns="http://www.w3.org/2000/svg" width="512" height="512">
<path d="M0 0 C1.15230508 -0.00297112 2.30461015 -0.00594224 3.49183357 -0.0090034 C6.68176415 -0.01616625 9.87166186 -0.01886136 13.06159925 -0.01960087 C16.50552437 -0.02145647 19.94943793 -0.02900638 23.39335632 -0.03573608 C30.92042459 -0.04929975 38.44748753 -0.05534114 45.97456598 -0.05974674 C50.67803084 -0.06251266 55.38149365 -0.06675067 60.08495712 -0.07125092 C73.11741825 -0.08344134 86.14987774 -0.09374089 99.18234444 -0.09712601 C100.01594895 -0.09734557 100.84955346 -0.09756514 101.70841872 -0.09779136 C102.54397489 -0.09800964 103.37953106 -0.09822791 104.24040711 -0.09845281 C105.93345459 -0.09889627 107.62650208 -0.09934283 109.31954956 -0.09979248 C110.15935281 -0.10001391 110.99915605 -0.10023534 111.86440788 -0.10046348 C125.46474936 -0.10440944 139.06503719 -0.12185829 152.66535796 -0.145152 C166.64160136 -0.16889556 180.61781787 -0.18132923 194.59408176 -0.18249393 C202.43596182 -0.18340903 210.27777198 -0.18911978 218.11963272 -0.20731354 C224.79863468 -0.22275517 231.47754514 -0.22781114 238.15656157 -0.21957543 C241.56064825 -0.21568311 244.96440193 -0.21817866 248.36849022 -0.23063278 C252.06881504 -0.24337371 255.76867213 -0.23746322 259.46899414 -0.22705078 C260.53108569 -0.23510719 261.59317724 -0.24316359 262.68745339 -0.25146413 C277.64199987 -0.15350311 290.60618365 4.57010234 301.54904175 14.88653564 C313.56057872 27.98796633 315.766197 43.28221619 315.78341675 60.33966064 C315.78674515 61.49287308 315.79007355 62.64608551 315.79350281 63.83424377 C315.79854534 66.26060591 315.80091196 68.68697492 315.80075073 71.11334229 C315.80294701 74.82626646 315.82115798 78.53889793 315.84005737 82.25177002 C315.84298988 84.61439922 315.84497563 86.97702982 315.84591675 89.33966064 C315.85310226 90.44806808 315.86028778 91.55647552 315.86769104 92.69847107 C315.86461441 93.73337173 315.86153778 94.7682724 315.85836792 95.83453369 C315.85979294 96.7408403 315.86121796 97.64714691 315.86268616 98.58091736 C315.58672056 101.43784166 314.8659337 103.56411944 313.615448 106.14044189 C311.07708328 108.13487132 309.79881085 108.15166819 306.552948 107.95294189 C303.55654275 107.12414895 302.46136117 106.56927501 300.615448 104.14044189 C299.3073102 101.5241663 299.4836608 99.58598905 299.47360229 96.65606689 C299.46656784 95.50727051 299.45953339 94.35847412 299.45228577 93.17486572 C299.44812149 91.92600586 299.44395721 90.677146 299.43966675 89.39044189 C299.42240484 87.42952561 299.40511885 85.46860922 299.38646412 83.50770569 C299.34097089 78.66933265 299.30322849 73.83106748 299.28952026 68.99249268 C299.28134092 66.28281675 299.26264281 63.57359642 299.23258972 60.86407471 C299.2046188 58.31537 299.19150368 55.76644547 299.19544983 53.21759033 C299.04232356 42.31630887 296.31066616 33.12766611 288.615448 25.14044189 C279.36174545 17.16996763 268.65309621 15.68346371 256.8059845 15.75949097 C255.09962864 15.75247101 255.09962864 15.75247101 253.35880095 15.74530923 C249.57435578 15.73341195 245.79027626 15.74279608 242.00582886 15.7522583 C239.28154255 15.74983954 236.55727143 15.742955 233.83299255 15.73632812 C227.21833708 15.72303109 220.60378409 15.72585034 213.98912471 15.73456605 C208.61093651 15.74135755 203.23277691 15.74225299 197.85458565 15.7389946 C197.08741284 15.7385349 196.32024003 15.7380752 195.52981957 15.73760157 C193.97104775 15.73664234 192.41227593 15.7356697 190.85350413 15.7346838 C176.25829705 15.72614186 161.66314662 15.73594552 147.06794883 15.7520849 C134.55860706 15.76548968 122.04934881 15.76315635 109.54000854 15.74932861 C94.99336532 15.73325625 80.44677166 15.7269629 65.90012079 15.7361654 C64.34757873 15.737121 62.79503666 15.73806411 61.24249458 15.7389946 C60.47872391 15.73945742 59.71495325 15.73992025 58.92803801 15.7403971 C53.55901227 15.74298183 48.19001809 15.73862724 42.82099724 15.73155594 C36.274163 15.72312243 29.7274366 15.72545995 23.18061464 15.74139817 C19.84358322 15.74925579 16.50687923 15.75078737 13.16982651 15.74245071 C9.54568222 15.73423258 5.92204029 15.74456087 2.29792786 15.75949097 C0.73035001 15.74945272 0.73035001 15.74945272 -0.86889607 15.73921168 C-11.65361748 15.82517251 -21.28727736 18.44217091 -29.29470825 25.92559814 C-36.05089459 33.14080351 -39.50216742 41.24103022 -39.51877308 51.09922123 C-39.52323092 52.32655698 -39.52768877 53.55389273 -39.5322817 54.81842047 C-39.5321924 56.1825206 -39.53200255 57.54662072 -39.53172302 58.91072083 C-39.53502267 60.35826416 -39.53874845 61.80580657 -39.5428645 63.25334781 C-39.55288131 67.23642904 -39.55660079 71.21949521 -39.55925381 75.20258725 C-39.56315784 79.49657082 -39.57273615 83.79054247 -39.58146667 88.08451843 C-39.60122885 98.45748228 -39.61129723 108.83044711 -39.62019446 119.20342508 C-39.62457798 124.08884854 -39.62994465 128.97427092 -39.63518333 133.85969353 C-39.65219577 150.10123882 -39.66668962 166.34278344 -39.67393208 182.58433628 C-39.67584196 186.79908308 -39.67776229 191.01382988 -39.67971802 195.22857666 C-39.68020176 196.27612564 -39.6806855 197.32367462 -39.6811839 198.40296751 C-39.68948297 215.36994771 -39.71481775 232.33685738 -39.7472987 249.30380679 C-39.78037791 266.72538914 -39.79838164 284.14693566 -39.80157632 301.56854957 C-39.80374067 311.34931336 -39.81247836 321.12997431 -39.83803749 330.91070747 C-39.85975629 339.2410879 -39.86778911 347.57134051 -39.85807071 355.90174604 C-39.85352936 360.15022055 -39.85540249 364.3984314 -39.87483215 368.64686966 C-39.89248873 372.54134246 -39.89144618 376.43535975 -39.87593486 380.32983755 C-39.87356254 381.73367848 -39.87786279 383.13755115 -39.88976351 384.54134364 C-39.98339123 396.32159412 -38.1528068 407.14092554 -29.66970825 415.91387939 C-22.44450259 422.69555758 -14.41955186 426.25335227 -4.46399689 426.27466297 C-3.49367476 426.27912082 -2.52335263 426.28357866 -1.5236268 426.28817159 C-0.46537494 426.28798723 0.59287692 426.28780286 1.68319702 426.28761292 C3.37868801 426.29312795 3.37868801 426.29312795 5.10843134 426.29875439 C8.9043946 426.30978687 12.70033048 426.31363437 16.49630737 426.31744385 C19.21483595 426.32317794 21.93336045 426.33034307 24.65188599 426.33735657 C32.8160425 426.35709709 40.9802002 426.36718456 49.14437461 426.37608436 C52.99299433 426.3804716 56.84161268 426.38583731 60.69023132 426.39107323 C73.49103255 426.40808382 86.29183294 426.42257645 99.09264374 426.42982197 C102.41274517 426.43173173 105.73284659 426.43365208 109.052948 426.43560791 C109.87810136 426.43609165 110.70325472 426.43657539 111.55341274 426.43707379 C124.91066565 426.44536835 138.26782885 426.4706963 151.62504262 426.50318859 C165.3515261 426.53630574 179.07796407 426.55427497 192.80448771 426.55746621 C200.50615409 426.5596271 208.20768968 426.56831382 215.90931702 426.59392738 C222.47048754 426.6156982 229.03149549 426.62365364 235.59269804 426.6139606 C238.93623556 426.60943401 242.27916774 426.61341369 245.62270355 426.63072205 C268.62536233 427.24639 268.62536233 427.24639 288.677948 417.19903564 C296.92672428 408.43471084 298.90073783 399.21387517 298.92404175 387.57403564 C298.94918985 385.29213192 298.97458804 383.01023093 299.00021362 380.72833252 C299.02900424 377.14476157 299.05303522 373.56123803 299.07174683 369.9776001 C299.09337934 366.50950388 299.13280296 363.04194598 299.17404175 359.57403564 C299.17415756 358.50310165 299.17427338 357.43216766 299.1743927 356.32878113 C299.29983987 346.91171953 299.29983987 346.91171953 302.615448 343.14044189 C305.490448 341.64044189 305.490448 341.64044189 308.615448 341.14044189 C311.52121506 342.32916478 313.09343689 343.28773592 314.73989868 345.97723389 C315.70541896 348.36273195 315.86894995 350.0612496 315.87423706 352.62677002 C315.88054138 353.50869019 315.8868457 354.39061035 315.89334106 355.29925537 C315.88726837 356.72111145 315.88726837 356.72111145 315.881073 358.17169189 C315.88298645 359.15859009 315.8848999 360.14548828 315.88687134 361.16229248 C315.8882322 363.25364435 315.88454268 365.3450047 315.87619019 367.43634033 C315.86558047 370.60092779 315.87604148 373.76493566 315.8888855 376.92950439 C315.9034967 396.10679659 314.88640533 413.74833892 300.615448 428.14044189 C288.13459112 438.79618085 276.04120838 442.45843051 259.87013245 442.40113831 C258.71526409 442.40496385 257.56039574 442.4087894 256.37053138 442.41273087 C253.18733923 442.42122533 250.00429577 442.42084206 246.82109988 442.41655028 C243.37926641 442.41407379 239.93745957 442.42310867 236.49563599 442.43058777 C229.76107763 442.4433116 223.02655919 442.44513133 216.29199084 442.44278751 C210.81509177 442.44100146 205.33820477 442.44276013 199.86130714 442.44701195 C199.080564 442.44760714 198.29982085 442.44820233 197.49541882 442.44881555 C195.9091104 442.45002736 194.32280198 442.45124149 192.73649357 442.45245793 C177.87275879 442.46332471 163.00904672 442.46117516 148.14531068 442.45507308 C134.56455563 442.44990567 120.98387236 442.46115625 107.40313151 442.4801713 C93.44034863 442.49957056 79.47759967 442.50780198 65.51480323 442.50404805 C57.68303395 442.50213905 49.85132574 442.5045941 42.01956749 442.51876259 C35.35161087 442.53070406 28.68375288 442.53205044 22.01579484 442.51997242 C18.61776824 442.51410277 15.22006882 442.51457279 11.82203102 442.52497482 C8.12842672 442.5354638 4.43530189 442.52732364 0.74171448 442.5146637 C-0.31833072 442.52203798 -1.37837591 442.52941227 -2.47054368 442.53701001 C-17.46354218 442.42940814 -30.14559924 437.94285943 -41.06033325 427.59356689 C-50.04878313 418.10659795 -55.49694436 407.13401748 -55.51877308 393.97049713 C-55.52323092 392.72150336 -55.52768877 391.47250958 -55.5322817 390.18566751 C-55.53219241 388.80230617 -55.53200257 387.41894482 -55.53172302 386.0355835 C-55.53502357 384.56385371 -55.53874954 383.09212483 -55.5428645 381.62039709 C-55.552871 377.57502701 -55.55659912 373.52967177 -55.55925381 369.48429108 C-55.5631609 365.12143831 -55.57273899 360.75859724 -55.58146667 356.39575195 C-55.60122014 345.85856622 -55.61129609 335.32137954 -55.62019446 324.78417993 C-55.62457938 319.81981866 -55.62994568 314.85545845 -55.63518333 309.89109802 C-55.65219485 293.3844449 -55.66668834 276.87779244 -55.67393208 260.3711319 C-55.67584191 256.08850605 -55.67776225 251.80588022 -55.67971802 247.52325439 C-55.68020176 246.45885185 -55.6806855 245.3944493 -55.6811839 244.29779214 C-55.68948169 227.06063305 -55.71481473 209.82354341 -55.7472987 192.58641464 C-55.78039022 174.8822879 -55.79838275 157.17819643 -55.80157632 139.4740386 C-55.80373952 129.53673082 -55.81246039 119.59952431 -55.83803749 109.6622467 C-55.85977311 101.19800028 -55.86778085 92.73387973 -55.85807071 84.26960856 C-55.85353424 79.95404702 -55.855374 75.63874503 -55.87483215 71.3232193 C-55.89252374 67.36515318 -55.89141801 63.40753481 -55.87593486 59.44946355 C-55.87356783 58.02475577 -55.87783497 56.60001649 -55.88976351 55.17535669 C-56.01345333 39.41450286 -52.08652019 25.97982623 -41.134552 14.39044189 C-29.1334692 2.99344044 -16.08364283 -0.01295816 0 0 Z " fill="#000000" transform="translate(76.38455200195313,34.85955810546875)"/>
<path d="M0 0 C18.03421627 15.94784894 29.42960335 35.01609277 35.46484375 58.1796875 C35.83416016 59.57960937 35.83416016 59.57960937 36.2109375 61.0078125 C42.04172042 88.51302295 35.62632795 117.91664673 20.48828125 141.26171875 C4.14255848 164.83363942 -17.97414388 179.99870643 -45.53515625 187.1796875 C-46.93507813 187.54900391 -46.93507813 187.54900391 -48.36328125 187.92578125 C-75.87196078 193.75729957 -105.24174086 187.12244787 -128.76611328 172.34423828 C-133.35836785 169.32118359 -137.48815987 165.8899444 -141.53515625 162.1796875 C-142.45941406 161.33664062 -143.38367188 160.49359375 -144.3359375 159.625 C-159.71740739 144.9455889 -169.22044933 126.57783389 -174.53515625 106.1796875 C-174.78136719 105.24640625 -175.02757812 104.313125 -175.28125 103.3515625 C-181.11203292 75.84635205 -174.69664045 46.44272827 -159.55859375 23.09765625 C-143.21287098 -0.47426442 -121.09616862 -15.63933143 -93.53515625 -22.8203125 C-92.601875 -23.06652344 -91.66859375 -23.31273437 -90.70703125 -23.56640625 C-58.64748413 -30.36265527 -24.86748682 -20.71618837 0 0 Z M-138.34765625 20.6875 C-155.74741904 40.51080118 -163.00432166 65.03942593 -161.53515625 91.1796875 C-159.26218506 115.35883031 -146.64635052 137.28271447 -128.53515625 153.1796875 C-108.28131009 169.1667234 -84.1656574 176.40108338 -58.38476562 173.97753906 C-33.87838797 170.88801 -11.47775909 157.5765661 3.77734375 138.25 C18.83094005 117.4495916 25.62931867 92.56323779 21.69506836 66.96728516 C17.31866281 42.63386874 3.32986589 21.02179399 -16.66015625 6.5546875 C-56.09997329 -20.30128677 -105.66254626 -13.04820281 -138.34765625 20.6875 Z " fill="#000000" transform="translate(453.53515625,173.8203125)"/>
<path d="M0 0 C1.64198364 -0.00574036 1.64198364 -0.00574036 3.31713867 -0.01159668 C5.63038045 -0.01431736 7.94365292 -0.00694534 10.25683594 0.00976562 C13.79952522 0.0311716 17.34018636 0.00996774 20.8828125 -0.015625 C23.13021281 -0.01298175 25.37761187 -0.00785684 27.625 0 C28.68549561 -0.00809692 29.74599121 -0.01619385 30.83862305 -0.02453613 C38.02944275 0.06724784 38.02944275 0.06724784 41.48730469 2.11621094 C43.31491563 5.44685342 43.26526878 7.91235453 43.203125 11.703125 C43.19746521 12.3855426 43.19180542 13.06796021 43.18597412 13.77105713 C43.16365636 15.94184762 43.11347508 18.11096206 43.0625 20.28125 C43.04242876 21.7564865 43.02417907 23.23174899 43.0078125 24.70703125 C42.9638088 28.31564501 42.89481583 31.92328381 42.8125 35.53125 C44.18970215 35.4998291 44.18970215 35.4998291 45.59472656 35.46777344 C49.00905428 35.39950417 52.42265443 35.34940615 55.83740234 35.31152344 C57.3137559 35.29143699 58.79003019 35.26416199 60.26611328 35.22949219 C62.39114962 35.18083816 64.51513234 35.15825327 66.640625 35.140625 C67.9184082 35.11967773 69.19619141 35.09873047 70.51269531 35.07714844 C73.8125 35.53125 73.8125 35.53125 76.22753906 36.85644531 C78.82363106 41.23765047 78.3818974 45.72238911 78.34375 50.71875 C78.3475769 51.81340576 78.35140381 52.90806152 78.35534668 54.03588867 C78.35806736 56.34913045 78.35069534 58.66240292 78.33398438 60.97558594 C78.3125784 64.51827522 78.33378226 68.05893636 78.359375 71.6015625 C78.35673175 73.84896281 78.35160684 76.09636187 78.34375 78.34375 C78.35184692 79.40424561 78.35994385 80.46474121 78.36828613 81.55737305 C78.27650216 88.74819275 78.27650216 88.74819275 76.22753906 92.20605469 C72.89689658 94.03366563 70.43139547 93.98401878 66.640625 93.921875 C65.6169986 93.91338531 65.6169986 93.91338531 64.57269287 93.90472412 C62.40190238 93.88240636 60.23278794 93.83222508 58.0625 93.78125 C56.5872635 93.76117876 55.11200101 93.74292907 53.63671875 93.7265625 C50.02810499 93.6825588 46.42046619 93.61356583 42.8125 93.53125 C42.8439209 94.90845215 42.8439209 94.90845215 42.87597656 96.31347656 C42.94424583 99.72780428 42.99434385 103.14140443 43.03222656 106.55615234 C43.05231301 108.0325059 43.07958801 109.50878019 43.11425781 110.98486328 C43.16291184 113.10989962 43.18549673 115.23388234 43.203125 117.359375 C43.2345459 119.2760498 43.2345459 119.2760498 43.26660156 121.23144531 C42.8125 124.53125 42.8125 124.53125 41.48730469 126.94628906 C37.10609953 129.54238106 32.62136089 129.1006474 27.625 129.0625 C26.53034424 129.0663269 25.43568848 129.07015381 24.30786133 129.07409668 C21.99461955 129.07681736 19.68134708 129.06944534 17.36816406 129.05273438 C13.82547478 129.0313284 10.28481364 129.05253226 6.7421875 129.078125 C4.49478719 129.07548175 2.24738813 129.07035684 0 129.0625 C-1.06049561 129.07059692 -2.12099121 129.07869385 -3.21362305 129.08703613 C-10.40444275 128.99525216 -10.40444275 128.99525216 -13.86230469 126.94628906 C-15.68991563 123.61564658 -15.64026878 121.15014547 -15.578125 117.359375 C-15.57246521 116.6769574 -15.56680542 115.99453979 -15.56097412 115.29144287 C-15.53865636 113.12065238 -15.48847508 110.95153794 -15.4375 108.78125 C-15.41742876 107.3060135 -15.39917907 105.83075101 -15.3828125 104.35546875 C-15.3388088 100.74685499 -15.26981583 97.13921619 -15.1875 93.53125 C-16.10563477 93.55219727 -17.02376953 93.57314453 -17.96972656 93.59472656 C-21.38405428 93.66299583 -24.79765443 93.71309385 -28.21240234 93.75097656 C-29.6887559 93.77106301 -31.16503019 93.79833801 -32.64111328 93.83300781 C-34.76614962 93.88166184 -36.89013234 93.90424673 -39.015625 93.921875 C-40.9322998 93.9532959 -40.9322998 93.9532959 -42.88769531 93.98535156 C-46.1875 93.53125 -46.1875 93.53125 -48.60253906 92.20605469 C-51.19863106 87.82484953 -50.7568974 83.34011089 -50.71875 78.34375 C-50.7225769 77.24909424 -50.72640381 76.15443848 -50.73034668 75.02661133 C-50.73306736 72.71336955 -50.72569534 70.40009708 -50.70898438 68.08691406 C-50.6875784 64.54422478 -50.70878226 61.00356364 -50.734375 57.4609375 C-50.73173175 55.21353719 -50.72660684 52.96613813 -50.71875 50.71875 C-50.72684692 49.65825439 -50.73494385 48.59775879 -50.74328613 47.50512695 C-50.65150216 40.31430725 -50.65150216 40.31430725 -48.60253906 36.85644531 C-45.27189658 35.02883437 -42.80639547 35.07848122 -39.015625 35.140625 C-37.9919986 35.14911469 -37.9919986 35.14911469 -36.94769287 35.15777588 C-34.77690238 35.18009364 -32.60778794 35.23027492 -30.4375 35.28125 C-28.9622635 35.30132124 -27.48700101 35.31957093 -26.01171875 35.3359375 C-22.40310499 35.3799412 -18.79546619 35.44893417 -15.1875 35.53125 C-15.20844727 34.61311523 -15.22939453 33.69498047 -15.25097656 32.74902344 C-15.31924583 29.33469572 -15.36934385 25.92109557 -15.40722656 22.50634766 C-15.42731301 21.0299941 -15.45458801 19.55371981 -15.48925781 18.07763672 C-15.53791184 15.95260038 -15.56049673 13.82861766 -15.578125 11.703125 C-15.59907227 10.4253418 -15.62001953 9.14755859 -15.64160156 7.83105469 C-15.1875 4.53125 -15.1875 4.53125 -13.86230469 2.11621094 C-9.48109953 -0.47988106 -4.99636089 -0.0381474 0 0 Z M-0.1875 15.53125 C-0.22488281 17.73425781 -0.26226562 19.93726563 -0.30078125 22.20703125 C-0.3469998 24.34181621 -0.39823195 26.47642605 -0.44995117 28.61108398 C-0.48319423 30.09404854 -0.51122823 31.57713944 -0.53393555 33.06030273 C-0.56749468 35.19309293 -0.61980638 37.32472612 -0.67578125 39.45703125 C-0.70196533 40.74005127 -0.72814941 42.02307129 -0.75512695 43.3449707 C-1.1875 46.53125 -1.1875 46.53125 -2.27734375 48.44140625 C-5.23429074 50.1284987 -7.88112521 49.97397705 -11.26171875 50.04296875 C-11.9455513 50.06091995 -12.62938385 50.07887115 -13.3339386 50.09736633 C-15.51423 50.15147075 -17.69430256 50.1853634 -19.875 50.21875 C-21.35484817 50.2519232 -22.83466745 50.28641287 -24.31445312 50.32226562 C-27.93883351 50.40967356 -31.56221773 50.46973263 -35.1875 50.53125 C-35.1875 59.77125 -35.1875 69.01125 -35.1875 78.53125 C-32.98449219 78.56863281 -30.78148437 78.60601562 -28.51171875 78.64453125 C-26.37693379 78.6907498 -24.24232395 78.74198195 -22.10766602 78.79370117 C-20.62470146 78.82694423 -19.14161056 78.85497823 -17.65844727 78.87768555 C-15.52565707 78.91124468 -13.39402388 78.96355638 -11.26171875 79.01953125 C-9.97869873 79.04571533 -8.69567871 79.07189941 -7.3737793 79.09887695 C-4.1875 79.53125 -4.1875 79.53125 -2.27734375 80.62109375 C-0.5902513 83.57804074 -0.74477295 86.22487521 -0.67578125 89.60546875 C-0.65783005 90.2893013 -0.63987885 90.97313385 -0.62138367 91.6776886 C-0.56727925 93.85798 -0.5333866 96.03805256 -0.5 98.21875 C-0.4668268 99.69859817 -0.43233713 101.17841745 -0.39648438 102.65820312 C-0.30907644 106.28258351 -0.24901737 109.90596773 -0.1875 113.53125 C9.0525 113.53125 18.2925 113.53125 27.8125 113.53125 C27.84988281 111.32824219 27.88726562 109.12523437 27.92578125 106.85546875 C27.9719998 104.72068379 28.02323195 102.58607395 28.07495117 100.45141602 C28.10819423 98.96845146 28.13622823 97.48536056 28.15893555 96.00219727 C28.19249468 93.86940707 28.24480638 91.73777388 28.30078125 89.60546875 C28.32696533 88.32244873 28.35314941 87.03942871 28.38012695 85.7175293 C28.8125 82.53125 28.8125 82.53125 29.90234375 80.62109375 C32.85929074 78.9340013 35.50612521 79.08852295 38.88671875 79.01953125 C39.5705513 79.00158005 40.25438385 78.98362885 40.9589386 78.96513367 C43.13923 78.91102925 45.31930256 78.8771366 47.5 78.84375 C48.97984817 78.8105768 50.45966745 78.77608713 51.93945312 78.74023438 C55.56383351 78.65282644 59.18721773 78.59276737 62.8125 78.53125 C62.8125 69.29125 62.8125 60.05125 62.8125 50.53125 C60.60949219 50.49386719 58.40648437 50.45648438 56.13671875 50.41796875 C54.00193379 50.3717502 51.86732395 50.32051805 49.73266602 50.26879883 C48.24970146 50.23555577 46.76661056 50.20752177 45.28344727 50.18481445 C43.15065707 50.15125532 41.01902388 50.09894362 38.88671875 50.04296875 C37.60369873 50.01678467 36.32067871 49.99060059 34.9987793 49.96362305 C31.8125 49.53125 31.8125 49.53125 29.90234375 48.44140625 C28.2152513 45.48445926 28.36977295 42.83762479 28.30078125 39.45703125 C28.28283005 38.7731987 28.26487885 38.08936615 28.24638367 37.3848114 C28.19227925 35.20452 28.1583866 33.02444744 28.125 30.84375 C28.0918268 29.36390183 28.05733713 27.88408255 28.02148438 26.40429688 C27.93407644 22.77991649 27.87401737 19.15653227 27.8125 15.53125 C18.5725 15.53125 9.3325 15.53125 -0.1875 15.53125 Z " fill="#000000" transform="translate(370.1875,191.46875)"/>
<path d="M0 0 C0.81322236 -0.00623996 1.62644471 -0.01247993 2.46431017 -0.01890898 C5.19293121 -0.03488091 7.92066412 -0.02221856 10.64929199 -0.00964355 C12.60396344 -0.01506281 14.5586308 -0.02218436 16.51329041 -0.03088379 C21.82523774 -0.04914337 27.13687487 -0.04203868 32.44882774 -0.02936745 C38.00300316 -0.01925345 43.55715169 -0.02862867 49.11132812 -0.03491211 C58.43929828 -0.04219318 67.76714183 -0.03258872 77.09509277 -0.0135498 C87.88563511 0.00821976 98.67587515 0.00116872 109.46641016 -0.02085543 C118.72425252 -0.0389963 127.98200377 -0.04157416 137.23985815 -0.03110075 C142.77210287 -0.02485861 148.30420541 -0.02405 153.83644104 -0.0372467 C159.0370864 -0.04878545 164.23734132 -0.04081553 169.43794441 -0.01766968 C171.348754 -0.01237203 173.25959635 -0.01391434 175.17039299 -0.02272034 C177.77476768 -0.03361784 180.37788371 -0.01998309 182.98217773 0 C183.7420966 -0.00892289 184.50201547 -0.01784577 185.28496218 -0.02703905 C188.7440528 0.0246027 190.65301651 0.25450349 193.45648956 2.35608673 C194.99108887 4.50793457 194.99108887 4.50793457 195.55358887 7.44543457 C194.78647973 11.62191766 193.30124526 12.88919388 189.99108887 15.50793457 C187.10926847 15.99876104 184.82028976 16.18159354 181.94458008 16.13612366 C181.13937597 16.14321804 180.33417186 16.15031243 179.50456762 16.1576218 C176.80883264 16.17521168 174.11453764 16.15709266 171.41882324 16.13903809 C169.48532962 16.14417654 167.55184068 16.15145725 165.61836243 16.16072083 C160.36831416 16.17925242 155.11877303 16.16628501 149.8687458 16.14663053 C144.37643966 16.13025733 138.88416597 16.13905507 133.3918457 16.14414978 C124.16817108 16.14867221 114.94469915 16.13279152 105.72106934 16.1048584 C95.05491618 16.07280591 84.38912862 16.0728218 73.7229495 16.09007317 C63.46546561 16.10593292 53.20811584 16.09920822 42.95063782 16.08213615 C38.58389214 16.07526074 34.21725382 16.07630316 29.85050964 16.08368111 C24.70892552 16.0913381 19.56775783 16.07923677 14.42624474 16.0518322 C12.53843611 16.04494116 10.65058865 16.04485808 8.76278114 16.05204773 C6.1872541 16.0607268 3.61301678 16.04481331 1.03759766 16.02259827 C0.28905565 16.03083903 -0.45948636 16.0390798 -1.23071146 16.04757029 C-4.81390295 15.99045596 -6.89350761 15.57845082 -9.97666168 13.69451809 C-12.00891113 11.50793457 -12.00891113 11.50793457 -12.57141113 8.00793457 C-11.36684138 0.51283388 -6.76493262 -0.07943312 0 0 Z " fill="#000000" transform="translate(161.0089111328125,397.4920654296875)"/>
<path d="M0 0 C0.7333693 -0.00297112 1.46673861 -0.00594224 2.22233123 -0.0090034 C4.68653694 -0.01769416 7.1506941 -0.01919896 9.61491394 -0.02069092 C11.37899886 -0.02531882 13.14308278 -0.03034344 14.90716553 -0.03573608 C19.70475802 -0.04886466 24.50233651 -0.05530592 29.29994416 -0.05974674 C32.29659034 -0.0626767 35.29323269 -0.06678135 38.28987694 -0.07125092 C47.66365886 -0.08492698 57.03743203 -0.09459313 66.41122323 -0.09845281 C77.2356752 -0.10293414 88.06000092 -0.12048511 98.88441449 -0.1494534 C107.24883338 -0.17106204 115.61321672 -0.18115665 123.97766322 -0.18249393 C128.9745463 -0.18354253 133.97131073 -0.18946212 138.96816444 -0.20731354 C143.66886923 -0.22378008 148.369366 -0.22595661 153.07008934 -0.21717453 C154.79462618 -0.2164034 156.51917413 -0.22075689 158.24368286 -0.23063278 C160.5997963 -0.24333356 162.95517091 -0.23748605 165.3112793 -0.22705078 C166.62923398 -0.22851734 167.94718866 -0.2299839 169.30508137 -0.2314949 C173.17437968 0.17492156 175.59511824 1.01806976 178.84611511 3.14044189 C179.85483249 6.60790787 180.166424 8.95529901 179.22111511 12.45294189 C177.32358729 14.78172604 175.71372627 15.2324736 172.84611511 16.14044189 C169.43371582 16.39491749 169.43371582 16.39491749 165.44499207 16.40113831 C164.70920835 16.40496385 163.97342463 16.4087894 163.21534443 16.41273087 C160.7549553 16.42303269 158.29480077 16.41907415 155.83439636 16.4151001 C154.06839279 16.41944808 152.3023911 16.42463152 150.53639221 16.43058777 C145.74309575 16.44397838 140.94987814 16.44455646 136.15656662 16.44202447 C132.15540208 16.44095499 128.15425351 16.44583742 124.15309238 16.45062989 C114.7151425 16.46172487 105.27723242 16.46216225 95.83927917 16.45611572 C86.10021967 16.45007231 76.36130451 16.4623963 66.62226963 16.48368579 C58.26121632 16.50129149 49.90020901 16.50730486 41.53913784 16.50404805 C36.54512037 16.50223371 31.5512059 16.50488659 26.5572052 16.51876259 C21.86220929 16.53131984 17.16743881 16.5294168 12.47244644 16.5163517 C10.74910532 16.51398193 9.02574843 16.5167349 7.30242538 16.52497482 C4.95043347 16.53541018 2.59920253 16.52736806 0.24723816 16.5146637 C-1.7271801 16.51491531 -1.7271801 16.51491531 -3.7414856 16.515172 C-7.37577093 16.11607564 -9.26776317 15.34167961 -12.15388489 13.14044189 C-13.55846226 10.33128716 -13.40283646 8.25233655 -13.15388489 5.14044189 C-9.99823475 -0.41951311 -5.93899569 0.013416 0 0 Z " fill="#000000" transform="translate(162.1538848876953,119.85955810546875)"/>
<path d="M0 0 C0.67690514 -0.00297112 1.35381027 -0.00594224 2.05122769 -0.0090034 C4.32429487 -0.01768989 6.59730938 -0.0191986 8.87039185 -0.02069092 C10.49817009 -0.02531909 12.12594725 -0.03034374 13.75372314 -0.03573608 C18.1793595 -0.04886122 22.60498068 -0.05530513 27.03063345 -0.05974674 C29.79476851 -0.06267696 32.55889941 -0.06678164 35.32303238 -0.07125092 C43.96905749 -0.08492543 52.61507311 -0.09459261 61.26110828 -0.09845281 C71.2462173 -0.10293522 81.23118955 -0.12049179 91.21625698 -0.1494534 C98.93183355 -0.17105673 106.6473716 -0.18115635 114.3629781 -0.18249393 C118.97250634 -0.18354282 123.581906 -0.18946857 128.19140244 -0.20731354 C132.5268642 -0.22377118 136.86210041 -0.22596101 141.19758224 -0.21717453 C142.78869734 -0.21640295 144.37982445 -0.22076285 145.97090912 -0.23063278 C148.14347328 -0.24331938 150.31523454 -0.23749414 152.48779297 -0.22705078 C153.70342863 -0.22851734 154.91906429 -0.2299839 156.1715374 -0.2314949 C159.70062496 0.17877609 161.56522691 0.99204485 164.37088013 3.14044189 C165.87088013 6.01544189 165.87088013 6.01544189 166.37088013 9.14044189 C165.21339305 11.96985476 164.23237143 13.56911392 161.67552853 15.26477337 C158.57512947 16.44279335 155.93851942 16.39552906 152.62150574 16.40113831 C151.94374618 16.40496385 151.26598661 16.4087894 150.56768888 16.41273087 C148.29766126 16.42304594 146.02788729 16.41907164 143.75784302 16.4151001 C142.12991604 16.4194474 140.5019911 16.42463061 138.87406921 16.43058777 C134.45260074 16.44398693 130.03121769 16.44455543 125.60973287 16.44202447 C121.91928399 16.4409554 118.22885244 16.44583646 114.53840727 16.45062989 C105.832568 16.4617282 97.12677188 16.46216063 88.42092896 16.45611572 C79.4379431 16.45007432 70.45511382 16.46239041 61.47215468 16.48368579 C53.76079689 16.50129488 46.04948897 16.50730426 38.33811182 16.50404805 C33.7319621 16.50223398 29.12592408 16.50488371 24.51979256 16.51876259 C20.18840721 16.5313251 15.85726616 16.52941185 11.52588463 16.5163517 C9.93638655 16.51398294 8.34687135 16.51673133 6.75739288 16.52497482 C4.58705699 16.53541904 2.41754437 16.52736122 0.24723816 16.5146637 C-0.96709868 16.51483144 -2.18143553 16.51499918 -3.43257046 16.515172 C-6.93786848 16.10424743 -8.82466188 15.24650134 -11.62911987 13.14044189 C-13.03369724 10.33128716 -12.87807145 8.25233655 -12.62911987 5.14044189 C-9.57216487 -0.24562168 -5.77290366 0.01413507 0 0 Z " fill="#000000" transform="translate(161.62911987304688,375.85955810546875)"/>
<path d="M0 0 C1.02665268 0.00091644 2.05330536 0.00183289 3.11106873 0.0027771 C5.27713659 0.00880856 7.44319629 0.0245408 9.60913086 0.04931641 C12.9252798 0.08584592 16.24031138 0.09033546 19.55664062 0.08984375 C21.66277008 0.09967448 23.76889196 0.11133129 25.875 0.125 C26.86673721 0.12722565 27.85847443 0.12945129 28.88026428 0.13174438 C29.80479904 0.14450409 30.7293338 0.15726379 31.68188477 0.17041016 C32.89836449 0.18184555 32.89836449 0.18184555 34.13941956 0.19351196 C36.63232227 0.49224098 38.24829391 1.13304576 40.37109375 2.4609375 C41.58743378 4.89361757 41.51738911 6.49518074 41.5480957 9.21435547 C41.56734856 10.69631912 41.56734856 10.69631912 41.58699036 12.20822144 C41.59437729 13.27903961 41.60176422 14.34985779 41.609375 15.453125 C41.61744675 16.55061066 41.62551849 17.64809631 41.63383484 18.77883911 C41.64768165 21.10400814 41.65840112 23.42919755 41.66625977 25.75439453 C41.68349008 29.31451759 41.72737403 32.87371644 41.77148438 36.43359375 C41.78160947 38.69009732 41.79012614 40.9466088 41.796875 43.203125 C41.81438309 44.26989471 41.83189117 45.33666443 41.84992981 46.4357605 C41.82899945 53.54912745 41.82899945 53.54912745 40.0300293 57.13134766 C35.63908075 59.32702352 31.24146721 59.02991251 26.40234375 58.9921875 C24.79365417 58.99792786 24.79365417 58.99792786 23.15246582 59.00378418 C20.88630229 59.00650466 18.62010744 58.99913403 16.35400391 58.98242188 C12.88372847 58.96101544 9.41552348 58.98222025 5.9453125 59.0078125 C3.74348501 59.00516925 1.54165881 59.00004433 -0.66015625 58.9921875 C-1.69877808 59.00028442 -2.7373999 59.00838135 -3.80749512 59.01672363 C-7.74287779 58.96545309 -10.73745286 58.90966171 -14.27905273 57.12695312 C-16.52863166 52.6839432 -16.21826317 48.18064046 -16.1953125 43.2734375 C-16.20151108 42.17878174 -16.20770966 41.08412598 -16.21409607 39.95629883 C-16.22119659 37.64307546 -16.21801626 35.329801 -16.20532227 33.01660156 C-16.19145602 29.47365503 -16.2255278 25.93334844 -16.26367188 22.390625 C-16.26462304 20.14322852 -16.26276439 17.89582873 -16.2578125 15.6484375 C-16.27107071 14.58794189 -16.28432892 13.52744629 -16.29798889 12.43481445 C-16.20727062 5.28465488 -16.20727062 5.28465488 -13.75390625 1.79052734 C-9.14969447 -0.16842089 -4.95527221 -0.07195256 0 0 Z M-0.62890625 15.4609375 C-0.62890625 24.7009375 -0.62890625 33.9409375 -0.62890625 43.4609375 C8.28109375 43.4609375 17.19109375 43.4609375 26.37109375 43.4609375 C26.37109375 34.2209375 26.37109375 24.9809375 26.37109375 15.4609375 C17.46109375 15.4609375 8.55109375 15.4609375 -0.62890625 15.4609375 Z " fill="#000000" transform="translate(86.62890625,361.5390625)"/>
<path d="M0 0 C1.07245972 -0.00145523 2.14491943 -0.00291046 3.24987793 -0.00440979 C5.51605955 -0.00275069 7.78225243 0.00881167 10.04833984 0.02954102 C13.5183902 0.05848648 16.98691221 0.05015123 20.45703125 0.03710938 C22.6588616 0.04334705 24.86068712 0.05173822 27.0625 0.0625 C28.10112183 0.05956436 29.13974365 0.05662872 30.20983887 0.05360413 C31.17764282 0.0662883 32.14544678 0.07897247 33.14257812 0.09204102 C33.9921106 0.097444 34.84164307 0.10284698 35.71691895 0.1084137 C38.6311561 0.5965857 39.97705476 1.37428584 42.03125 3.49609375 C42.5459137 5.76609802 42.5459137 5.76609802 42.56469727 8.45483398 C42.5805336 9.46275497 42.59636993 10.47067596 42.61268616 11.50914001 C42.60772629 12.59667068 42.60276642 13.68420135 42.59765625 14.8046875 C42.60695412 16.48208763 42.60695412 16.48208763 42.61643982 18.19337463 C42.62354768 20.559653 42.62034725 22.92598127 42.60766602 25.29223633 C42.59381547 28.91646295 42.62784225 32.5381016 42.66601562 36.16210938 C42.66696692 38.45963605 42.66510747 40.75716596 42.66015625 43.0546875 C42.67341446 44.14019394 42.68667267 45.22570038 42.70033264 46.34410095 C42.60952268 53.6699362 42.60952268 53.6699362 40.15405273 57.17797852 C35.5654104 59.11481535 31.37318033 59.06785135 26.4375 59.02734375 C25.41321899 59.03117065 24.38893799 59.03499756 23.33361816 59.03894043 C21.1717836 59.04165785 19.00991606 59.03430861 16.84814453 59.01757812 C13.5425473 58.99616693 10.23912353 59.01738644 6.93359375 59.04296875 C4.83072438 59.04032544 2.72785636 59.03520041 0.625 59.02734375 C-0.36157593 59.03544067 -1.34815186 59.0435376 -2.36462402 59.05187988 C-6.3876653 58.99700987 -9.36780839 58.7528012 -13.09155273 57.16210938 C-16.13482633 52.84001968 -15.66213514 48.46612122 -15.59765625 43.30859375 C-15.60006821 42.21393799 -15.60248016 41.11928223 -15.60496521 39.99145508 C-15.60398616 37.67818579 -15.59057908 35.36489324 -15.56567383 33.05175781 C-15.53137453 29.50895677 -15.54501115 25.96865035 -15.56445312 22.42578125 C-15.55755463 20.17837479 -15.54788223 17.93097477 -15.53515625 15.68359375 C-15.54011612 14.62309814 -15.54507599 13.56260254 -15.55018616 12.4699707 C-15.48619615 8.47845897 -15.43443748 5.4166035 -13.61889648 1.82788086 C-9.2336578 -0.37584802 -4.83556147 -0.05230257 0 0 Z M0.03125 15.49609375 C0.03125 24.73609375 0.03125 33.97609375 0.03125 43.49609375 C8.94125 43.49609375 17.85125 43.49609375 27.03125 43.49609375 C27.03125 34.25609375 27.03125 25.01609375 27.03125 15.49609375 C18.12125 15.49609375 9.21125 15.49609375 0.03125 15.49609375 Z " fill="#000000" transform="translate(85.96875,276.50390625)"/>
<path d="M0 0 C1.02665268 0.00091644 2.05330536 0.00183289 3.11106873 0.0027771 C5.27713659 0.00880856 7.44319629 0.0245408 9.60913086 0.04931641 C12.9252798 0.08584592 16.24031138 0.09033546 19.55664062 0.08984375 C21.66277008 0.09967448 23.76889196 0.11133129 25.875 0.125 C26.86673721 0.12722565 27.85847443 0.12945129 28.88026428 0.13174438 C29.80479904 0.14450409 30.7293338 0.15726379 31.68188477 0.17041016 C32.89836449 0.18184555 32.89836449 0.18184555 34.13941956 0.19351196 C36.63232227 0.49224098 38.24829391 1.13304576 40.37109375 2.4609375 C41.58743378 4.89361757 41.51738911 6.49518074 41.5480957 9.21435547 C41.56734856 10.69631912 41.56734856 10.69631912 41.58699036 12.20822144 C41.59437729 13.27903961 41.60176422 14.34985779 41.609375 15.453125 C41.61744675 16.55061066 41.62551849 17.64809631 41.63383484 18.77883911 C41.64768165 21.10400814 41.65840112 23.42919755 41.66625977 25.75439453 C41.68349008 29.31451759 41.72737403 32.87371644 41.77148438 36.43359375 C41.78160947 38.69009732 41.79012614 40.9466088 41.796875 43.203125 C41.81438309 44.26989471 41.83189117 45.33666443 41.84992981 46.4357605 C41.82899945 53.54912745 41.82899945 53.54912745 40.0300293 57.13134766 C35.63908075 59.32702352 31.24146721 59.02991251 26.40234375 58.9921875 C24.79365417 58.99792786 24.79365417 58.99792786 23.15246582 59.00378418 C20.88630229 59.00650466 18.62010744 58.99913403 16.35400391 58.98242188 C12.88372847 58.96101544 9.41552348 58.98222025 5.9453125 59.0078125 C3.74348501 59.00516925 1.54165881 59.00004433 -0.66015625 58.9921875 C-1.69877808 59.00028442 -2.7373999 59.00838135 -3.80749512 59.01672363 C-7.74287779 58.96545309 -10.73745286 58.90966171 -14.27905273 57.12695312 C-16.52863166 52.6839432 -16.21826317 48.18064046 -16.1953125 43.2734375 C-16.20151108 42.17878174 -16.20770966 41.08412598 -16.21409607 39.95629883 C-16.22119659 37.64307546 -16.21801626 35.329801 -16.20532227 33.01660156 C-16.19145602 29.47365503 -16.2255278 25.93334844 -16.26367188 22.390625 C-16.26462304 20.14322852 -16.26276439 17.89582873 -16.2578125 15.6484375 C-16.27107071 14.58794189 -16.28432892 13.52744629 -16.29798889 12.43481445 C-16.20727062 5.28465488 -16.20727062 5.28465488 -13.75390625 1.79052734 C-9.14969447 -0.16842089 -4.95527221 -0.07195256 0 0 Z M-0.62890625 15.4609375 C-0.62890625 24.7009375 -0.62890625 33.9409375 -0.62890625 43.4609375 C8.28109375 43.4609375 17.19109375 43.4609375 26.37109375 43.4609375 C26.37109375 34.2209375 26.37109375 24.9809375 26.37109375 15.4609375 C17.46109375 15.4609375 8.55109375 15.4609375 -0.62890625 15.4609375 Z " fill="#000000" transform="translate(86.62890625,105.5390625)"/>
<path d="M0 0 C1.51672302 -0.01418472 1.51672302 -0.01418472 3.06408691 -0.02865601 C4.7000885 -0.01954697 4.7000885 -0.01954697 6.36914062 -0.01025391 C7.48977905 -0.01312408 8.61041748 -0.01599426 9.76501465 -0.01895142 C12.13550318 -0.02099387 14.5060085 -0.0154514 16.87646484 -0.00292969 C20.51112446 0.0131206 24.14467197 -0.00277309 27.77929688 -0.02197266 C30.08008059 -0.01999026 32.38086361 -0.01614665 34.68164062 -0.01025391 C35.77230835 -0.0163266 36.86297607 -0.02239929 37.98669434 -0.02865601 C38.99784302 -0.01919952 40.0089917 -0.00974304 41.05078125 0 C42.38622986 0.00358017 42.38622986 0.00358017 43.74865723 0.00723267 C46.02539062 0.38818359 46.02539062 0.38818359 47.81204224 1.60153198 C49.42029901 3.96968493 49.40592337 5.50892886 49.41357422 8.36279297 C49.4230307 9.37394165 49.43248718 10.38509033 49.44223022 11.42687988 C49.43615753 12.51754761 49.43008484 13.60821533 49.42382812 14.73193359 C49.4266983 15.85257202 49.42956848 16.97321045 49.43252563 18.12780762 C49.43456809 20.49829615 49.42902562 22.86880147 49.41650391 25.23925781 C49.40045362 28.87391743 49.41634731 32.50746494 49.43554688 36.14208984 C49.43356448 38.44287356 49.42972087 40.74365657 49.42382812 43.04443359 C49.43293716 44.68043518 49.43293716 44.68043518 49.44223022 46.3494873 C49.43277374 47.36063599 49.42331726 48.37178467 49.41357422 49.41357422 C49.41118744 50.30387329 49.40880066 51.19417236 49.40634155 52.1114502 C49.02539062 54.38818359 49.02539062 54.38818359 47.81204224 56.17483521 C45.44388929 57.78309198 43.90464536 57.76871634 41.05078125 57.77636719 C39.53405823 57.79055191 39.53405823 57.79055191 37.98669434 57.80502319 C36.89602661 57.7989505 35.80535889 57.79287781 34.68164062 57.78662109 C33.00068298 57.79092636 33.00068298 57.79092636 31.2857666 57.7953186 C28.91527807 57.79736106 26.54477275 57.79181859 24.17431641 57.77929688 C20.53965679 57.76324659 16.90610928 57.77914028 13.27148438 57.79833984 C10.97070066 57.79635745 8.66991764 57.79251384 6.36914062 57.78662109 C4.73313904 57.79573013 4.73313904 57.79573013 3.06408691 57.80502319 C2.05293823 57.79556671 1.04178955 57.78611023 0 57.77636719 C-0.89029907 57.77398041 -1.78059814 57.77159363 -2.69787598 57.76913452 C-4.97460938 57.38818359 -4.97460938 57.38818359 -6.76126099 56.17483521 C-8.36951776 53.80668226 -8.35514212 52.26743833 -8.36279297 49.41357422 C-8.37224945 48.40242554 -8.38170593 47.39127686 -8.39144897 46.3494873 C-8.38537628 45.25881958 -8.37930359 44.16815186 -8.37304688 43.04443359 C-8.37591705 41.92379517 -8.37878723 40.80315674 -8.38174438 39.64855957 C-8.38378684 37.27807104 -8.37824437 34.90756572 -8.36572266 32.53710938 C-8.34967237 28.90244976 -8.36556606 25.26890225 -8.38476562 21.63427734 C-8.38278323 19.33349363 -8.37893962 17.03271061 -8.37304688 14.73193359 C-8.37911957 13.64126587 -8.38519226 12.55059814 -8.39144897 11.42687988 C-8.38199249 10.4157312 -8.37253601 9.40458252 -8.36279297 8.36279297 C-8.36040619 7.4724939 -8.35801941 6.58219482 -8.3555603 5.66491699 C-7.97460938 3.38818359 -7.97460938 3.38818359 -6.76126099 1.60153198 C-4.39310804 -0.00672479 -2.85386411 0.00765085 0 0 Z M7.02539062 15.38818359 C7.02539062 24.29818359 7.02539062 33.20818359 7.02539062 42.38818359 C15.93539062 42.38818359 24.84539062 42.38818359 34.02539062 42.38818359 C34.02539062 33.47818359 34.02539062 24.56818359 34.02539062 15.38818359 C25.11539063 15.38818359 16.20539063 15.38818359 7.02539062 15.38818359 Z " fill="#000000" transform="translate(78.974609375,191.61181640625)"/>
<path d="M0 0 C1.25342697 -0.0112793 2.50685394 -0.02255859 3.79826355 -0.03417969 C5.18472521 -0.0264027 6.57118459 -0.01821004 7.9576416 -0.00964355 C9.41971026 -0.01506448 10.88177345 -0.02218697 12.34382629 -0.03088379 C16.31287584 -0.04912394 20.28150964 -0.04204698 24.25056648 -0.02936745 C28.40338388 -0.01924327 32.55616559 -0.0286315 36.70898438 -0.03491211 C43.68304844 -0.04219023 50.6569431 -0.03259656 57.63098145 -0.0135498 C65.69497997 0.00821935 73.75857397 0.00116809 81.82256269 -0.02085543 C88.74497679 -0.0390048 95.66726907 -0.04157004 102.58969927 -0.03110075 C106.72467715 -0.02486324 110.85946486 -0.02403716 114.99443054 -0.0372467 C118.88188305 -0.04879797 122.76881383 -0.0407933 126.65620995 -0.01766968 C128.08325013 -0.01237863 129.51033419 -0.01390321 130.93735695 -0.02272034 C132.88441022 -0.03364181 134.83155939 -0.01752064 136.77856445 0 C138.41340664 0.00226215 138.41340664 0.00226215 140.08127594 0.00457001 C143.58428893 0.63252181 144.76394938 1.69641188 146.88928223 4.50793457 C147.45178223 8.00793457 147.45178223 8.00793457 146.88928223 11.50793457 C144.3153888 14.12504866 142.63408612 15.37852328 138.99225616 16.01129913 C137.91933067 16.01280724 136.84640518 16.01431534 135.7409668 16.01586914 C134.50443863 16.02714844 133.26791046 16.03842773 131.99391174 16.05004883 C130.63155892 16.04227235 129.26920843 16.03407972 127.90686035 16.0255127 C126.4659708 16.03093538 125.02508679 16.03805887 123.58421326 16.04675293 C119.67713487 16.06497212 115.77047947 16.05792479 111.86339378 16.04523659 C107.77244308 16.03510155 103.68152832 16.04450366 99.59057617 16.05078125 C92.72084051 16.0580562 85.85127692 16.04847402 78.98156738 16.02941895 C71.04196587 16.00765039 63.10277524 16.01470188 55.16318369 16.03672457 C48.34349252 16.05488297 41.52392497 16.05743477 34.70421743 16.04696989 C30.63237874 16.04073734 26.56073311 16.03989265 22.48890686 16.05311584 C18.66053113 16.06468025 14.83268455 16.05663844 11.00436592 16.03353882 C9.60032085 16.02825479 8.19623116 16.02976036 6.7922039 16.03858948 C4.87401812 16.04953872 2.95573489 16.0333659 1.03759766 16.01586914 C-0.57179058 16.01360699 -0.57179058 16.01360699 -2.21369171 16.01129913 C-5.85552167 15.37852328 -7.53682434 14.12504866 -10.11071777 11.50793457 C-10.67321777 8.00793457 -10.67321777 8.00793457 -10.11071777 4.50793457 C-7.08561024 0.50613386 -4.91607136 0.00680244 0 0 Z " fill="#000000" transform="translate(159.1107177734375,141.4920654296875)"/>
<path d="M0 0 C0.8917093 -0.00280692 1.7834186 -0.00561384 2.70214939 -0.00850582 C3.72701954 -0.02123028 4.75188969 -0.03395473 5.80781651 -0.04706478 C6.9315366 -0.0405389 8.05525669 -0.03401302 9.21302891 -0.02728939 C10.39697742 -0.03590496 11.58092594 -0.04452053 12.80075169 -0.05339718 C16.04887837 -0.07222895 19.29636379 -0.07294502 22.54451537 -0.06407571 C25.25581571 -0.05896899 27.96702433 -0.06625583 30.67831522 -0.07354778 C37.07473344 -0.09055629 43.47091317 -0.08697197 49.86732578 -0.07025814 C56.4664419 -0.0533376 63.06489652 -0.06916739 69.66394037 -0.10148102 C75.32945907 -0.12817252 80.99477179 -0.13545416 86.66034704 -0.12696594 C90.04424184 -0.12203502 93.42773863 -0.12426021 96.81158352 -0.14475346 C100.58521565 -0.16212194 104.35742355 -0.14771789 108.13099766 -0.12494564 C109.81354145 -0.14248394 109.81354145 -0.14248394 111.53007603 -0.16037655 C119.06874134 -0.06755286 119.06874134 -0.06755286 122.46597385 2.85028934 C124.0998265 6.26507846 123.90104121 7.93554383 122.73671055 11.50615788 C121.1560416 13.49917524 120.00584353 14.37159138 117.73671055 15.50615788 C116.17700025 15.60704854 114.61306158 15.64557887 113.05011082 15.6533289 C112.06171711 15.6604842 111.0733234 15.6676395 110.05497837 15.67501163 C108.42246632 15.67904499 108.42246632 15.67904499 106.75697422 15.68315983 C105.04220135 15.69301662 105.04220135 15.69301662 103.2927866 15.70307255 C99.49675023 15.72283894 95.70075346 15.734475 91.9046793 15.74443913 C90.61091185 15.74851465 89.31714439 15.75259018 87.98417187 15.75678921 C81.84443953 15.77550908 75.70472713 15.79007229 69.5649721 15.79840118 C62.47818776 15.8081735 55.39171577 15.83449227 48.30504149 15.87490207 C42.16691203 15.9087016 36.02891389 15.92054624 29.89069653 15.92460537 C27.27955919 15.92948605 24.66842555 15.94114182 22.05734921 15.95964336 C18.40618798 15.98390848 14.75584711 15.98309249 11.10463047 15.97612858 C10.02236179 15.98893864 8.94009312 16.0017487 7.82502842 16.01494694 C3.32719313 15.9836162 0.51894246 15.95164957 -3.44253445 13.69553471 C-5.26328945 11.50615788 -5.26328945 11.50615788 -5.76328945 8.00615788 C-5.17312309 3.87499334 -4.37518925 0.97845925 0 0 Z " fill="#000000" transform="translate(147.26328945159912,63.493842124938965)"/>
<path d="M0 0 C0.85514191 -0.00571014 1.71028381 -0.01142029 2.59133911 -0.01730347 C3.52647339 -0.01842133 4.46160767 -0.01953918 5.42507935 -0.02069092 C6.41235016 -0.02565582 7.39962097 -0.03062073 8.41680908 -0.03573608 C11.68796481 -0.05036013 14.95907206 -0.05715981 18.23025513 -0.06268311 C20.50085451 -0.06843395 22.77145387 -0.0741917 25.04205322 -0.07995605 C29.80514757 -0.09046646 34.56822503 -0.09630901 39.33132935 -0.09979248 C45.43695093 -0.10528004 51.54234983 -0.12931366 57.64790154 -0.15776443 C62.33875177 -0.17637954 67.02954822 -0.1815958 71.72043228 -0.18312836 C73.97151025 -0.18615749 76.22258722 -0.19419477 78.473629 -0.20731354 C81.62168121 -0.22435163 84.76918734 -0.22249919 87.91726685 -0.21600342 C89.31389557 -0.22982559 89.31389557 -0.22982559 90.73873901 -0.243927 C95.54996996 -0.21279892 98.94985743 -0.08934716 102.80056763 3.14044189 C104.30056763 6.01544189 104.30056763 6.01544189 104.80056763 9.14044189 C103.60946737 12.05202029 102.65259423 13.62184258 99.95336056 15.26477337 C97.62010215 16.21384791 95.98992826 16.39419661 93.48088074 16.40113831 C92.62436417 16.40822311 91.7678476 16.41530792 90.88537598 16.42260742 C89.95383698 16.42013 89.02229797 16.41765259 88.06253052 16.4151001 C87.07511368 16.42021103 86.08769684 16.42532196 85.07035828 16.43058777 C81.80458525 16.44449398 78.539023 16.44352624 75.27322388 16.44122314 C73.00405295 16.44510943 70.73488275 16.44944396 68.4657135 16.45420837 C63.70857384 16.46167275 58.95150838 16.46137765 54.19436646 16.45611572 C48.0966002 16.45032004 41.99913759 16.46725363 35.90142155 16.4904604 C31.2148511 16.50518804 26.52835394 16.50607076 21.84176445 16.50295067 C19.59348385 16.50346434 17.34519919 16.50871065 15.09694099 16.51876259 C11.95375934 16.531091 8.81117134 16.52435666 5.66799927 16.51275635 C4.7384845 16.52040009 3.80896973 16.52804382 2.85128784 16.53591919 C-1.96677683 16.49659185 -5.31688077 16.33647797 -9.19943237 13.14044189 C-10.60400974 10.33128716 -10.44838395 8.25233655 -10.19943237 5.14044189 C-7.67227257 0.687827 -4.9077162 0.01965047 0 0 Z " fill="#000000" transform="translate(159.19943237304688,311.85955810546875)"/>
<path d="M0 0 C1.52764481 -0.00810448 1.52764481 -0.00810448 3.08615112 -0.01637268 C6.4489253 -0.02886917 9.81084498 -0.01236327 13.17358398 0.00561523 C15.5109817 0.00546028 17.84837967 0.00397191 20.18577576 0.00120544 C25.08246225 -0.00017893 29.97885597 0.01238728 34.87548828 0.03515625 C41.15607985 0.06355633 47.43618548 0.06079963 53.71681309 0.04806614 C58.5423346 0.04111613 63.36774352 0.04889029 68.19325066 0.06132317 C70.50933335 0.06584313 72.82542811 0.06616972 75.14151192 0.06225777 C78.37584404 0.05935187 81.60950288 0.07582293 84.84375 0.09765625 C85.80334122 0.0931546 86.76293243 0.08865295 87.75160217 0.08401489 C88.63336121 0.09391953 89.51512024 0.10382416 90.42359924 0.11402893 C91.18772408 0.11645883 91.95184893 0.11888872 92.73912907 0.12139225 C95.46468887 0.61079366 96.84177835 1.62889551 98.85717773 3.50170898 C100.06080358 7.19282824 100.20136064 8.7976985 98.48217773 12.31420898 C96.85717773 14.50170898 96.85717773 14.50170898 95.85717773 15.50170898 C94.47506289 15.60575603 93.08771099 15.64131482 91.70170593 15.64888 C90.80579742 15.65603531 89.90988892 15.66319061 88.98683167 15.67056274 C87.50085732 15.6745961 87.50085732 15.6745961 85.98486328 15.67871094 C84.42883392 15.68856773 84.42883392 15.68856773 82.84136963 15.69862366 C79.39221128 15.71841121 75.94309656 15.73003112 72.49389648 15.73999023 C71.31932199 15.74406576 70.14474751 15.74814129 68.93457985 15.75234032 C62.7184326 15.77322394 56.50230759 15.78751596 50.28613281 15.796875 C43.85296405 15.80794671 37.42014051 15.84234921 30.98709393 15.8820467 C26.05179688 15.90814543 21.11658291 15.91656083 16.18122292 15.92015648 C13.80929036 15.92503957 11.43736194 15.93670212 9.06549644 15.95519447 C5.74927515 15.97944298 2.43395788 15.9786468 -0.88232422 15.97167969 C-2.35918953 15.99089478 -2.35918953 15.99089478 -3.8658905 16.01049805 C-10.48363128 15.95968645 -10.48363128 15.95968645 -13.74894714 13.69108582 C-15.82572625 10.42906328 -15.74970433 8.27786407 -15.14282227 4.50170898 C-10.79749265 -0.49765727 -6.15600254 -0.0621534 0 0 Z " fill="#000000" transform="translate(164.142822265625,290.498291015625)"/>
<path d="M0 0 C1.52764481 -0.00810448 1.52764481 -0.00810448 3.08615112 -0.01637268 C6.4489253 -0.02886917 9.81084498 -0.01236327 13.17358398 0.00561523 C15.5109817 0.00546028 17.84837967 0.00397191 20.18577576 0.00120544 C25.08246225 -0.00017893 29.97885597 0.01238728 34.87548828 0.03515625 C41.15607985 0.06355633 47.43618548 0.06079963 53.71681309 0.04806614 C58.5423346 0.04111613 63.36774352 0.04889029 68.19325066 0.06132317 C70.50933335 0.06584313 72.82542811 0.06616972 75.14151192 0.06225777 C78.37584404 0.05935187 81.60950288 0.07582293 84.84375 0.09765625 C85.80334122 0.0931546 86.76293243 0.08865295 87.75160217 0.08401489 C88.63336121 0.09391953 89.51512024 0.10382416 90.42359924 0.11402893 C91.18772408 0.11645883 91.95184893 0.11888872 92.73912907 0.12139225 C95.46468887 0.61079366 96.84177835 1.62889551 98.85717773 3.50170898 C100.06080358 7.19282824 100.20136064 8.7976985 98.48217773 12.31420898 C96.85717773 14.50170898 96.85717773 14.50170898 95.85717773 15.50170898 C94.47506289 15.60575603 93.08771099 15.64131482 91.70170593 15.64888 C90.80579742 15.65603531 89.90988892 15.66319061 88.98683167 15.67056274 C87.50085732 15.6745961 87.50085732 15.6745961 85.98486328 15.67871094 C84.42883392 15.68856773 84.42883392 15.68856773 82.84136963 15.69862366 C79.39221128 15.71841121 75.94309656 15.73003112 72.49389648 15.73999023 C71.31932199 15.74406576 70.14474751 15.74814129 68.93457985 15.75234032 C62.7184326 15.77322394 56.50230759 15.78751596 50.28613281 15.796875 C43.85296405 15.80794671 37.42014051 15.84234921 30.98709393 15.8820467 C26.05179688 15.90814543 21.11658291 15.91656083 16.18122292 15.92015648 C13.80929036 15.92503957 11.43736194 15.93670212 9.06549644 15.95519447 C5.74927515 15.97944298 2.43395788 15.9786468 -0.88232422 15.97167969 C-2.35918953 15.99089478 -2.35918953 15.99089478 -3.8658905 16.01049805 C-10.48363128 15.95968645 -10.48363128 15.95968645 -13.74894714 13.69108582 C-15.82572625 10.42906328 -15.74970433 8.27786407 -15.14282227 4.50170898 C-10.79749265 -0.49765727 -6.15600254 -0.0621534 0 0 Z " fill="#000000" transform="translate(164.142822265625,226.498291015625)"/>
<path d="M0 0 C1.55909592 -0.00810448 1.55909592 -0.00810448 3.14968872 -0.01637268 C6.58763035 -0.0288869 10.02473904 -0.01235144 13.46264648 0.00561523 C15.84870955 0.00546032 18.23477288 0.00397263 20.62083435 0.00120544 C25.62184774 -0.00017972 30.62257475 0.01240056 35.62353516 0.03515625 C42.04213415 0.06355623 48.46025769 0.06080079 54.87889194 0.04806614 C59.80559876 0.04112042 64.73219515 0.04888536 69.65888786 0.06132317 C72.02603673 0.06584734 74.3931974 0.06616607 76.76034737 0.06225777 C80.06443833 0.05935607 83.36786753 0.07580269 86.671875 0.09765625 C87.65533401 0.0931546 88.63879303 0.08865295 89.65205383 0.08401489 C90.55071167 0.09391953 91.44936951 0.10382416 92.3752594 0.11402893 C93.15635354 0.11645883 93.93744768 0.11888872 94.74221134 0.12139225 C97.31968026 0.60450738 98.18321504 1.44777607 99.77124023 3.50170898 C100.88402283 7.15799464 101.09072387 8.8171012 99.45874023 12.31420898 C97.77124023 14.50170898 97.77124023 14.50170898 95.77124023 15.50170898 C94.37627097 15.60172981 92.97669948 15.64107735 91.57817078 15.64888 C90.25965622 15.65961296 90.25965622 15.65961296 88.914505 15.67056274 C87.94772324 15.67325165 86.98094147 15.67594055 85.98486328 15.67871094 C84.96847778 15.68528214 83.95209229 15.69185333 82.90490723 15.69862366 C79.53092379 15.71838493 76.15698491 15.73002512 72.78295898 15.73999023 C71.63261484 15.74406576 70.4822707 15.74814129 69.29706764 15.75234032 C63.20944014 15.77321239 57.12183526 15.78750962 51.03417969 15.796875 C44.73901817 15.80794623 38.44420946 15.84235147 32.14917278 15.8820467 C27.31506177 15.90816204 22.48103548 15.9165623 17.64686012 15.92015648 C15.32599312 15.925035 13.00513021 15.93668473 10.68433189 15.95519447 C7.43786848 15.97947885 4.19232676 15.97864023 0.94580078 15.97167969 C-0.01490829 15.98448975 -0.97561737 15.9972998 -1.96543884 16.01049805 C-6.19715388 15.97738788 -8.61381896 15.86079137 -12.32951355 13.69108582 C-14.22875977 11.50170898 -14.22875977 11.50170898 -14.79125977 8.00170898 C-14.22875977 4.50170898 -14.22875977 4.50170898 -12.832901 2.3143158 C-8.77085523 -0.51306228 -4.83650431 -0.04764369 0 0 Z " fill="#000000" transform="translate(163.228759765625,205.498291015625)"/>
</svg>
