<?xml version="1.0" standalone="no"?>
<!DOCTYPE svg PUBLIC "-//W3C//DTD SVG 20010904//EN"
 "http://www.w3.org/TR/2001/REC-SVG-20010904/DTD/svg10.dtd">
<svg version="1.0" xmlns="http://www.w3.org/2000/svg"
 width="512.000000pt" height="512.000000pt" viewBox="0 0 512.000000 512.000000"
 preserveAspectRatio="xMidYMid meet">

<g transform="translate(0.000000,512.000000) scale(0.100000,-0.100000)"
fill="#000000" stroke="none">
<path d="M3987 5110 c-110 -28 -68 12 -1770 -1688 -896 -895 -1633 -1635
-1638 -1644 -17 -31 -579 -1662 -579 -1681 0 -48 50 -97 99 -97 16 0 280 90
1261 430 374 129 397 138 416 148 11 6 753 746 1650 1644 1553 1556 1632 1636
1660 1698 25 57 29 76 28 160 -1 175 13 156 -433 601 -364 365 -389 388 -446
409 -67 25 -189 35 -248 20z m178 -209 c26 -12 158 -137 386 -367 274 -276
349 -357 359 -388 16 -49 7 -128 -19 -169 -11 -18 -101 -113 -201 -212 l-180
-180 -462 463 -463 462 180 180 c192 192 244 230 319 230 23 0 59 -9 81 -19z
m-258 -993 c249 -249 453 -457 453 -463 0 -13 -192 -205 -205 -205 -13 0 -915
902 -915 915 0 13 192 205 205 205 5 0 214 -204 462 -452z m-734 24 l77 -77
-1053 -1053 -1053 -1053 -130 22 c-71 12 -131 23 -134 26 -4 4 2201 2213 2210
2213 3 0 40 -35 83 -78z m-520 -1593 l-1058 -1057 -151 5 -152 6 -5 151 -4
151 1056 1057 1056 1058 157 -157 158 -158 -1057 -1056z m257 -354 c-608 -608
-1108 -1105 -1111 -1105 -3 0 -16 59 -28 132 l-22 132 1053 1053 1053 1053 80
-80 80 -80 -1105 -1105z m-1992 -401 c87 -15 159 -28 162 -31 3 -3 7 -91 10
-196 7 -270 -3 -259 267 -267 105 -3 194 -7 196 -10 12 -11 59 -342 51 -349
-17 -16 -773 -273 -784 -266 -5 3 -10 11 -10 16 0 14 -67 117 -103 159 -43 50
-125 117 -177 145 -25 13 -51 28 -58 33 -11 7 13 87 117 388 72 209 133 385
136 392 6 16 14 16 193 -14z m-473 -980 c86 -57 201 -194 179 -213 -15 -13
-344 -124 -351 -118 -4 5 44 154 108 335 11 28 16 28 64 -4z"/>
</g>
</svg>
