<?xml version="1.0" standalone="no"?>
<!DOCTYPE svg PUBLIC "-//W3C//DTD SVG 20010904//EN"
 "http://www.w3.org/TR/2001/REC-SVG-20010904/DTD/svg10.dtd">
<svg version="1.0" xmlns="http://www.w3.org/2000/svg"
 width="512.000000pt" height="512.000000pt" viewBox="0 0 512.000000 512.000000"
 preserveAspectRatio="xMidYMid meet">

<g transform="translate(0.000000,512.000000) scale(0.100000,-0.100000)"
fill="#000000" stroke="none">
<path d="M623 4785 c-78 -21 -130 -51 -191 -108 -63 -61 -97 -115 -123 -199
-18 -57 -20 -126 -29 -1262 -5 -660 -10 -1434 -11 -1719 l-1 -518 27 -54 c49
-101 134 -145 282 -145 l83 0 0 -133 c0 -124 2 -137 26 -186 32 -64 99 -116
169 -131 35 -8 446 -10 1385 -8 l1335 3 41 22 c50 27 97 75 121 122 17 34 18
123 21 1738 l2 1702 53 15 c222 64 361 310 303 536 -41 158 -165 284 -321 325
-52 13 -243 15 -1590 14 -1285 0 -1538 -3 -1582 -14z m243 -178 c59 -30 109
-83 136 -145 26 -57 22 -177 -7 -237 -43 -88 -130 -147 -235 -161 -34 -4 -64
-14 -77 -27 l-23 -20 0 -1068 0 -1068 26 -20 c35 -28 67 -26 101 3 l28 24 3
1006 2 1006 1390 0 1390 0 0 -1679 0 -1680 -24 -28 -24 -28 -1341 0 -1340 0
-23 23 -23 23 -5 550 -5 551 -28 24 c-34 29 -66 31 -101 3 l-26 -20 0 -351 0
-350 -89 4 c-99 3 -125 17 -139 72 -12 48 14 3364 27 3412 24 90 95 165 188
200 57 21 157 13 219 -19z m2916 13 c109 -40 176 -130 186 -245 9 -121 -59
-236 -170 -286 l-53 -24 -1332 -3 -1332 -2 35 57 c47 78 64 141 64 234 0 93
-27 188 -70 247 l-30 42 1325 0 c1295 0 1325 0 1377 -20z"/>
<path d="M974 3370 c-28 -11 -54 -48 -54 -77 0 -21 156 -239 224 -311 63 -68
153 -90 231 -58 19 8 84 62 144 120 60 58 115 106 122 106 7 0 35 -22 64 -49
31 -29 68 -54 91 -60 22 -6 123 -11 228 -11 l190 0 55 -44 c87 -68 115 -79
186 -74 81 5 121 32 177 120 24 37 51 70 61 74 13 4 34 -9 71 -44 31 -30 69
-55 92 -61 62 -17 428 -14 463 4 48 24 57 87 18 123 -22 21 -32 22 -229 22
l-206 0 -50 49 c-67 66 -125 83 -204 61 -51 -15 -93 -52 -140 -127 -49 -78
-63 -79 -144 -17 -92 73 -98 74 -323 74 l-200 0 -48 49 c-70 71 -149 89 -228
52 -22 -10 -88 -64 -147 -120 -60 -57 -115 -101 -126 -101 -13 0 -51 42 -119
133 -130 171 -149 187 -199 167z"/>
<path d="M1056 2619 c-20 -16 -26 -29 -26 -59 0 -30 6 -43 26 -59 27 -21 30
-21 1066 -21 l1039 0 24 25 c16 15 25 36 25 55 0 19 -9 40 -25 55 l-24 25
-1039 0 c-1036 0 -1039 0 -1066 -21z"/>
<path d="M1076 2159 c-20 -16 -26 -29 -26 -59 0 -30 6 -43 26 -59 27 -21 32
-21 850 -21 l823 0 27 23 c20 17 27 33 27 57 0 24 -7 40 -27 57 l-27 23 -823
0 c-818 0 -823 0 -850 -21z"/>
<path d="M1056 1699 c-20 -16 -26 -29 -26 -59 0 -30 6 -43 26 -59 27 -21 29
-21 1141 -21 l1114 0 24 25 c33 32 33 78 0 110 l-24 25 -1114 0 c-1112 0
-1114 0 -1141 -21z"/>
<path d="M1056 1239 c-35 -27 -36 -86 -3 -117 l23 -22 916 0 c911 0 915 0 942
21 37 29 37 89 0 118 -27 21 -31 21 -939 21 -908 0 -912 0 -939 -21z"/>
<path d="M4228 3840 c-76 -40 -98 -102 -98 -272 l0 -118 -30 0 c-33 0 -70 -30
-71 -57 0 -10 0 -276 1 -592 1 -401 4 -580 12 -595 27 -51 84 -61 123 -21 l25
24 0 391 0 390 128 0 129 0 6 -487 c4 -269 7 -678 7 -910 l0 -423 -128 0 -129
0 -6 272 c-4 149 -7 325 -7 390 0 113 -1 120 -25 143 -33 34 -70 32 -107 -5
l-30 -31 7 -437 6 -437 111 -332 c91 -277 114 -336 136 -354 29 -22 75 -20
100 5 8 8 63 166 124 352 l109 339 -5 952 c-4 642 -3 954 4 958 6 4 24 4 40 0
l29 -6 3 -459 3 -458 24 -26 c48 -51 127 -21 132 49 2 17 2 250 1 518 l-2 488
-25 24 c-20 21 -34 25 -82 25 -32 0 -75 3 -95 6 l-38 7 0 122 c0 137 -12 167
-70 180 l-30 7 0 129 c0 133 -7 165 -49 213 -49 55 -162 73 -233 36z m120
-262 l3 -118 -31 0 -30 0 0 104 c0 121 4 138 34 134 20 -3 21 -9 24 -120z
m102 -353 l0 -75 -130 0 -130 0 0 69 0 70 53 4 c28 2 87 4 130 5 l77 2 0 -75z
m-20 -2217 c-2 -27 -100 -299 -104 -288 -13 36 -96 281 -96 285 0 3 45 5 100
5 55 0 100 -1 100 -2z"/>
</g>
</svg>
