<?xml version="1.0" encoding="UTF-8"?>
<svg version="1.1" xmlns="http://www.w3.org/2000/svg" width="512" height="512">
<path d="M0 0 C1.11038635 -0.0112793 2.22077271 -0.02255859 3.36480713 -0.03417969 C4.57843933 -0.02608276 5.79207153 -0.01798584 7.04248047 -0.00964355 C8.96492584 -0.02015747 8.96492584 -0.02015747 10.9262085 -0.03088379 C14.43867886 -0.049114 17.9506791 -0.04205128 21.46315765 -0.02936745 C25.13951379 -0.01923803 28.81582977 -0.02863295 32.4921875 -0.03491211 C38.66592636 -0.04218872 44.8394738 -0.0326006 51.01318359 -0.0135498 C58.1501633 0.00821916 65.28668593 0.00116778 72.42365456 -0.02085543 C78.55202458 -0.03900918 84.68025703 -0.04156794 90.80864525 -0.03110075 C94.46855537 -0.0248656 98.12825067 -0.02403054 101.78814697 -0.0372467 C105.8679917 -0.05095032 109.94704887 -0.03195615 114.02685547 -0.00964355 C115.24048767 -0.01774048 116.45411987 -0.0258374 117.70452881 -0.03417969 C118.81491516 -0.02290039 119.92530151 -0.01162109 121.06933594 0 C122.03386688 0.0015081 122.99839783 0.0030162 123.99215698 0.00457001 C127.28033655 0.65556152 128.48158041 1.91003956 130.53466797 4.50793457 C130.92529297 7.08605957 130.92529297 7.08605957 130.78466797 9.75793457 C130.74857422 10.64996582 130.71248047 11.54199707 130.67529297 12.46105957 C130.62888672 13.13652832 130.58248047 13.81199707 130.53466797 14.50793457 C131.6547374 14.50127274 132.77480682 14.4946109 133.92881775 14.48774719 C144.50689125 14.42681701 155.08492893 14.38190481 165.66313839 14.35249805 C171.1009397 14.3368713 176.53859885 14.31568765 181.97631836 14.28161621 C187.22829643 14.24891615 192.48013811 14.23105908 197.73221016 14.22330284 C199.73158476 14.21777843 201.73095226 14.2069907 203.73026848 14.1907444 C206.54014845 14.1688286 209.34947155 14.16597354 212.15942383 14.1673584 C212.97798355 14.15657257 213.79654327 14.14578674 214.63990784 14.13467407 C223.98297721 14.18419564 230.81729857 16.89482557 237.58544922 23.32043457 C243.47762548 29.9328969 244.65745923 36.89788117 244.66609573 45.56083202 C244.66814837 46.26259199 244.670201 46.96435195 244.67231584 47.68737736 C244.67798119 50.04458818 244.67652916 52.40174048 244.67510986 54.75895691 C244.67769376 56.46381329 244.68070699 58.16866907 244.68411326 59.87352401 C244.69218357 64.56317572 244.69397285 69.25281212 244.69471073 73.94246995 C244.69656123 78.99852114 244.70410854 84.05456437 244.71084595 89.11061096 C244.72442995 100.16848382 244.73045407 111.22635305 244.73485661 122.28423285 C244.73761888 129.18825148 244.7418562 136.09226871 244.74636078 142.99628639 C244.75855346 162.10991039 244.76885282 181.22353326 244.77223587 200.33716106 C244.77245544 201.5605609 244.772675 202.78396073 244.77290122 204.04443328 C244.7731195 205.27076666 244.77333778 206.49710003 244.77356267 207.76059502 C244.77400614 210.24562943 244.7744527 212.73066384 244.77490234 215.21569824 C244.77512377 216.44836215 244.7753452 217.68102605 244.77557334 218.9510434 C244.77952154 238.92555348 244.79697622 258.90002708 244.82026187 278.87452307 C244.84397358 299.37993612 244.85643764 319.88533087 244.85760379 340.39075786 C244.85852064 351.90464153 244.86427559 363.41847767 244.8824234 374.93234825 C244.89782192 384.73650976 244.90294629 394.54060905 244.8946853 404.34478035 C244.89077796 409.34648398 244.89171259 414.3480623 244.90574265 419.34975052 C244.91847626 423.9311779 244.91728873 428.51238574 244.90515193 433.0938128 C244.90319401 434.74861034 244.90627777 436.4034234 244.9149963 438.05819913 C244.96691361 448.5807825 244.94807041 459.19117362 238.19482422 467.90637207 C232.59255939 473.3109099 225.8504644 476.62659223 218.10219479 476.64494896 C216.39910511 476.65256077 216.39910511 476.65256077 214.66160959 476.66032636 C213.40872017 476.66082412 212.15583074 476.66132188 210.86497498 476.66183472 C209.52482652 476.66584938 208.18467928 476.67028761 206.8445335 476.67511427 C203.15370549 476.68708551 199.46289055 476.69272951 195.77204692 476.69729543 C191.79435739 476.70324953 187.8166835 476.71485994 183.83900452 476.72558594 C174.22796742 476.7501157 164.61692515 476.76473863 155.00586638 476.77764601 C152.2912416 476.78135774 149.57661734 476.785331 146.86199307 476.78939867 C130.00501054 476.81463673 113.14802719 476.83669017 96.29102993 476.84912682 C92.38583307 476.85205653 88.48063625 476.85501818 84.57543945 476.85803223 C83.60481865 476.85877828 82.63419784 476.85952433 81.63416428 476.86029299 C65.91446296 476.87294368 50.19487482 476.90616239 34.47522639 476.94783406 C18.33624527 476.99026657 2.19732206 477.01382344 -13.9417147 477.01904738 C-23.00317252 477.02246017 -32.06445351 477.03419968 -41.1258564 477.06715012 C-48.84402958 477.09517 -56.5619897 477.10614152 -64.28020979 477.09495465 C-68.21673278 477.08977277 -72.15280972 477.09262358 -76.08926773 477.1174202 C-79.69762965 477.13995979 -83.30522635 477.13913729 -86.91360211 477.12021632 C-88.82779504 477.11610583 -90.74199295 477.13652747 -92.65606982 477.15800321 C-101.77537123 477.07443459 -108.34348013 475.00254814 -115.34033203 469.07043457 C-121.63187756 461.48357085 -123.71303145 454.85152906 -123.71980762 445.08589363 C-123.72461734 444.02806139 -123.72461734 444.02806139 -123.72952422 442.9488588 C-123.73779168 440.59787109 -123.73191148 438.24714032 -123.72602844 435.89614868 C-123.72905061 434.18870212 -123.73294042 432.48125691 -123.73762101 430.77381408 C-123.74790127 426.09092007 -123.7457191 421.40810262 -123.74144042 416.72520232 C-123.73897326 411.67124465 -123.74798723 406.61730541 -123.75547791 401.56335449 C-123.76822714 391.66565581 -123.77001832 381.76798425 -123.76767764 371.87027873 C-123.7658946 363.82516642 -123.76764384 355.78006234 -123.77190208 347.73495102 C-123.77279487 346.01740841 -123.77279487 346.01740841 -123.77370569 344.26516797 C-123.77491744 341.93903956 -123.77613157 339.61291114 -123.77734806 337.28678273 C-123.78822444 315.47239972 -123.78606063 293.65803218 -123.77996322 271.8436483 C-123.77479382 251.88872589 -123.78604995 231.9338523 -123.80506144 211.97893955 C-123.82443485 191.4869885 -123.83269672 170.99506055 -123.82893819 150.50310028 C-123.82702541 138.99932555 -123.8295212 127.49559236 -123.84365273 115.9918251 C-123.85556113 106.19871107 -123.85697744 96.40566415 -123.84486256 86.6125492 C-123.83897015 81.61690377 -123.83788452 76.62138115 -123.84986496 71.62574387 C-123.86071087 67.04998202 -123.85763572 62.47444573 -123.84360328 57.8986945 C-123.8409528 56.24600767 -123.84333388 54.59330324 -123.85133914 52.94063367 C-123.90636094 40.73116745 -123.49133631 30.63080459 -114.65673828 21.42199707 C-107.70396665 15.34916623 -100.63254797 14.35583702 -91.65771484 14.39440918 C-90.76955582 14.39426315 -89.88139679 14.39411713 -88.96632385 14.39396667 C-86.03367665 14.39466277 -83.10109313 14.402441 -80.16845703 14.41027832 C-78.13393183 14.41214358 -76.09940618 14.41356697 -74.06488037 14.41456604 C-68.71208454 14.41838273 -63.35931587 14.42820581 -58.00653076 14.43927002 C-52.54358284 14.44950235 -47.08063053 14.45406757 -41.61767578 14.45910645 C-30.90021593 14.46982881 -20.18277624 14.48689509 -9.46533203 14.50793457 C-9.51173828 13.83246582 -9.55814453 13.15699707 -9.60595703 12.46105957 C-9.64205078 11.56902832 -9.67814453 10.67699707 -9.71533203 9.75793457 C-9.76173828 8.87621582 -9.80814453 7.99449707 -9.85595703 7.08605957 C-9.00610862 1.47706007 -5.20772101 0.00814259 0 0 Z M5.53466797 15.50793457 C5.53466797 29.69793457 5.53466797 43.88793457 5.53466797 58.50793457 C41.83466797 58.50793457 78.13466797 58.50793457 115.53466797 58.50793457 C115.53466797 44.31793457 115.53466797 30.12793457 115.53466797 15.50793457 C79.23466797 15.50793457 42.93466797 15.50793457 5.53466797 15.50793457 Z M-105.71533203 35.00793457 C-108.61094587 39.14452576 -108.59181346 42.34212548 -108.5967598 47.2790575 C-108.59881243 47.97464304 -108.60086506 48.67022858 -108.6029799 49.38689247 C-108.60866789 51.73510344 -108.60719044 54.0832561 -108.60577393 56.43147278 C-108.60835653 58.12507943 -108.61136939 59.81868547 -108.61477733 61.51229066 C-108.62286285 66.17997881 -108.62463776 70.8476516 -108.62537479 75.51534593 C-108.62722264 80.544089 -108.63476859 85.57282405 -108.64151001 90.6015625 C-108.65510461 101.60350187 -108.66111973 112.6054376 -108.66552067 123.60738397 C-108.66828104 130.47350343 -108.672518 137.33962147 -108.67702484 144.20573997 C-108.6892187 163.20605665 -108.69951797 182.20637219 -108.70289993 201.2066927 C-108.7031195 202.42326619 -108.70333907 203.63983967 -108.70356528 204.89327903 C-108.70378356 206.11280559 -108.70400184 207.33233216 -108.70422673 208.58881408 C-108.7046702 211.06014526 -108.70511677 213.53147644 -108.70556641 216.00280762 C-108.70578784 217.22867992 -108.70600927 218.45455223 -108.70623741 219.71757217 C-108.71018676 239.58821405 -108.72764447 259.45881929 -108.75092593 279.32944701 C-108.77462107 299.71725615 -108.78710094 320.10504689 -108.78826785 340.49287003 C-108.78918562 351.94517555 -108.79496348 363.39743333 -108.81308746 374.84972572 C-108.82846364 384.60025141 -108.8336236 394.35071459 -108.82534936 404.10125009 C-108.82143411 409.07814122 -108.82241502 414.0549064 -108.83640671 419.03178215 C-108.84909319 423.58594111 -108.84799455 428.1398788 -108.835816 432.69403722 C-108.83384986 434.34343983 -108.83697948 435.99285784 -108.84566036 437.64223877 C-108.85670179 439.88152534 -108.84930142 442.12002391 -108.83726883 444.35928822 C-108.83786592 445.60390412 -108.83846301 446.84852003 -108.83907819 448.13085157 C-108.28852542 453.1055178 -106.63359113 456.36043717 -103.0796814 459.85118866 C-97.64223827 462.34360451 -92.55046997 462.05900359 -86.63574219 462.01586914 C-84.67429732 462.02522908 -84.67429732 462.02522908 -82.67322731 462.03477812 C-79.04972341 462.05146693 -75.42664123 462.0432274 -71.80313587 462.03083324 C-67.89304061 462.02178314 -63.98301787 462.03575227 -60.07293701 462.04675293 C-52.4155024 462.0645432 -44.75822459 462.06069593 -37.10078382 462.04910237 C-30.87766196 462.04007031 -24.65458405 462.03884306 -18.43145752 462.04319763 C-17.10310204 462.04411703 -17.10310204 462.04411703 -15.7479111 462.045055 C-13.94891467 462.0463339 -12.14991827 462.04763075 -10.35092187 462.04894537 C6.51988708 462.06035265 23.3906091 462.04723514 40.2614038 462.0257439 C54.7386031 462.00787278 69.21567411 462.01097685 83.69287109 462.02941895 C100.50314001 462.05082304 117.31333272 462.059254 134.12361336 462.04696989 C135.91600671 462.04569569 137.70840008 462.04443821 139.50079346 462.04319763 C140.38269454 462.04258053 141.26459563 462.04196343 142.17322099 462.04132763 C148.38916056 462.03787334 154.60505181 462.04370476 160.82098389 462.05311584 C168.39574156 462.06433209 175.97033341 462.06130372 183.54507208 462.03999287 C187.41015849 462.02947733 191.2749684 462.025369 195.1400528 462.03858948 C199.3286355 462.05269984 203.51651953 462.03585679 207.70507812 462.01586914 C208.92861181 462.02479203 210.1521455 462.03371491 211.41275597 462.04290819 C219.75512773 462.02349464 219.75512773 462.02349464 226.53466797 457.50793457 C229.06149802 452.53765297 229.90996983 448.9141691 229.91219139 443.26023769 C229.91655171 442.56172515 229.92091204 441.86321261 229.92540449 441.14353302 C229.93632919 438.80926968 229.92595215 436.47560093 229.9156189 434.14134216 C229.91907656 432.44840571 229.92384186 430.75547152 229.92980063 429.06254202 C229.94232521 424.41523454 229.9361336 419.76811186 229.92684197 415.12080371 C229.92005787 410.10711913 229.93052951 405.09346646 229.93878174 400.07978821 C229.95212777 390.2601489 229.94923753 380.44057834 229.94054382 370.62093633 C229.9337715 362.64155254 229.93284859 354.66218804 229.93611526 346.6828022 C229.93657496 345.54758486 229.93703466 344.41236752 229.93750829 343.24274965 C229.93846746 340.93666477 229.9394401 338.63057989 229.94042607 336.32449502 C229.94898241 314.69621598 229.93914178 293.06797507 229.92302497 271.43970228 C229.90961976 252.87543184 229.91195109 234.31121767 229.92578125 215.74694824 C229.94182961 194.195051 229.94816032 172.64318719 229.93894446 151.09128481 C229.9379888 148.79394027 229.93704569 146.49659573 229.93611526 144.19925117 C229.93542103 142.50368714 229.93542103 142.50368714 229.93471276 140.77386929 C229.93212078 132.80213352 229.93649832 124.83041893 229.94355392 116.85868645 C229.95196077 107.14667595 229.94970586 97.4347382 229.93371169 87.72273605 C229.9258183 82.76607615 229.92275562 77.80953762 229.93265915 72.85287857 C229.94158428 68.31737223 229.93670925 63.78210004 229.92072649 59.246615 C229.91736946 57.60406583 229.91909342 55.96149697 229.92635386 54.31896042 C229.93545656 52.08895449 229.92614051 49.85975401 229.91219139 47.62979031 C229.91170433 46.39038045 229.91121728 45.1509706 229.91071546 43.87400287 C229.34651032 38.82370184 227.73336225 35.58968307 223.97216797 32.19543457 C219.64967503 29.20293946 216.26046172 29.37208531 211.13769531 29.39440918 C210.26933548 29.39426315 209.40097565 29.39411713 208.50630188 29.39396667 C205.62771125 29.39466497 202.74918483 29.40245347 199.87060547 29.41027832 C197.87806229 29.4121428 195.88551865 29.41356656 193.89297485 29.41456604 C188.64207703 29.41838888 183.39120675 29.4282172 178.14031982 29.43927002 C172.78479383 29.44948914 167.4292634 29.45406474 162.07373047 29.45910645 C151.56069557 29.46983966 141.04768837 29.48743459 130.53466797 29.50793457 C130.53466797 39.07793457 130.53466797 48.64793457 130.53466797 58.50793457 C137.62902344 58.54660645 137.62902344 58.54660645 144.86669922 58.58605957 C147.8608943 58.6112228 150.85498783 58.63755127 153.84912109 58.66809082 C158.60278731 58.71646585 163.35621854 58.7604948 168.11010742 58.77893066 C171.9423753 58.79406221 175.77402898 58.82844383 179.60602379 58.87624359 C181.06881055 58.89109387 182.53168499 58.89897768 183.99454689 58.89981842 C186.04219861 58.90217914 188.08814039 58.92918021 190.13549805 58.96203613 C191.30131912 58.97091858 192.4671402 58.97980103 193.66828918 58.98895264 C196.53466797 59.50793457 196.53466797 59.50793457 198.19022143 61.15386146 C199.91659922 64.1766812 199.91066017 66.21616342 199.91219139 69.69208622 C199.92001463 70.9696397 199.92783787 72.24719319 199.93589818 73.56346041 C199.92941179 74.98416714 199.92264181 76.4048726 199.9156189 77.82557678 C199.91907436 79.33244651 199.92383817 80.83931372 199.92980063 82.34617561 C199.94235555 86.49298931 199.93611994 90.6395966 199.92684197 94.78641117 C199.92007022 99.2561204 199.93052335 103.72579349 199.93878174 108.19549561 C199.952141 116.95374417 199.94923168 125.71191573 199.94054382 134.47016735 C199.93377672 141.58580483 199.93284632 148.70142069 199.93611526 155.81706047 C199.93657496 156.82865919 199.93703466 157.84025792 199.93750829 158.88251115 C199.93846744 160.93735283 199.93944008 162.9921945 199.94042607 165.04703616 C199.94898627 184.32746858 199.93913572 203.60785825 199.92302497 222.88828366 C199.90961919 239.44438337 199.9119508 256.00041998 199.92578125 272.55651855 C199.94182244 291.76813021 199.94816438 310.97970438 199.93894446 330.19132179 C199.93798878 332.23842267 199.93704567 334.28552355 199.93611526 336.33262444 C199.93565244 337.3399226 199.93518961 338.34722076 199.93471276 339.3850431 C199.93211863 346.49553573 199.93650291 353.60600465 199.94355392 360.71649361 C199.95195282 369.37684508 199.94972273 378.03711494 199.93371169 386.69745702 C199.92580752 391.11905899 199.92277376 395.54052471 199.93265915 399.96212578 C199.94156225 404.00539296 199.93674622 408.04839688 199.92072649 412.09163999 C199.91736001 413.55858701 199.91911435 415.02555603 199.92635386 416.49248905 C199.935406 418.4781857 199.9243758 420.46394416 199.91219139 422.44962406 C199.91146081 424.10783793 199.91146081 424.10783793 199.91071546 425.79955107 C199.53466797 428.50793457 199.53466797 428.50793457 198.29911578 430.36298376 C196.03133749 431.8345459 194.62397359 431.88386228 191.92597961 431.88545799 C190.97437297 431.89328123 190.02276632 431.90110448 189.04232311 431.90916479 C187.99477006 431.90247262 186.94721701 431.89578046 185.86791992 431.8888855 C184.20116069 431.89590546 184.20116069 431.89590546 182.50072956 431.90306723 C178.75801656 431.91508286 175.01566528 431.90553417 171.27294922 431.89611816 C168.59759442 431.90018095 165.92226499 431.90541217 163.24691772 431.91204834 C156.72308402 431.92540776 150.19935369 431.92249815 143.67551589 431.91381042 C138.37478393 431.90704294 133.07408099 431.90611309 127.77334595 431.90938187 C126.64290752 431.91007142 126.64290752 431.91007142 125.48963195 431.91077489 C123.95878974 431.91173404 122.42794753 431.91270668 120.89710534 431.91369267 C106.53296164 431.92225303 92.16887532 431.91240232 77.80474102 431.89629157 C65.47217491 431.88288779 53.1396935 431.8852157 40.80712891 431.89904785 C26.49536716 431.91509228 12.18365574 431.921429 -2.12811375 431.91221106 C-3.65341249 431.91125538 -5.17871125 431.91031227 -6.70401001 431.90938187 C-7.4545409 431.90891904 -8.2050718 431.90845621 -8.97834605 431.90797936 C-14.27442517 431.90538605 -19.57047244 431.90976779 -24.86654663 431.91682053 C-31.31825536 431.92522311 -37.76985456 431.92298167 -44.2215507 431.90697829 C-47.51509871 431.89907869 -50.80842554 431.89763976 -54.1019783 431.90592575 C-57.66769837 431.91407197 -61.23289749 431.90390325 -64.79858398 431.8888855 C-66.36991356 431.89892375 -66.36991356 431.89892375 -67.97298717 431.90916479 C-68.92459382 431.90134154 -69.87620047 431.8935183 -70.85664368 431.88545799 C-71.68014974 431.88497094 -72.5036558 431.88448388 -73.35211658 431.88398206 C-75.46533203 431.50793457 -75.46533203 431.50793457 -77.22977984 430.36298376 C-79.0123893 427.68658671 -78.84144444 425.65220414 -78.84285545 422.44962406 C-78.8506787 421.17467833 -78.85850194 419.89973259 -78.86656225 418.58615214 C-78.86007544 417.16319215 -78.85330544 415.74023344 -78.84628296 414.317276 C-78.84973745 412.81198201 -78.8545006 411.30669055 -78.86046469 409.80140442 C-78.8730333 405.65426211 -78.86677782 401.50732587 -78.85750604 397.36018264 C-78.8507397 392.89179998 -78.86118477 388.42345365 -78.8694458 383.95507812 C-78.88281156 375.19702536 -78.87989268 366.43904957 -78.87120788 357.68099374 C-78.86444246 350.5648642 -78.86350966 343.44875627 -78.86677933 336.33262444 C-78.86723903 335.32117894 -78.86769873 334.30973345 -78.86817235 333.2676381 C-78.8691315 331.21312062 -78.87010414 329.15860314 -78.87109013 327.10408568 C-78.87965246 307.82171981 -78.86979691 288.53939667 -78.85368903 269.25703781 C-78.84028712 252.70124435 -78.84261127 236.145514 -78.85644531 219.58972168 C-78.87248975 200.3795726 -78.87882627 181.16946102 -78.86960852 161.95930618 C-78.86865284 159.91189095 -78.86770973 157.86447571 -78.86677933 155.81706047 C-78.8663165 154.80960803 -78.86585367 153.8021556 -78.86537682 152.7641743 C-78.86278337 145.65466402 -78.86716562 138.54517746 -78.87421799 131.43567085 C-78.88262066 122.77422581 -78.88037895 114.11286236 -78.86437576 105.45142669 C-78.85647608 101.02970779 -78.85343019 96.60812507 -78.86332321 92.18640709 C-78.87223577 88.1418142 -78.8673944 84.09748423 -78.85139056 80.05291533 C-78.84802808 78.58659356 -78.84976958 77.12024976 -78.85701792 75.65394206 C-78.86609102 73.66667188 -78.85502462 71.67933985 -78.84285545 69.69208622 C-78.8423684 68.58644795 -78.84188134 67.48080969 -78.84137952 66.34166723 C-78.41794966 63.15088135 -77.73465421 61.76406129 -75.46533203 59.50793457 C-72.59895325 58.98895264 -72.59895325 58.98895264 -69.06616211 58.96203613 C-68.42198837 58.95169846 -67.77781464 58.94136078 -67.11412048 58.93070984 C-64.98744753 58.90123994 -62.86172452 58.89978193 -60.73486328 58.89855957 C-59.25939616 58.88358056 -57.78394583 58.86685399 -56.30851746 58.84844971 C-52.42708575 58.80473171 -48.54588022 58.78476757 -44.66424561 58.76971436 C-40.0059771 58.74672027 -35.34795857 58.69428567 -30.689888 58.64677429 C-23.61497066 58.57791377 -16.54077155 58.54650333 -9.46533203 58.50793457 C-9.46533203 48.93793457 -9.46533203 39.36793457 -9.46533203 29.50793457 C-20.98313017 29.44016033 -32.50079588 29.38511925 -44.01874828 29.35249805 C-49.36698502 29.33684161 -54.71507827 29.31560353 -60.06323242 29.28161621 C-65.22441837 29.2490223 -70.38546628 29.2310814 -75.54674721 29.22330284 C-77.51593511 29.21775941 -79.48511546 29.20693449 -81.45424461 29.1907444 C-84.21225694 29.16896982 -86.96969876 29.16596767 -89.7277832 29.1673584 C-90.54202255 29.15657257 -91.3562619 29.14578674 -92.19517517 29.13467407 C-98.38994274 29.16847857 -101.60434514 30.44017135 -105.71533203 35.00793457 Z M-64.46533203 73.50793457 C-64.46533203 187.35793457 -64.46533203 301.20793457 -64.46533203 418.50793457 C18.03466797 418.50793457 100.53466797 418.50793457 185.53466797 418.50793457 C185.53466797 304.65793457 185.53466797 190.80793457 185.53466797 73.50793457 C103.03466797 73.50793457 20.53466797 73.50793457 -64.46533203 73.50793457 Z " fill="#000000" transform="translate(195.46533203125,17.4920654296875)"/>
<path d="M0 0 C0.89148743 -0.0071553 1.78297485 -0.01431061 2.70147705 -0.02168274 C5.64786039 -0.03858941 8.5927264 -0.01915571 11.5390625 0.00219727 C13.58642706 0.00136875 15.63379156 -0.00108998 17.68115234 -0.00511169 C21.97188338 -0.00797105 26.2620928 0.00674518 30.55273438 0.03417969 C36.05440374 0.06826245 41.55514024 0.06224543 47.05685425 0.04351711 C51.284503 0.03295171 55.51193445 0.04188081 59.73956299 0.05690193 C61.76816157 0.06208757 63.79678281 0.06159733 65.82537842 0.05535698 C68.66012417 0.0499104 71.4935317 0.07026199 74.328125 0.09765625 C75.16772766 0.09113037 76.00733032 0.08460449 76.87237549 0.07788086 C80.48527076 0.13729018 82.70960195 0.30347923 85.68115234 2.44569397 C87.88040211 5.68679487 87.77769902 7.8129207 87.1640625 11.63110352 C84.39879084 14.67481537 82.19896714 15.86970631 78.17295837 16.13230896 C76.58150383 16.15294619 74.98967037 16.15163819 73.39819336 16.1328125 C72.52606705 16.13821548 71.65394073 16.14361847 70.75538635 16.14918518 C67.87954525 16.16166809 65.00470601 16.14518575 62.12890625 16.12719727 C60.12781217 16.12735225 58.12671779 16.12884113 56.12562561 16.13160706 C51.93509628 16.13299081 47.74490932 16.12043574 43.55444336 16.09765625 C38.18183885 16.06925347 32.80980239 16.0720143 27.43715572 16.08474636 C23.30647424 16.09169902 19.17592418 16.08391926 15.04525948 16.07148933 C13.06410793 16.06697212 11.0829423 16.06664039 9.10178947 16.07055473 C6.33441068 16.07346335 3.56781675 16.05697737 0.80053711 16.03515625 C-0.4284581 16.04190872 -0.4284581 16.04190872 -1.68228149 16.04879761 C-4.95005051 16.00595969 -7.39869874 15.86307967 -10.31321716 14.31678772 C-12.7923399 11.57234546 -12.8359375 9.25019704 -12.8359375 5.63110352 C-9.75220567 -0.09248866 -5.97253236 -0.08317272 0 0 Z " fill="#000000" transform="translate(263.8359375,277.368896484375)"/>
<path d="M0 0 C0.87037399 -0.00686325 1.74074799 -0.0137265 2.63749695 -0.02079773 C5.5137871 -0.03909466 8.38953329 -0.03522406 11.26586914 -0.02954102 C13.26599811 -0.0341015 15.2661255 -0.03940667 17.26625061 -0.04542542 C21.45848963 -0.05436226 25.65053822 -0.05192692 29.84277344 -0.04199219 C35.21425977 -0.03050314 40.58508866 -0.05071025 45.95648861 -0.07990932 C50.08720575 -0.09825866 54.21776498 -0.09798136 58.34851265 -0.0922718 C60.32885218 -0.09211843 62.3092023 -0.09817625 64.2895031 -0.11056328 C67.05930651 -0.12544707 69.82789089 -0.11481546 72.59765625 -0.09765625 C73.41496216 -0.10732422 74.23226807 -0.11699219 75.07434082 -0.12695312 C78.97710409 -0.07634395 80.95512036 0.15833456 84.37623596 2.21665955 C86.36352539 4.40405273 86.36352539 4.40405273 86.92602539 7.90405273 C86.36352539 11.40405273 86.36352539 11.40405273 84.88061523 13.58946228 C81.26145616 16.19854337 77.82491269 15.9709013 73.52758789 15.9375 C72.63610046 15.94611557 71.74461304 15.95473114 70.82611084 15.96360779 C67.87995351 15.98630658 64.93474429 15.97952212 61.98852539 15.97045898 C59.94115922 15.9756926 57.89379548 15.98196811 55.84643555 15.98924255 C51.55579277 15.99965382 47.26548151 15.99507442 42.97485352 15.98046875 C37.47309351 15.96327448 31.97237718 15.98678066 26.47073364 16.02195835 C22.2430935 16.04390469 18.01570419 16.04249765 13.7880249 16.03419304 C11.75940811 16.03337211 9.73077316 16.04026246 7.70220947 16.05496407 C4.86730521 16.07236012 2.03429064 16.0579093 -0.80053711 16.03515625 C-1.64013977 16.04684845 -2.47974243 16.05854065 -3.3447876 16.07058716 C-7.29725213 16.00595414 -9.21175177 15.78894257 -12.1887207 13.09117126 C-14.17629162 9.40211982 -13.81213991 7.37192311 -12.63647461 3.40405273 C-9.14110521 -0.46539646 -4.85773091 -0.02668984 0 0 Z " fill="#000000" transform="translate(264.636474609375,198.595947265625)"/>
<path d="M0 0 C0.90284729 -0.00554901 1.80569458 -0.01109802 2.73590088 -0.01681519 C5.71957504 -0.02862419 8.70173487 -0.00432541 11.68530273 0.02148438 C13.75748119 0.02319505 15.82966181 0.02313024 17.90184021 0.0213623 C22.24385286 0.02301621 26.58534962 0.04172899 30.92724609 0.07324219 C36.49840698 0.11294457 42.06889267 0.11728502 47.64016819 0.10977936 C51.91837268 0.10671309 56.19642479 0.11881756 60.47459221 0.13591003 C62.52913393 0.14295069 64.58369293 0.14606328 66.63824654 0.1452179 C69.50654582 0.14701141 72.37402895 0.16835419 75.2421875 0.1953125 C76.09473618 0.1923819 76.94728485 0.18945129 77.82566833 0.18643188 C83.63522429 0.27087376 83.63522429 0.27087376 85.77302456 2.0187912 C87.37109738 4.00670476 87.46010276 5.0890817 87.43139648 7.61523438 C87.44299805 8.63617188 87.44299805 8.63617188 87.45483398 9.67773438 C86.93575735 12.20187172 86.03646066 12.99765232 84.05639648 14.61523438 C81.04446421 14.91162663 78.23934761 15.02484026 75.22631836 15.00341797 C74.3236171 15.00867493 73.42091583 15.01393188 72.49085999 15.01934814 C69.50211365 15.03256953 66.51389839 15.02380245 63.52514648 15.01367188 C61.45153704 15.01569199 59.37792829 15.01860291 57.30432129 15.02236938 C52.95647423 15.02679564 48.60881194 15.02035192 44.26098633 15.00634766 C38.68198693 14.98925569 33.10342046 14.99909525 27.52443695 15.01706505 C23.24197108 15.02789469 18.95960821 15.02446029 14.67713928 15.01668167 C12.61979624 15.0146774 10.5624439 15.01714687 8.50511169 15.02412033 C5.63197992 15.03172127 2.7595537 15.02014959 -0.11352539 15.00341797 C-0.96764511 15.00949066 -1.82176483 15.01556335 -2.70176697 15.02182007 C-8.51310308 14.95897904 -8.51310308 14.95897904 -10.62696075 13.27111244 C-12.63890925 10.74078191 -12.87951125 8.81984764 -12.94360352 5.61523438 C-9.72849407 -0.32867118 -6.13065108 -0.09560257 0 0 Z " fill="#000000" transform="translate(263.943603515625,356.384765625)"/>
<path d="M0 0 C0.90284729 -0.00554901 1.80569458 -0.01109802 2.73590088 -0.01681519 C5.71957504 -0.02862419 8.70173487 -0.00432541 11.68530273 0.02148438 C13.75748119 0.02319505 15.82966181 0.02313024 17.90184021 0.0213623 C22.24385286 0.02301621 26.58534962 0.04172899 30.92724609 0.07324219 C36.49840698 0.11294457 42.06889267 0.11728502 47.64016819 0.10977936 C51.91837268 0.10671309 56.19642479 0.11881756 60.47459221 0.13591003 C62.52913393 0.14295069 64.58369293 0.14606328 66.63824654 0.1452179 C69.50654582 0.14701141 72.37402895 0.16835419 75.2421875 0.1953125 C76.09473618 0.1923819 76.94728485 0.18945129 77.82566833 0.18643188 C83.63522429 0.27087376 83.63522429 0.27087376 85.77302456 2.0187912 C87.37109738 4.00670476 87.46010276 5.0890817 87.43139648 7.61523438 C87.44299805 8.63617188 87.44299805 8.63617188 87.45483398 9.67773438 C86.93575735 12.20187172 86.03646066 12.99765232 84.05639648 14.61523438 C81.04446421 14.91162663 78.23934761 15.02484026 75.22631836 15.00341797 C74.3236171 15.00867493 73.42091583 15.01393188 72.49085999 15.01934814 C69.50211365 15.03256953 66.51389839 15.02380245 63.52514648 15.01367188 C61.45153704 15.01569199 59.37792829 15.01860291 57.30432129 15.02236938 C52.95647423 15.02679564 48.60881194 15.02035192 44.26098633 15.00634766 C38.68198693 14.98925569 33.10342046 14.99909525 27.52443695 15.01706505 C23.24197108 15.02789469 18.95960821 15.02446029 14.67713928 15.01668167 C12.61979624 15.0146774 10.5624439 15.01714687 8.50511169 15.02412033 C5.63197992 15.03172127 2.7595537 15.02014959 -0.11352539 15.00341797 C-0.96764511 15.00949066 -1.82176483 15.01556335 -2.70176697 15.02182007 C-8.51310308 14.95897904 -8.51310308 14.95897904 -10.62696075 13.27111244 C-12.63890925 10.74078191 -12.87951125 8.81984764 -12.94360352 5.61523438 C-9.72849407 -0.32867118 -6.13065108 -0.09560257 0 0 Z " fill="#000000" transform="translate(263.943603515625,120.384765625)"/>
<path d="M0 0 C1.875 1.0625 1.875 1.0625 3 3 C3.65552638 7.13901908 3.93413002 9.58059184 1.59365845 13.13693237 C-0.48714812 15.48027822 -2.66146317 17.66505817 -4.91796875 19.83984375 C-5.72736404 20.64740616 -6.53675934 21.45496857 -7.37068176 22.28700256 C-9.08218132 23.98644025 -10.80337053 25.6761676 -12.53344727 27.35668945 C-15.18179547 29.9319529 -17.79665984 32.53786399 -20.40820312 35.15039062 C-22.07624887 36.79877567 -23.7461113 38.44532481 -25.41796875 40.08984375 C-26.20149216 40.86891586 -26.98501556 41.64798798 -27.7922821 42.45066833 C-28.53267227 43.16553909 -29.27306244 43.88040985 -30.03588867 44.61694336 C-30.68208664 45.24789413 -31.32828461 45.87884491 -31.99406433 46.52891541 C-34.36785054 48.269769 -36.0853868 48.71837172 -39 49 C-45.42047825 46.95169292 -49.72977459 41.63782542 -54.3125 36.9375 C-55.13556641 36.10927734 -55.95863281 35.28105469 -56.80664062 34.42773438 C-63.85732833 27.28404502 -63.85732833 27.28404502 -64.375 22.625 C-64 19 -64 19 -61.9375 16.5 C-57.99650561 14.48757733 -56.26128844 14.85921757 -52 16 C-49.38391267 17.91581611 -47.25029613 20.17878183 -45.0625 22.5625 C-44.47404297 23.17802734 -43.88558594 23.79355469 -43.27929688 24.42773438 C-41.83878136 25.93851894 -40.41739751 27.46750555 -39 29 C-31.95966358 23.22633498 -25.67463598 16.72085356 -19.31665039 10.22070312 C-17.86784851 8.74168317 -16.41287096 7.26896324 -14.95703125 5.796875 C-13.67276245 4.48734863 -13.67276245 4.48734863 -12.36254883 3.15136719 C-8.10542979 -0.72521987 -5.64531046 -1.56146885 0 0 Z " fill="#000000" transform="translate(225,200)"/>
<path d="M0 0 C2.375 1 2.375 1 4 3 C4.70894145 6.80250415 5.08395362 9.34435539 2.92236328 12.64599609 C-3.1168227 19.27511842 -9.4582762 25.60898254 -15.80834961 31.9387207 C-17.82849057 33.95344771 -19.84316383 35.97353385 -21.85742188 37.99414062 C-23.14030401 39.2763629 -24.42349581 40.55827545 -25.70703125 41.83984375 C-26.3090889 42.44392563 -26.91114655 43.04800751 -27.53144836 43.6703949 C-32.759025 48.8684332 -32.759025 48.8684332 -37.28149414 49.34790039 C-41.91113667 48.91475479 -43.22813945 47.6723938 -46.49609375 44.43359375 C-46.97450211 43.96188248 -47.45291046 43.4901712 -47.94581604 43.00416565 C-48.9483267 42.00639898 -49.94212958 40.99981444 -50.92749023 39.98510742 C-52.43390052 38.44118911 -53.9740547 36.9382233 -55.52148438 35.43554688 C-56.49443969 34.45796555 -57.46522111 33.47821478 -58.43359375 32.49609375 C-59.74928345 31.16856079 -59.74928345 31.16856079 -61.09155273 29.81420898 C-63.48926523 26.27852624 -63.48527544 24.19180248 -63 20 C-61.4375 17.5625 -61.4375 17.5625 -59 16 C-55.50744339 15.41362714 -53.10196589 15.22735067 -50.11938477 17.31860352 C-48.17150251 19.1395331 -46.35938143 21.03008555 -44.5625 23 C-43.92634766 23.66773438 -43.29019531 24.33546875 -42.63476562 25.0234375 C-41.07281773 26.66759318 -39.52953687 28.32574712 -38 30 C-31.28886544 24.50389405 -25.27279227 18.35240052 -19.1875 12.1875 C-17.1213614 10.09478727 -15.05193435 8.0054071 -12.98046875 5.91796875 C-11.61764771 4.53774536 -11.61764771 4.53774536 -10.22729492 3.12963867 C-6.79403523 -0.15308897 -4.706395 -0.3765116 0 0 Z " fill="#000000" transform="translate(224,278)"/>
<path d="M0 0 C2 1 2 1 3 3 C3.63889486 7.12757104 3.92393105 9.58190954 1.60787964 13.13668823 C-0.45368393 15.48010971 -2.60888732 17.66495906 -4.84765625 19.83984375 C-6.05463417 21.05118736 -6.05463417 21.05118736 -7.28599548 22.28700256 C-8.988902 23.98659485 -10.70170711 25.67631909 -12.42358398 27.35668945 C-15.0536111 29.92880682 -17.64429557 32.53618872 -20.23242188 35.15039062 C-21.89361751 36.7991106 -23.55696018 38.44567068 -25.22265625 40.08984375 C-25.99585709 40.86891586 -26.76905792 41.64798798 -27.56568909 42.45066833 C-31.96518329 46.69938978 -34.75382107 49.10379672 -41 49 C-42.90625 48.09375 -42.90625 48.09375 -44.5 46.5 C-45.1496875 45.85933594 -45.799375 45.21867187 -46.46875 44.55859375 C-47.3040625 43.71425781 -48.139375 42.86992187 -49 42 C-50.27819209 40.82089522 -51.55974399 39.64542719 -52.84375 38.47265625 C-54.23066646 37.17086686 -55.61606771 35.86746141 -57 34.5625 C-57.68384766 33.94246094 -58.36769531 33.32242188 -59.07226562 32.68359375 C-62.36493289 29.49434359 -64.43229633 27.37593718 -64.51171875 22.6484375 C-64 19 -64 19 -62.8125 17.0625 C-60.40031782 15.64846217 -58.81592415 15.13097322 -56 15 C-50.98450473 17.03557758 -47.77555521 19.84350504 -44.125 23.6875 C-43.62742188 24.19861328 -43.12984375 24.70972656 -42.6171875 25.23632812 C-41.40441824 26.48408112 -40.20119281 27.74109864 -39 29 C-34.73322294 27.37462221 -32.03532572 24.14772088 -28.984375 20.8984375 C-27.80430415 19.67359336 -26.6232846 18.44966265 -25.44140625 17.2265625 C-23.59088273 15.30186084 -21.74725212 13.37207401 -19.91943359 11.42578125 C-18.14686699 9.54395011 -16.34965894 7.68877959 -14.546875 5.8359375 C-14.01012146 5.25161957 -13.47336792 4.66730164 -12.92034912 4.0652771 C-8.67862815 -0.23326059 -5.99303546 -0.68908095 0 0 Z " fill="#000000" transform="translate(225,357)"/>
<path d="M0 0 C2 1 2 1 3 3 C3.63889486 7.12757104 3.92393105 9.58190954 1.60787964 13.13668823 C-0.45368393 15.48010971 -2.60888732 17.66495906 -4.84765625 19.83984375 C-6.05463417 21.05118736 -6.05463417 21.05118736 -7.28599548 22.28700256 C-8.988902 23.98659485 -10.70170711 25.67631909 -12.42358398 27.35668945 C-15.0536111 29.92880682 -17.64429557 32.53618872 -20.23242188 35.15039062 C-21.89361751 36.7991106 -23.55696018 38.44567068 -25.22265625 40.08984375 C-25.99585709 40.86891586 -26.76905792 41.64798798 -27.56568909 42.45066833 C-31.96518329 46.69938978 -34.75382107 49.10379672 -41 49 C-42.90625 48.09375 -42.90625 48.09375 -44.5 46.5 C-45.1496875 45.85933594 -45.799375 45.21867187 -46.46875 44.55859375 C-47.3040625 43.71425781 -48.139375 42.86992187 -49 42 C-50.27819209 40.82089522 -51.55974399 39.64542719 -52.84375 38.47265625 C-54.23066646 37.17086686 -55.61606771 35.86746141 -57 34.5625 C-57.68384766 33.94246094 -58.36769531 33.32242188 -59.07226562 32.68359375 C-62.36493289 29.49434359 -64.43229633 27.37593718 -64.51171875 22.6484375 C-64 19 -64 19 -62.8125 17.0625 C-60.40031782 15.64846217 -58.81592415 15.13097322 -56 15 C-50.98450473 17.03557758 -47.77555521 19.84350504 -44.125 23.6875 C-43.62742188 24.19861328 -43.12984375 24.70972656 -42.6171875 25.23632812 C-41.40441824 26.48408112 -40.20119281 27.74109864 -39 29 C-34.73322294 27.37462221 -32.03532572 24.14772088 -28.984375 20.8984375 C-27.80430415 19.67359336 -26.6232846 18.44966265 -25.44140625 17.2265625 C-23.59088273 15.30186084 -21.74725212 13.37207401 -19.91943359 11.42578125 C-18.14686699 9.54395011 -16.34965894 7.68877959 -14.546875 5.8359375 C-14.01012146 5.25161957 -13.47336792 4.66730164 -12.92034912 4.0652771 C-8.67862815 -0.23326059 -5.99303546 -0.68908095 0 0 Z " fill="#000000" transform="translate(225,121)"/>
<path d="M0 0 C0.69641602 -0.00700928 1.39283203 -0.01401855 2.11035156 -0.02124023 C4.40730932 -0.03881383 6.70303021 -0.02720107 9 -0.01367188 C10.59896073 -0.01636701 12.19791987 -0.0202496 13.796875 -0.02526855 C17.14599226 -0.03116269 20.49468243 -0.0226038 23.84375 -0.00390625 C28.13478591 0.01888377 32.42482111 0.00576017 36.71582031 -0.01819611 C40.01700366 -0.03265667 43.31795011 -0.02804703 46.61914062 -0.01768494 C48.20117308 -0.01501834 49.78322711 -0.0182851 51.36523438 -0.02760315 C53.57740163 -0.03777366 55.787953 -0.02226378 58 0 C59.8871875 0.00477356 59.8871875 0.00477356 61.8125 0.00964355 C65.57929302 0.60988964 66.77144074 1.46778252 69 4.51757812 C69.5625 8.01757812 69.5625 8.01757812 69 11.51757812 C66.3092975 14.31495289 64.6338375 15.41775232 60.77490234 16.0255127 C58.94886475 16.03028625 58.94886475 16.03028625 57.0859375 16.03515625 C56.41048889 16.04216553 55.73504028 16.0491748 55.03912354 16.05639648 C52.81732471 16.07393119 50.59681066 16.06237141 48.375 16.04882812 C46.82470456 16.05152438 45.27441076 16.05540791 43.72412109 16.0604248 C40.47932796 16.06631366 37.2349761 16.05777717 33.99023438 16.0390625 C29.83719762 16.01627269 25.68519489 16.02939914 21.53219604 16.05335236 C18.33219656 16.06782727 15.13244103 16.06319672 11.93243408 16.05284119 C10.40146766 16.05017855 8.87047887 16.05342739 7.33953857 16.0627594 C5.19711906 16.07295371 3.05635884 16.05738733 0.9140625 16.03515625 C-0.3032959 16.03197388 -1.5206543 16.0287915 -2.77490234 16.0255127 C-6.6338375 15.41775232 -8.3092975 14.31495289 -11 11.51757812 C-11.5625 8.01757812 -11.5625 8.01757812 -11 4.51757812 C-7.82780925 0.17641764 -5.21585066 0.01319327 0 0 Z " fill="#000000" transform="translate(227,46.482421875)"/>
<path d="M0 0 C1.60656715 -0.00717545 1.60656715 -0.00717545 3.24559021 -0.01449585 C5.5057828 -0.01789304 7.76602464 -0.00870342 10.02612305 0.01220703 C13.48792802 0.0389993 16.94649818 0.01243733 20.40820312 -0.01953125 C22.60547591 -0.01622764 24.80274668 -0.00982241 27 0 C28.03548477 -0.01012115 29.07096954 -0.02024231 30.13783264 -0.03067017 C37.26325399 0.08575646 37.26325399 0.08575646 40.61694336 2.97900391 C42.4274065 6.67109989 42.08969928 8.76220632 40.93359375 12.6640625 C38.06346264 15.41041424 36.06220768 16.0409818 32.13671875 16.05224609 C31.18893555 16.06170258 30.24115234 16.07115906 29.26464844 16.0809021 C28.24790039 16.07482941 27.23115234 16.06875671 26.18359375 16.0625 C25.13333008 16.06537018 24.08306641 16.06824036 23.00097656 16.07119751 C20.78189555 16.07323771 18.56279654 16.06771095 16.34375 16.05517578 C12.94620569 16.03912209 9.54985104 16.05502657 6.15234375 16.07421875 C3.99609112 16.07223631 1.83983924 16.06839262 -0.31640625 16.0625 C-1.84152832 16.07160904 -1.84152832 16.07160904 -3.39746094 16.0809021 C-4.34524414 16.07144562 -5.29302734 16.06198914 -6.26953125 16.05224609 C-7.51718262 16.04866592 -7.51718262 16.04866592 -8.79003906 16.04501343 C-11.63455518 15.56898256 -12.99092067 14.64564784 -15.06640625 12.6640625 C-16.12890625 9.2890625 -16.12890625 9.2890625 -16.06640625 5.6640625 C-11.85193142 -0.58015065 -6.88164074 -0.06739508 0 0 Z " fill="#000000" transform="translate(267.06640625,390.3359375)"/>
<path d="M0 0 C1.53642151 -0.01142029 1.53642151 -0.01142029 3.10388184 -0.02307129 C5.26568162 -0.03385847 7.42753346 -0.03673103 9.58935547 -0.03222656 C12.89508854 -0.03125329 16.19850755 -0.07291218 19.50390625 -0.1171875 C21.606766 -0.12239399 23.70963381 -0.1250827 25.8125 -0.125 C26.79907593 -0.14139526 27.78565186 -0.15779053 28.80212402 -0.17468262 C33.4711337 -0.12768531 35.70867934 -0.04096346 39.56835938 2.77929688 C41.40625 5.46875 41.40625 5.46875 41.40625 9.09375 C40.41878167 12.42645562 40.07819616 13.45091484 37.40625 15.46875 C35.17420959 15.86315918 35.17420959 15.86315918 32.53930664 15.88867188 C31.05745628 15.91253967 31.05745628 15.91253967 29.54566956 15.93688965 C28.48001266 15.93709106 27.41435577 15.93729248 26.31640625 15.9375 C25.22033554 15.94511353 24.12426483 15.95272705 22.99497986 15.96057129 C20.67579427 15.97138204 18.35655995 15.97422146 16.03735352 15.96972656 C12.48566609 15.96875463 8.93614074 16.01035996 5.38476562 16.0546875 C3.13281701 16.05989457 0.88086088 16.06258269 -1.37109375 16.0625 C-2.96654274 16.0870929 -2.96654274 16.0870929 -4.59422302 16.11218262 C-11.92289386 16.04337055 -11.92289386 16.04337055 -15.29125977 13.15820312 C-17.09351094 9.43681625 -16.82524262 7.38055009 -15.59375 3.46875 C-11.04533239 -0.54785263 -5.73605785 0.00117105 0 0 Z " fill="#000000" transform="translate(267.59375,311.53125)"/>
<path d="M0 0 C1.60656715 -0.00717545 1.60656715 -0.00717545 3.24559021 -0.01449585 C5.5057828 -0.01789304 7.76602464 -0.00870342 10.02612305 0.01220703 C13.48792802 0.0389993 16.94649818 0.01243733 20.40820312 -0.01953125 C22.60547591 -0.01622764 24.80274668 -0.00982241 27 0 C28.03548477 -0.01012115 29.07096954 -0.02024231 30.13783264 -0.03067017 C37.26325399 0.08575646 37.26325399 0.08575646 40.61694336 2.97900391 C42.4274065 6.67109989 42.08969928 8.76220632 40.93359375 12.6640625 C38.06346264 15.41041424 36.06220768 16.0409818 32.13671875 16.05224609 C31.18893555 16.06170258 30.24115234 16.07115906 29.26464844 16.0809021 C28.24790039 16.07482941 27.23115234 16.06875671 26.18359375 16.0625 C25.13333008 16.06537018 24.08306641 16.06824036 23.00097656 16.07119751 C20.78189555 16.07323771 18.56279654 16.06771095 16.34375 16.05517578 C12.94620569 16.03912209 9.54985104 16.05502657 6.15234375 16.07421875 C3.99609112 16.07223631 1.83983924 16.06839262 -0.31640625 16.0625 C-1.84152832 16.07160904 -1.84152832 16.07160904 -3.39746094 16.0809021 C-4.34524414 16.07144562 -5.29302734 16.06198914 -6.26953125 16.05224609 C-7.51718262 16.04866592 -7.51718262 16.04866592 -8.79003906 16.04501343 C-11.63455518 15.56898256 -12.99092067 14.64564784 -15.06640625 12.6640625 C-16.12890625 9.2890625 -16.12890625 9.2890625 -16.06640625 5.6640625 C-11.85193142 -0.58015065 -6.88164074 -0.06739508 0 0 Z " fill="#000000" transform="translate(267.06640625,154.3359375)"/>
<path d="M0 0 C0.99112793 -0.00945648 1.98225586 -0.01891296 3.00341797 -0.02865601 C4.07221191 -0.02258331 5.14100586 -0.01651062 6.2421875 -0.01025391 C7.34062988 -0.01312408 8.43907227 -0.01599426 9.57080078 -0.01895142 C11.89421097 -0.02099377 14.21763828 -0.01545204 16.54101562 -0.00292969 C20.10325462 0.01312082 23.66435892 -0.00277338 27.2265625 -0.02197266 C29.48177335 -0.01999026 31.73698348 -0.01614665 33.9921875 -0.01025391 C35.06098145 -0.0163266 36.12977539 -0.02239929 37.23095703 -0.02865601 C38.71764893 -0.01447128 38.71764893 -0.01447128 40.234375 0 C41.10690918 0.00238678 41.97944336 0.00477356 42.87841797 0.00723267 C45.60854711 0.47179376 46.47089636 1.19507824 48.1171875 3.38818359 C48.96710227 6.46095239 49.35028838 8.54902043 48.4921875 11.63818359 C46.55835268 14.09942791 45.14667988 14.48265 42.1171875 15.38818359 C38.80390029 15.67901403 35.50401456 15.66842214 32.1796875 15.65380859 C30.74314819 15.65667877 30.74314819 15.65667877 29.27758789 15.65960693 C27.25699602 15.66096519 25.23639531 15.65729388 23.21582031 15.64892578 C20.12805527 15.63822127 17.04087201 15.64883336 13.953125 15.66162109 C11.98697789 15.66029944 10.02083113 15.65773691 8.0546875 15.65380859 C7.13373291 15.65785706 6.21277832 15.66190552 5.26391602 15.66607666 C0.81892833 15.63365796 -2.89577004 15.60562918 -6.8828125 13.38818359 C-8.87724192 10.84981888 -8.8940388 9.57154645 -8.6953125 6.32568359 C-7.28225152 1.21692468 -5.18548312 0.01418467 0 0 Z " fill="#000000" transform="translate(259.8828125,233.61181640625)"/>
</svg>
