<?xml version="1.0" standalone="no"?>
<!DOCTYPE svg PUBLIC "-//W3C//DTD SVG 20010904//EN"
 "http://www.w3.org/TR/2001/REC-SVG-20010904/DTD/svg10.dtd">
<svg version="1.0" xmlns="http://www.w3.org/2000/svg"
 width="512.000000pt" height="512.000000pt" viewBox="0 0 512.000000 512.000000"
 preserveAspectRatio="xMidYMid meet">

<g transform="translate(0.000000,512.000000) scale(0.100000,-0.100000)"
fill="#000000" stroke="none">
<path d="M2060 4849 c-195 -32 -645 -106 -1000 -164 -355 -58 -664 -112 -687
-121 -50 -18 -126 -97 -156 -162 -20 -43 -22 -66 -25 -284 -5 -342 5 -367 197
-487 l94 -59 -2 -320 c-2 -205 2 -335 9 -361 21 -80 63 -118 282 -256 114 -71
206 -133 205 -137 -1 -4 -218 -159 -482 -345 -366 -258 -482 -345 -489 -366
-7 -19 -6 -40 2 -70 62 -209 84 -319 89 -427 6 -129 -4 -194 -64 -418 -39
-147 -37 -180 15 -201 15 -6 594 -112 1287 -237 880 -157 1274 -224 1307 -221
58 5 60 6 422 264 156 111 553 391 882 623 329 231 611 435 627 453 45 52 66
125 73 252 4 63 9 115 11 115 36 0 397 64 420 75 46 21 50 50 19 158 -38 132
-66 305 -66 410 0 99 21 203 64 323 14 39 26 79 26 88 0 44 -33 74 -182 167
-84 53 -234 148 -333 211 -99 63 -279 176 -400 253 -121 76 -222 140 -225 142
-2 2 4 25 14 51 34 87 30 142 -12 168 -9 6 -192 123 -407 259 -1080 685 -1080
685 -1121 684 -22 -1 -199 -28 -394 -60z m1020 -506 c452 -286 624 -400 612
-405 -14 -5 -1219 -203 -1672 -274 l-105 -17 -615 390 c-338 214 -624 394
-635 400 -18 10 -16 12 15 17 32 6 473 78 1265 207 171 28 344 56 385 64 41 7
86 13 98 14 15 1 254 -144 652 -396z m-1997 -364 c348 -220 635 -404 639 -407
4 -4 -5 -32 -20 -62 -26 -53 -27 -61 -32 -273 l-5 -218 -550 348 c-302 192
-592 375 -643 407 -51 32 -97 66 -102 76 -14 27 -13 465 1 493 23 44 40 57 61
46 10 -6 303 -190 651 -410z m2704 -266 c-31 -105 -29 -299 6 -413 14 -47 24
-87 21 -89 -7 -7 -1958 -320 -1966 -315 -13 8 -10 519 3 548 13 29 -5 24 289
72 124 19 538 87 920 149 382 62 707 113 721 114 l26 1 -20 -67z m617 -428
c217 -137 395 -252 396 -255 0 -5 -567 -100 -1742 -291 l-498 -80 -110 68
c-83 52 -105 70 -92 75 9 4 370 64 802 133 432 69 795 129 808 132 29 7 52 40
52 74 0 15 -12 53 -26 85 -46 105 -68 212 -65 323 l1 33 39 -23 c21 -13 217
-136 435 -274z m-3388 -56 c421 -271 724 -463 763 -483 38 -20 87 -20 209 0
l97 16 142 -89 141 -89 -29 -31 c-47 -54 -52 -86 -56 -390 -3 -156 -6 -283 -8
-283 -2 0 -307 192 -677 426 -370 234 -731 463 -802 508 -99 62 -132 88 -142
113 -11 24 -14 95 -14 289 l0 256 24 -15 c13 -9 171 -111 352 -228z m3890
-381 c-34 -126 -48 -229 -42 -328 6 -108 25 -233 50 -330 8 -30 13 -56 12 -57
-3 -3 -2324 -378 -2403 -389 -45 -6 -52 -4 -62 14 -7 14 -11 126 -11 334 0
295 1 315 20 346 11 18 30 37 42 42 13 5 127 26 253 45 127 20 655 106 1175
190 520 84 951 154 959 154 9 1 11 -6 7 -21z m-3308 -741 c771 -495 796 -511
835 -524 33 -12 61 -9 232 17 107 16 202 30 211 30 20 0 -280 -216 -311 -225
-17 -5 -455 72 -2027 357 -131 24 -238 45 -238 48 1 5 830 590 837 590 2 0
209 -132 461 -293z m2880 -311 c-2 -77 -7 -100 -24 -122 -17 -23 -1593 -1144
-1608 -1144 -3 0 -6 141 -8 313 -3 296 -5 315 -26 369 -13 31 -32 68 -44 83
-11 15 -17 30 -12 35 5 4 124 89 264 188 l255 179 330 53 c182 29 445 72 585
95 140 24 263 43 273 44 17 1 19 -7 15 -93z m-3593 -266 c736 -130 1597 -284
1672 -300 60 -13 98 -50 108 -103 11 -59 1 -735 -11 -747 -8 -8 -126 10 -430
64 -746 134 -1644 295 -1837 329 -103 19 -189 36 -191 38 -3 2 9 58 24 124 46
189 56 288 42 408 -10 87 -38 224 -58 291 -5 15 -2 17 23 12 15 -3 312 -55
658 -116z"/>
</g>
</svg>
