<?xml version="1.0" encoding="UTF-8"?>
<svg version="1.1" xmlns="http://www.w3.org/2000/svg" width="512" height="512">
<path d="M0 0 C0.85244293 -0.0065712 1.70488586 -0.0131424 2.5831604 -0.01991272 C5.40822439 -0.03964323 8.2332351 -0.05131049 11.05834961 -0.0612793 C12.02501493 -0.06535482 12.99168026 -0.06943035 13.98763847 -0.07362938 C19.10845603 -0.09449344 24.22924679 -0.10879124 29.35009766 -0.11816406 C34.6235363 -0.12920272 39.89654999 -0.16357229 45.16983891 -0.20333576 C49.23724618 -0.22956855 53.30455347 -0.23786202 57.37203789 -0.24144554 C59.31477145 -0.24629773 61.25750097 -0.25787242 63.20015144 -0.27648354 C76.34897245 -0.39457813 86.85779501 -0.17142013 96.89428711 9.31762695 C104.05891644 16.91309146 105.97584179 23.70134355 105.77319336 34.05200195 C105.7596582 35.37071289 105.7596582 35.37071289 105.74584961 36.71606445 C105.72243912 38.86982906 105.68657346 41.0234521 105.64819336 43.17700195 C107.56926407 43.16367828 107.56926407 43.16367828 109.52914429 43.15008545 C121.62265103 43.06885544 133.71610211 43.00896725 145.80982018 42.96975327 C152.02673118 42.94891493 158.24342122 42.92066543 164.46020508 42.87524414 C170.46432277 42.83165319 176.46822845 42.80783663 182.47249222 42.79749298 C184.75853434 42.79012543 187.0445654 42.77573846 189.33051682 42.75408173 C192.54261736 42.72487228 195.7538516 42.72105336 198.96606445 42.72290039 C200.37085052 42.70132874 200.37085052 42.70132874 201.80401611 42.67932129 C210.6843784 42.73425946 218.55367296 45.34403007 225.11694336 51.47387695 C231.49886003 58.57213121 233.95582545 66.00501319 233.98413086 75.50512695 C233.99078766 76.29417419 233.99744446 77.08322144 234.00430298 77.8961792 C234.01438881 79.56023849 234.01912126 81.22433791 234.01879883 82.88842773 C234.02315681 85.40588824 234.05947504 87.92157147 234.09741211 90.4387207 C234.18164385 102.32070166 232.96070238 111.35500182 224.65991211 120.46606445 C222.46520617 122.33262989 220.41642367 123.24669708 217.77319336 124.36450195 C215.53533286 125.44892092 215.53533286 125.44892092 213.64819336 127.17700195 C212.94883969 129.50913022 212.94883969 129.50913022 212.94238281 132.31758118 C212.88788971 133.49132608 212.83339661 134.66507099 212.7772522 135.87438393 C212.73364449 137.30857217 212.69067856 138.74278001 212.64819336 140.17700195 C212.58225884 141.91162926 212.51515111 143.64621221 212.44711304 145.38075829 C212.20474025 151.83297271 212.01090077 158.28643745 211.81616211 164.74023438 C211.73907857 167.22210988 211.66172968 169.70397715 211.58413696 172.18583679 C211.41816717 177.51282314 211.25399329 182.83986013 211.09146118 188.16695213 C210.85558896 195.89711371 210.61618885 203.62716304 210.37593639 211.35718957 C209.98494746 223.93955476 209.59646553 236.521996 209.2097168 249.10449219 C208.83625081 261.25458465 208.46210332 273.40465565 208.08666992 285.5546875 C208.06360208 286.30124248 208.04053425 287.04779746 208.01676738 287.81697532 C207.76391607 295.99924304 207.51078546 304.18150209 207.25733948 312.36375141 C207.23494054 313.08689711 207.21254161 313.81004282 207.18946391 314.55510202 C207.09980604 317.44957818 207.01014553 320.34405425 206.92045033 323.23852924 C206.65988051 331.64738708 206.40013906 340.05626946 206.14199281 348.46520207 C205.96012749 354.38857272 205.77732303 360.31191416 205.59421921 366.23524666 C205.52010972 368.63832411 205.44633294 371.04141185 205.37294388 373.44451141 C205.17453376 379.93885538 204.96818407 386.43285893 204.75262833 392.92665648 C204.64225229 396.36190671 204.5435242 399.79740335 204.44442749 403.23299599 C204.37044582 405.5527901 204.29604653 407.87257094 204.22119141 410.19233704 C204.1934731 411.2476006 204.1657548 412.30286417 204.13719654 413.39010543 C203.52223294 431.36547243 197.9888824 445.25605232 185.02319336 457.86450195 C174.33776694 467.16749116 161.68855072 470.49797922 147.83903503 470.43769836 C146.89242785 470.44152391 145.94582067 470.44534946 144.97052842 470.44929093 C141.82030118 470.45955315 138.67025851 470.45564169 135.52001953 470.45166016 C133.25247531 470.4560104 130.98493255 470.4611946 128.71739197 470.46714783 C122.57267044 470.48051602 116.4280105 470.48111886 110.28327727 470.47858453 C105.14677828 470.47751324 100.01029167 470.48240227 94.87379533 470.48718995 C82.05911328 470.49891124 69.24447538 470.49806439 56.42979274 470.49163314 C45.32247768 470.48646658 34.21525038 470.49771503 23.10795268 470.51673136 C11.68091174 470.53614388 0.25392844 470.54406883 -11.17313212 470.54060811 C-17.579679 470.53879818 -23.9861455 470.54140243 -30.39267921 470.55532265 C-36.41985207 470.56792898 -42.44684974 470.56593022 -48.47402 470.55291176 C-50.67980382 470.55055247 -52.88560008 470.5532573 -55.09136963 470.56153488 C-74.7141054 470.6298347 -90.24270877 468.67891752 -105.06665039 454.58325195 C-115.77017655 443.31253039 -120.19392543 430.25504221 -120.67965698 414.88197327 C-120.70289266 414.1802073 -120.72612834 413.47844132 -120.75006813 412.75540972 C-120.82655623 410.41695749 -120.89752866 408.07837158 -120.96850586 405.73974609 C-121.022621 404.05042695 -121.07707721 402.3611187 -121.13184643 400.67182064 C-121.28012434 396.06813315 -121.42359366 391.46430677 -121.56622052 386.86044121 C-121.71858172 381.96880311 -121.87534674 377.07730603 -122.03160095 372.18579102 C-122.29715188 363.85401076 -122.55990147 355.52214609 -122.82070923 347.19021606 C-123.19144774 335.34689279 -123.56695466 323.5037244 -123.94358408 311.66058719 C-125.06907891 276.25917693 -126.18264309 240.85739184 -127.26807404 205.45472908 C-127.37637855 201.9236238 -127.48498718 198.39252801 -127.59368896 194.86143494 C-127.87294296 185.78297172 -128.15142383 176.70450165 -128.4201231 167.62571907 C-128.52392169 164.13540321 -128.63012121 160.64516327 -128.73690987 157.15493774 C-128.78346433 155.61433314 -128.82892984 154.07369509 -128.87309074 152.53302002 C-129.00080753 148.07937022 -129.16580396 143.62869191 -129.35180664 139.17700195 C-129.38196869 138.01957489 -129.41213074 136.86214783 -129.44320679 135.66964722 C-129.49256378 134.59369293 -129.54192078 133.51773865 -129.59277344 132.40917969 C-129.64306953 131.00731667 -129.64306953 131.00731667 -129.69438171 129.57713318 C-130.59512222 126.28870384 -132.14084399 125.52487096 -135.03930664 123.86450195 C-135.94293945 123.41977539 -136.84657227 122.97504883 -137.77758789 122.5168457 C-143.88887837 119.33600711 -147.09483842 113.689855 -149.51831055 107.42797852 C-151.13840424 101.10894874 -150.93998559 94.65243082 -150.87329102 88.16381836 C-150.85184586 85.68154214 -150.87316794 83.20215905 -150.89868164 80.7199707 C-150.91842148 69.63097854 -149.97066242 60.18368087 -142.05493164 51.70825195 C-134.5982331 45.00406428 -126.97497314 42.86650615 -117.13354492 42.94995117 C-116.2255867 42.94965912 -115.31762848 42.94936707 -114.38215637 42.94906616 C-111.39537846 42.95045417 -108.40885322 42.96599047 -105.42211914 42.98168945 C-103.34561296 42.98542146 -101.26910501 42.98826755 -99.19259644 42.99026489 C-93.73786524 42.99788653 -88.28324122 43.01752244 -82.82855225 43.03967285 C-77.25819346 43.06016293 -71.68781729 43.06927337 -66.11743164 43.0793457 C-55.19550966 43.10076968 -44.27366707 43.13488791 -33.35180664 43.17700195 C-33.36920898 41.94216064 -33.38661133 40.70731934 -33.40454102 39.43505859 C-33.41861594 37.79826188 -33.43226538 36.16146147 -33.44555664 34.5246582 C-33.458125 33.71275024 -33.47069336 32.90084229 -33.48364258 32.06433105 C-33.54440615 22.08138275 -30.50779948 15.43253376 -23.64477539 8.1574707 C-16.63762514 2.10529834 -9.05373286 0.03021476 0 0 Z M-9.35180664 26.17700195 C-12.32076943 31.36957154 -12.32076943 31.36957154 -11.35180664 43.17700195 C19.99819336 43.17700195 51.34819336 43.17700195 83.64819336 43.17700195 C84.85828878 30.42885501 84.85828878 30.42885501 81.33569336 25.36450195 C77.08361664 21.90350928 73.39289067 22.01961773 68.15087891 22 C67.38954651 21.9934288 66.62821411 21.9868576 65.84381104 21.98008728 C63.32417704 21.96037602 60.80460257 21.94869682 58.28491211 21.9387207 C57.42357981 21.93464518 56.56224751 21.93056965 55.67481422 21.92637062 C51.11621974 21.90551958 46.55765528 21.89121344 41.99902344 21.88183594 C37.29463826 21.87077086 32.59072599 21.83636725 27.88650799 21.79666424 C24.2653364 21.77050066 20.64427758 21.76214437 17.02301979 21.75855446 C15.28909929 21.75368817 13.55518385 21.7420729 11.82135582 21.72351646 C9.39175448 21.69912883 6.96337806 21.70008883 4.53369141 21.70703125 C3.82126785 21.69422119 3.1088443 21.68141113 2.37483215 21.66821289 C-2.64801402 21.72037581 -5.52979993 22.95255422 -9.35180664 26.17700195 Z M-126.35180664 68.17700195 C-129.94022825 73.15398671 -128.72092169 80.27369159 -128.72680664 86.11450195 C-128.75129883 87.3900293 -128.77579102 88.66555664 -128.80102539 89.97973633 C-128.80489258 91.20885742 -128.80875977 92.43797852 -128.81274414 93.7043457 C-128.82096191 94.82574951 -128.82917969 95.94715332 -128.83764648 97.10253906 C-128.23033344 100.94570149 -127.1673628 102.51233148 -124.35180664 105.17700195 C-120.33838263 106.79262535 -116.94576395 107.42761007 -112.63551426 107.43147755 C-110.95204028 107.44022584 -110.95204028 107.44022584 -109.23455673 107.44915086 C-107.40027938 107.44348187 -107.40027938 107.44348187 -105.52894592 107.43769836 C-103.56855941 107.44343668 -103.56855941 107.44343668 -101.56856912 107.44929093 C-97.94710564 107.45957356 -94.32574114 107.45738846 -90.70426953 107.45311034 C-86.79621826 107.45064361 -82.88819085 107.45965659 -78.98014832 107.46714783 C-71.32643018 107.47989809 -63.67274712 107.48168813 -56.01902015 107.47934756 C-49.79829967 107.4775647 -43.57758985 107.47931336 -37.35687065 107.48357201 C-36.47158905 107.4841672 -35.58630746 107.48476238 -34.67419915 107.48537561 C-32.87576847 107.48658736 -31.07733779 107.48780149 -29.27890711 107.48901799 C-12.41286423 107.49989468 4.45315866 107.49773035 21.31920267 107.49163314 C36.74971611 107.48646322 52.18016644 107.49772118 67.6106674 107.51673136 C83.454801 107.5361015 99.29890473 107.54436725 115.14305025 107.54060811 C124.03831437 107.53869489 132.93352476 107.54119537 141.82877922 107.55532265 C149.40091339 107.56722688 156.97296075 107.56865207 164.54509609 107.55653248 C168.40824476 107.5506372 172.27123456 107.54956222 176.13437271 107.56153488 C180.32249116 107.57436389 184.51023032 107.5639448 188.698349 107.55122375 C190.52928027 107.56228518 190.52928027 107.56228518 192.39720005 107.57357007 C199.38350246 107.52881407 205.21842312 107.38918274 210.56079102 102.38574219 C212.01627462 99.42935239 212.03669152 97.12779064 212.04663086 93.8371582 C212.05049805 92.60932617 212.05436523 91.38149414 212.05834961 90.11645508 C212.04674805 88.83706055 212.03514648 87.55766602 212.02319336 86.23950195 C212.0405957 84.32621094 212.0405957 84.32621094 212.05834961 82.37426758 C212.05448242 81.14514648 212.05061523 79.91602539 212.04663086 78.6496582 C212.04324707 77.52825439 212.03986328 76.40685059 212.03637695 75.25146484 C211.59755403 71.7759321 210.78999746 69.93382453 208.64819336 67.17700195 C205.42655758 65.12128891 202.85989117 64.92585007 199.07870579 64.92252636 C197.93823813 64.91669417 196.79777047 64.91086197 195.62274319 64.90485305 C194.36935601 64.90863237 193.11596883 64.91241169 191.82460022 64.91630554 C190.48002438 64.9132856 189.13545026 64.90939691 187.79087919 64.90471298 C184.09262708 64.89440394 180.3944716 64.89662215 176.69621146 64.90089357 C172.70908976 64.90335553 168.72199166 64.89435325 164.73487854 64.88685608 C156.92247133 64.87409239 149.11009847 64.87231745 141.29768259 64.87465634 C134.94913209 64.87643775 128.60059203 64.87469367 122.25204277 64.8704319 C120.89786949 64.86953912 120.89786949 64.86953912 119.51633916 64.8686283 C117.68247195 64.86741657 115.84860475 64.86620244 114.01473754 64.86498592 C96.80826262 64.854104 79.60180728 64.85627599 62.39533126 64.86237077 C46.64648025 64.86754084 30.89769107 64.85628325 15.1488523 64.83727255 C-1.01387171 64.81791147 -17.17656644 64.80963508 -33.33930212 64.8133958 C-42.41673763 64.81531043 -51.49412049 64.81279478 -60.57154655 64.79868126 C-68.2989605 64.78678853 -76.02628941 64.78533882 -83.75370448 64.79747143 C-87.69760096 64.80337491 -91.64134171 64.80441917 -95.58522797 64.79246902 C-99.19437159 64.78166008 -102.80322854 64.78465358 -106.41235847 64.79873071 C-108.33911566 64.80265368 -110.26588535 64.79178992 -112.19261307 64.78043383 C-113.33568847 64.78764038 -114.47876387 64.79484692 -115.65647793 64.80227184 C-116.64272166 64.80221683 -117.62896539 64.80216181 -118.64509529 64.80210513 C-121.84970359 65.24596386 -123.73446207 66.30815465 -126.35180664 68.17700195 Z M-106.35180664 129.17700195 C-106.35180664 148.53140738 -106.25868497 167.79843959 -105.64916992 187.12939453 C-105.57321936 189.64971802 -105.49766034 192.17005334 -105.42245483 194.69039917 C-105.24106133 200.73022527 -105.05528442 206.76990113 -104.86698164 212.80951533 C-104.71393867 217.71949506 -104.5625394 222.62952294 -104.41222763 227.53958702 C-103.93759547 243.03873433 -103.45737269 258.53769826 -102.97279118 274.03653755 C-102.59188093 286.22669868 -102.2198011 298.41711152 -101.85166897 310.60766462 C-101.47159939 323.19045365 -101.08524045 335.77303572 -100.69224727 348.35542792 C-100.47252419 355.39412977 -100.25530803 362.43288727 -100.04483414 369.47187233 C-99.84745749 376.07078707 -99.64129271 382.669387 -99.42923355 389.26784897 C-99.35294708 391.68403205 -99.2795273 394.10030765 -99.20922089 396.51667213 C-99.11264667 399.8201981 -99.00561759 403.12322965 -98.89602661 406.42634583 C-98.85807376 407.8508952 -98.85807376 407.8508952 -98.81935418 409.30422336 C-98.38040593 421.65329499 -96.28928895 431.85823652 -86.97680664 440.55200195 C-79.06622319 447.1616755 -71.33961918 448.32766171 -61.31391907 448.31744385 C-60.40198687 448.32041497 -59.49005468 448.32338609 -58.55048817 448.32644725 C-55.49377318 448.33512098 -52.43709742 448.33664138 -49.38037109 448.33813477 C-47.18898943 448.34276389 -44.99760856 448.34778868 -42.80622864 448.35317993 C-36.85149804 448.36629721 -30.89677871 448.37274764 -24.94203591 448.37719059 C-21.22070111 448.38012253 -17.49936938 448.38422758 -13.77803612 448.38869476 C-2.13182142 448.40236822 9.51438683 448.41205134 21.16060895 448.41589665 C22.50013904 448.41634011 23.83966913 448.41678668 25.17919922 448.41723633 C25.84364632 448.41745776 26.50809341 448.41767919 27.19267527 448.41790733 C37.95239963 448.42185301 48.71205616 448.43930114 59.47175433 448.46259585 C70.53026564 448.48634334 81.58874125 448.49851558 92.64727813 448.49993777 C98.85150268 448.50098516 105.05563155 448.50687903 111.25983238 448.52475739 C117.0981591 448.54125414 122.93631837 448.54338567 128.77466011 448.53461838 C130.91355717 448.53384886 133.05246329 448.53817948 135.19133759 448.54807663 C138.11955212 448.56082804 141.04717646 448.55490185 143.97538757 448.54449463 C144.81442098 448.55255103 145.65345438 448.56060744 146.51791304 448.56890798 C156.32687534 448.48781537 164.36651622 445.82336498 171.64819336 439.17700195 C181.07333656 429.53765095 181.6929025 418.49647526 182.07215881 405.70481873 C182.10568166 404.67446646 182.1392045 403.6441142 182.17374319 402.58253914 C182.28475218 399.14204363 182.39042692 395.7014056 182.49609375 392.26074219 C182.57475091 389.78771503 182.65372319 387.31469787 182.73298645 384.84169006 C182.92496353 378.82329032 183.11341042 372.80478969 183.30007202 366.78622352 C183.45230475 361.87960404 183.60592896 356.97302997 183.76052666 352.06648445 C183.79362776 351.01579723 183.79362776 351.01579723 183.82739757 349.943884 C183.87225017 348.52028189 183.91710464 347.09667983 183.96196096 345.67307783 C184.38244958 332.32207411 184.79817736 318.9709253 185.21238767 305.61972553 C185.58922638 293.47749244 185.97162027 281.33544212 186.35677213 269.19347011 C186.75378877 256.67603572 187.14713741 244.15849091 187.53660005 231.64081913 C187.58095308 230.21563993 187.62531165 228.79046091 187.66967583 227.36528206 C187.69149372 226.66439181 187.71331162 225.96350156 187.73579066 225.24137221 C187.88773434 220.36761102 188.04196949 215.49392565 188.19719124 210.62026787 C188.4078117 204.00557173 188.61315616 197.39072479 188.81527519 190.77576256 C188.88939188 188.37472648 188.96508253 185.97373826 189.04264832 183.57281113 C189.62747434 165.4233239 189.64819336 147.35218257 189.64819336 129.17700195 C91.96819336 129.17700195 -5.71180664 129.17700195 -106.35180664 129.17700195 Z " fill="#000000" transform="translate(214.351806640625,20.822998046875)"/>
<path d="M0 0 C3.95557036 2.1299225 6.4569367 3.75556872 8 8 C8.20977497 11.24977016 8.20977497 11.24977016 8.15071106 15.11070251 C8.14232989 15.81347067 8.13394872 16.51623882 8.12531358 17.24030298 C8.09485641 19.49388307 8.04880149 21.74674827 8 24 C7.97353664 25.43863834 7.94716042 26.87727829 7.92087364 28.31591988 C7.82919096 32.95404692 7.70953929 37.5913182 7.58862305 42.22875977 C7.54409316 43.99313518 7.49970447 45.75751416 7.45544434 47.52189636 C7.31094471 53.24515632 7.16181545 58.96829066 7.01171875 64.69140625 C6.9861113 65.66927432 6.96050385 66.64714239 6.93412042 67.65464282 C6.69203079 76.88939263 6.44802029 86.1240901 6.19967937 95.35867405 C5.88344305 107.12319875 5.57663505 118.88788765 5.28234261 130.65298229 C5.07382773 138.95765074 4.85459693 147.26199502 4.62743026 155.56617397 C4.49233835 160.51519231 4.36196863 165.46422917 4.24316978 170.41366768 C4.13145056 175.05906154 4.00646601 179.70391067 3.87133026 184.3486805 C3.8241308 186.05009747 3.78171478 187.75165505 3.74449348 189.45331955 C3.69286367 191.78024946 3.62384491 194.10605314 3.55058289 196.43238831 C3.51647655 197.73253655 3.4823702 199.0326848 3.44723034 200.37223148 C2.85107492 205.20802564 1.62716885 209.34915094 -1.87890625 212.90625 C-5.78281079 214.91931311 -9.74064973 214.75124463 -14 214 C-17.34625024 211.47323961 -18.67977847 209.96066458 -20 206 C-20.08376632 203.81630446 -20.10338114 201.62995774 -20.08920288 199.44470215 C-20.08536036 198.7840883 -20.08151784 198.12347445 -20.07755888 197.44284201 C-20.01356711 189.25475586 -19.79359681 181.06980686 -19.57275391 172.88476562 C-19.52659345 171.12053805 -19.48058243 169.35630656 -19.43470764 167.59207153 C-19.28495039 161.86338409 -19.13092329 156.13481495 -18.9765625 150.40625 C-18.92334544 148.42305042 -18.87014706 146.43985035 -18.81696701 144.45664978 C-18.59562111 136.21220623 -18.37323648 127.96779197 -18.1478672 119.72345734 C-17.82601146 107.94926986 -17.5103921 96.17495348 -17.20349371 84.40036631 C-16.9864401 76.09156693 -16.76247719 67.78297125 -16.53334177 59.47449636 C-16.39693341 54.52206761 -16.26351088 49.56960118 -16.13743973 44.61689758 C-16.01892853 39.96756172 -15.89185199 35.31853803 -15.75822258 30.66961288 C-15.7107467 28.96654009 -15.66634731 27.26337827 -15.62528801 25.5601387 C-15.56867189 23.23121797 -15.50086504 20.90287566 -15.43032837 18.57434082 C-15.39530024 17.27289375 -15.3602721 15.97144669 -15.32418251 14.63056183 C-14.50500201 5.45645356 -14.50500201 5.45645356 -11.0625 2.125 C-7.27819743 0.06083496 -4.261802 -0.41782373 0 0 Z " fill="#000000" transform="translate(334,202)"/>
<path d="M0 0 C2.93807382 2.20355537 4.62741636 3.63822648 5.60562038 7.21351051 C6.08488507 10.5997555 6.21574816 13.91424773 6.31007385 17.33383179 C6.34198213 18.42692388 6.34198213 18.42692388 6.37453502 19.54209864 C6.44461602 21.97897833 6.50855593 24.41597973 6.57250977 26.85302734 C6.62155429 28.60281377 6.67097163 30.35258979 6.72073364 32.10235596 C6.85477625 36.85487865 6.98343992 41.60753333 7.1110394 46.36023283 C7.24566032 51.34477693 7.38483887 56.32919394 7.52342224 61.31362915 C7.7557669 69.69484755 7.98478867 78.07615155 8.21166992 86.45751953 C8.47317036 96.11690554 8.7390682 105.77616225 9.00755268 115.4353565 C9.29409929 125.74582796 9.57746309 136.05638515 9.85987735 146.36697054 C9.94101973 149.32186209 10.02273836 152.27673724 10.10458565 155.23160934 C10.23378387 159.90188484 10.36082549 164.57221451 10.48628616 169.24259186 C10.5323443 170.9456255 10.5790777 172.64864104 10.62658119 174.35163498 C10.75223966 178.86529235 10.86378159 183.3787971 10.95324445 187.89332151 C10.98475461 189.31308424 11.02268218 190.73271727 11.0666225 192.15214968 C11.13024456 194.20859356 11.17465971 196.26467495 11.2151947 198.32168579 C11.24600097 199.4921174 11.27680723 200.66254902 11.30854702 201.86844826 C10.89299915 206.08598906 9.15557131 208.50820314 6.6171875 211.78515625 C3.78070126 213.91594664 0.86476655 213.46230267 -2.5546875 213.34765625 C-6.09024766 212.84499674 -7.71290746 211.7159224 -10 209 C-11.86275039 204.44877758 -12.29852466 200.44830339 -12.43032837 195.55264282 C-12.45245498 194.8237659 -12.47458159 194.09488898 -12.49737871 193.34392488 C-12.56896235 190.91254881 -12.62749058 188.48103871 -12.68603516 186.04931641 C-12.73481025 184.30099327 -12.78438625 182.55269233 -12.83470154 180.80441284 C-12.96890784 176.06024159 -13.0917419 171.31583658 -13.21243334 166.5713048 C-13.34090349 161.59247893 -13.47944546 156.61393296 -13.61679077 151.63534546 C-13.84629841 143.26437544 -14.06904066 134.89324814 -14.28710938 126.52197266 C-14.56596788 115.81791804 -14.8551138 105.11416884 -15.1478672 94.41048622 C-15.40056857 85.17099278 -15.64930531 75.93139326 -15.89699888 66.69176435 C-15.94994667 64.71848962 -16.00301915 62.74521823 -16.05621767 60.77195024 C-16.2082365 55.13210615 -16.35810492 49.49221338 -16.50457954 43.85222244 C-16.54900931 42.15283331 -16.59412862 40.45346201 -16.64003944 38.75411224 C-16.76216011 34.22287557 -16.86605425 29.6918979 -16.95009661 25.15979815 C-17.00122538 22.94696591 -17.08299651 20.73651871 -17.16666794 18.52470016 C-17.20416896 17.09472501 -17.24088083 15.66472889 -17.27670288 14.23471069 C-17.3192539 12.98394934 -17.36180492 11.73318798 -17.40564537 10.44452477 C-16.91915747 6.31352823 -15.575224 4.22088361 -13 1 C-8.88044983 -1.87960635 -4.67155611 -1.29071515 0 0 Z " fill="#000000" transform="translate(187,203)"/>
<path d="M0 0 C3.6578218 2.03993908 5.66946174 3.50419262 8 7 C8.19778355 9.67217472 8.27824139 12.24042847 8.26742554 14.91316223 C8.27195665 15.72820258 8.27648776 16.54324293 8.28115618 17.38298148 C8.29385183 20.12362349 8.29217649 22.8640681 8.29052734 25.60473633 C8.29650942 27.56586463 8.30331422 29.52699058 8.31088257 31.4881134 C8.32858359 36.82289177 8.33323971 42.15760601 8.33451414 47.4924109 C8.3364111 51.94322569 8.34376638 56.39402548 8.35085833 60.84483451 C8.36715589 71.34521313 8.37202608 81.84555745 8.37060547 92.34594727 C8.36940404 103.18241994 8.39050309 114.01869344 8.4220928 124.85511571 C8.44823493 134.15371636 8.45897361 143.45225188 8.45769465 152.750889 C8.45718436 158.30670744 8.46290441 163.86234899 8.48405075 169.41813087 C8.50339804 174.6441804 8.50358155 179.86988371 8.48901749 185.09594536 C8.48692385 187.01398854 8.4916632 188.93205319 8.5037384 190.85005951 C8.51915873 193.46907683 8.50990434 196.08689562 8.49447632 198.70588684 C8.50476344 199.46455309 8.51505057 200.22321934 8.52564943 201.00487548 C8.4589999 206.12646011 7.24283539 209.06027675 4 213 C0.28546768 214.85726616 -3.95579425 214.58501089 -8 214 C-10.82424288 211.80977082 -12.41508603 210.16982793 -14 207 C-14.10433632 204.39153259 -14.14779655 201.80937721 -14.14717102 199.20036316 C-14.15084771 198.38547167 -14.1545244 197.57058017 -14.1583125 196.730995 C-14.16937538 193.9849637 -14.17319757 191.2389702 -14.17700195 188.49291992 C-14.18326459 186.53031798 -14.18991121 184.56771723 -14.19691467 182.6051178 C-14.21434187 177.26209983 -14.22488091 171.91909083 -14.2331202 166.57605147 C-14.23826622 163.24021164 -14.2443421 159.90437461 -14.25063133 156.56853676 C-14.26968734 146.13809633 -14.28391817 135.707663 -14.2922433 125.27720851 C-14.30202127 113.22451766 -14.32835374 101.1720102 -14.36874419 89.11938399 C-14.39886964 79.81148532 -14.41370874 70.50363933 -14.41702431 61.19569284 C-14.41937869 55.63261401 -14.42838958 50.069731 -14.45348549 44.50670433 C-14.47670902 39.27412052 -14.48102249 34.04186226 -14.47072411 28.80924034 C-14.47022726 26.88754699 -14.47659142 24.96583793 -14.49028015 23.04419327 C-14.5079117 20.42259823 -14.50093644 17.8021826 -14.48774719 15.18058777 C-14.49871644 14.41832656 -14.50968568 13.65606534 -14.52098733 12.87070531 C-14.46119592 7.95549146 -13.48707059 5.46040201 -10 2 C-6.73065722 -0.28853994 -3.9301848 -0.47162218 0 0 Z " fill="#000000" transform="translate(259,202)"/>
</svg>
