<?xml version="1.0" encoding="UTF-8"?>
<svg version="1.1" xmlns="http://www.w3.org/2000/svg" width="512" height="512">
<path d="M0 0 C0.91249512 0.44327637 1.82499023 0.88655273 2.76513672 1.34326172 C22.17017297 10.87491997 40.23494356 22.33877408 57 36 C58.52947266 37.22396484 58.52947266 37.22396484 60.08984375 38.47265625 C76.66000501 52.02278812 92.3839172 67.70481544 105 85 C105.79535156 85.98871094 106.59070313 86.97742188 107.41015625 87.99609375 C112.73583027 94.62153607 117.51514804 101.54968491 122.125 108.6875 C122.70620605 109.5544751 123.28741211 110.4214502 123.88623047 111.31469727 C127.05685466 116.34368339 128.96889829 120.46796856 128.56884766 126.49291992 C127.46545468 131.35589952 124.87301752 135.21333576 122.125 139.3125 C121.53364258 140.22821777 120.94228516 141.14393555 120.33300781 142.08740234 C115.5782127 149.36072493 110.50449952 156.27842521 105 163 C104.24074219 163.95003906 103.48148437 164.90007812 102.69921875 165.87890625 C88.96998135 182.92782109 73.56015732 199.82988201 56 213 C54.81685202 213.92207937 53.63463108 214.84534896 52.453125 215.76953125 C-10.14593159 264.27453289 -89.76486156 284.39520534 -167.99902344 274.62548828 C-228.98459313 266.33120951 -286.73439508 238.79955536 -331 196 C-332.10964111 194.93120605 -332.10964111 194.93120605 -333.24169922 193.84082031 C-342.80176468 184.58864434 -351.92427939 175.32197774 -359.81005859 164.59130859 C-360.97849597 163.02875734 -362.2018948 161.50779245 -363.42578125 159.98828125 C-368.7427193 153.36542859 -373.51914965 146.44411906 -378.125 139.3125 C-378.99680908 138.01203735 -378.99680908 138.01203735 -379.88623047 136.68530273 C-383.59981816 130.79511209 -385.44534393 125.97211784 -384 119 C-382.77671893 115.85298281 -381.12754629 113.17233514 -379.25 110.375 C-378.75773926 109.60792725 -378.26547852 108.84085449 -377.75830078 108.05053711 C-360.17568342 81.06629617 -337.8314685 54.37360137 -312 35 C-310.81685202 34.07792063 -309.63463108 33.15465104 -308.453125 32.23046875 C-264.32508323 -1.96223087 -210.60067604 -23.05004333 -155 -28 C-153.83726562 -28.11085938 -152.67453125 -28.22171875 -151.4765625 -28.3359375 C-99.52940777 -32.57886184 -46.82563334 -22.80795982 0 0 Z M-174 -3 C-175.56331055 -2.70996094 -175.56331055 -2.70996094 -177.15820312 -2.4140625 C-240.80689413 9.69525981 -304.23778918 45.05869504 -342.75976562 98.2890625 C-344.12782896 100.17634358 -345.52329854 102.04148139 -346.921875 103.90625 C-349.26689998 107.04525376 -351.5743929 110.2082953 -353.85205078 113.39648438 C-354.84789303 114.78752901 -355.85821985 116.16818234 -356.87109375 117.546875 C-358.48242062 119.76474364 -358.48242062 119.76474364 -360 123 C-356.85904134 134.00243324 -347.0661508 144.14307547 -340 153 C-339.2265625 153.98097656 -338.453125 154.96195313 -337.65625 155.97265625 C-331.67887422 163.30250788 -325.1643476 170.04167299 -318.5 176.75 C-317.6339917 177.62527344 -316.7679834 178.50054687 -315.87573242 179.40234375 C-309.89306164 185.35630311 -303.63134978 190.78178727 -297 196 C-295.88069092 196.88582764 -295.88069092 196.88582764 -294.73876953 197.78955078 C-260.64404048 224.41210627 -220.61679085 241.93590659 -178.25 250.25 C-177.48405518 250.40122314 -176.71811035 250.55244629 -175.92895508 250.70825195 C-160.11716097 253.61641348 -144.41646454 254.37708932 -128.375 254.3125 C-127.40789093 254.31034485 -126.44078186 254.3081897 -125.44436646 254.30596924 C-110.77467546 254.25359965 -96.44352089 253.77412092 -82 251 C-80.95779297 250.80664062 -79.91558594 250.61328125 -78.84179688 250.4140625 C-15.19310587 238.30474019 48.23778918 202.94130496 86.75976562 149.7109375 C88.12782896 147.82365642 89.52329854 145.95851861 90.921875 144.09375 C93.26689998 140.95474624 95.5743929 137.7917047 97.85205078 134.60351562 C98.84789303 133.21247099 99.85821985 131.83181766 100.87109375 130.453125 C102.48242062 128.23525636 102.48242062 128.23525636 104 125 C100.85904134 113.99756676 91.0661508 103.85692453 84 95 C83.2265625 94.01902344 82.453125 93.03804688 81.65625 92.02734375 C75.67887422 84.69749212 69.1643476 77.95832701 62.5 71.25 C61.6339917 70.37472656 60.7679834 69.49945313 59.87573242 68.59765625 C53.89306164 62.64369689 47.63134978 57.21821273 41 52 C39.88069092 51.11417236 39.88069092 51.11417236 38.73876953 50.21044922 C-4.46931684 16.47181251 -60.48553844 -5.91169004 -115.7578125 -6.203125 C-117.10425087 -6.21371445 -117.10425087 -6.21371445 -118.47789001 -6.22451782 C-146.37137833 -6.43558081 -146.37137833 -6.43558081 -174 -3 Z " fill="#000000" transform="translate(384,132)"/>
<path d="M0 0 C0.94528564 0.29801514 0.94528564 0.29801514 1.90966797 0.60205078 C26.33598165 8.46915061 46.8700638 25.29662384 59 48 C69.51041631 69.74933238 73.51314686 96.66671749 66 120 C65.70198486 120.94528564 65.70198486 120.94528564 65.39794922 121.90966797 C57.87667533 145.26223746 42.40868323 164.84346099 21 177 C20.08863281 177.52335938 19.17726563 178.04671875 18.23828125 178.5859375 C-2.87562125 189.93502015 -29.99288647 193.12027358 -53.05078125 186.3203125 C-54.37055253 185.89040452 -55.68694024 185.44999017 -57 185 C-57.70946777 184.75862305 -58.41893555 184.51724609 -59.14990234 184.26855469 C-83.35152775 175.74949682 -102.98461844 158.25113444 -114.2980957 135.24584961 C-123.99141247 114.3527037 -127.12700244 88.13404908 -120 66 C-119.80132324 65.36980957 -119.60264648 64.73961914 -119.39794922 64.09033203 C-111.53084939 39.66401835 -94.70337616 19.1299362 -72 7 C-50.25066762 -3.51041631 -23.33328251 -7.51314686 0 0 Z M-84.4140625 45.78515625 C-97.23656668 62.05987309 -102.35252537 80.46973135 -101 101 C-98.39128233 120.61673525 -88.65897268 139.28872887 -72.85546875 151.515625 C-55.76315271 164.06241097 -36.33608203 169.30542662 -15.26953125 166.50390625 C4.48232748 162.62368539 22.23819045 152.20647087 33.875 135.5625 C45.33721802 118.12355401 49.86321209 98.3697265 45.8125 77.75 C41.00736347 58.06011495 29.61979056 40.64726037 12.26342773 29.95410156 C-20.18490507 10.89651223 -59.66540232 17.23209038 -84.4140625 45.78515625 Z " fill="#000000" transform="translate(283,163)"/>
</svg>
