<?xml version="1.0" standalone="no"?>
<!DOCTYPE svg PUBLIC "-//W3C//DTD SVG 20010904//EN"
 "http://www.w3.org/TR/2001/REC-SVG-20010904/DTD/svg10.dtd">
<svg version="1.0" xmlns="http://www.w3.org/2000/svg"
 width="512.000000pt" height="512.000000pt" viewBox="0 0 512.000000 512.000000"
 preserveAspectRatio="xMidYMid meet">

<g transform="translate(0.000000,512.000000) scale(0.100000,-0.100000)"
fill="#000000" stroke="none">
<path d="M432 4697 c-39 -40 -72 -77 -72 -82 0 -6 181 -191 402 -412 221 -221
400 -404 398 -406 -3 -2 -41 -28 -85 -57 -156 -104 -302 -226 -471 -395 -222
-221 -337 -364 -511 -633 -107 -166 -106 -134 -6 -290 229 -356 522 -684 813
-908 502 -387 1063 -584 1660 -584 391 0 736 77 1113 248 l78 35 430 -429 429
-429 77 78 78 77 -408 408 -408 408 88 59 c170 112 300 221 479 400 189 188
249 258 380 440 73 101 185 270 212 321 10 19 2 37 -64 140 -177 277 -308 440
-533 664 -265 264 -481 421 -796 575 -192 95 -319 144 -479 186 -606 158
-1204 106 -1766 -152 l-105 -48 -430 430 -430 429 -73 -73z m2376 -728 c425
-46 857 -217 1214 -481 275 -203 551 -494 759 -800 43 -64 79 -119 79 -122 0
-3 -22 -40 -50 -82 -239 -366 -549 -685 -886 -911 -49 -33 -100 -66 -113 -73
-23 -12 -32 -4 -212 176 -104 104 -189 192 -189 196 0 4 20 36 45 72 64 91
131 238 162 353 24 88 27 116 27 268 0 152 -3 180 -27 267 -172 641 -839 983
-1458 747 -79 -30 -188 -91 -252 -142 l-39 -30 -169 169 -169 169 34 17 c178
91 515 184 766 211 80 9 388 6 478 -4z m-1133 -765 c-20 -27 -61 -98 -91 -159
-172 -347 -148 -756 62 -1077 221 -336 627 -531 1020 -488 190 20 383 92 521
194 l60 44 167 -167 c91 -91 166 -169 166 -173 0 -10 -246 -104 -360 -137
-443 -128 -936 -124 -1360 11 -553 176 -1033 530 -1426 1053 -68 89 -162 228
-170 249 -8 22 134 232 265 391 207 251 434 458 690 627 l105 69 194 -194 195
-195 -38 -48z m1092 206 c164 -39 307 -123 425 -249 82 -87 124 -152 173 -268
86 -199 87 -443 4 -652 -29 -73 -91 -182 -113 -200 -9 -7 -192 170 -621 600
l-610 610 30 25 c43 34 149 88 225 114 152 52 325 59 487 20z m-283 -929 l608
-608 -46 -32 c-68 -47 -180 -98 -271 -123 -113 -30 -316 -31 -430 0 -291 78
-521 295 -617 582 -31 91 -32 101 -33 260 0 154 2 171 29 255 15 50 37 108 48
130 31 60 87 145 95 145 5 0 282 -274 617 -609z"/>
</g>
</svg>
