<?xml version="1.0" standalone="no"?>
<!DOCTYPE svg PUBLIC "-//W3C//DTD SVG 20010904//EN"
 "http://www.w3.org/TR/2001/REC-SVG-20010904/DTD/svg10.dtd">
<svg version="1.0" xmlns="http://www.w3.org/2000/svg"
 width="512.000000pt" height="512.000000pt" viewBox="0 0 512.000000 512.000000"
 preserveAspectRatio="xMidYMid meet">

<g transform="translate(0.000000,512.000000) scale(0.100000,-0.100000)"
fill="#000000" stroke="none">
<path d="M1627 4839 c-122 -18 -260 -117 -317 -228 -32 -63 -52 -172 -44 -240
l6 -57 -67 -50 c-131 -95 -233 -251 -275 -418 -17 -69 -20 -112 -20 -330 0
-188 4 -267 15 -316 37 -156 114 -293 228 -402 l70 -68 -137 0 c-169 0 -263
-18 -376 -72 -68 -33 -100 -57 -170 -127 -140 -140 -190 -267 -190 -481 0
-138 10 -160 69 -160 65 0 75 21 82 173 4 99 11 145 27 185 63 161 196 277
364 317 41 9 116 15 211 15 l147 0 0 -120 c0 -146 3 -154 110 -305 l80 -113 0
-356 0 -356 -469 0 -470 0 -3 154 c-3 178 -11 196 -79 196 -62 0 -69 -19 -69
-197 l0 -153 -104 0 c-115 0 -147 -8 -190 -48 -50 -47 -56 -76 -56 -254 0
-137 3 -169 19 -204 32 -70 102 -104 212 -104 l57 0 4 -157 c5 -173 12 -199
68 -247 18 -14 44 -29 58 -34 15 -4 784 -7 1708 -7 1640 0 1682 0 1703 19 27
25 29 86 3 109 -17 16 -148 17 -1684 17 -917 0 -1673 3 -1682 6 -14 5 -16 28
-16 150 l0 144 2110 0 2110 0 0 -144 c0 -122 -2 -145 -16 -150 -9 -3 -138 -6
-288 -6 -252 0 -274 -1 -289 -18 -24 -27 -22 -85 4 -108 20 -18 40 -19 308
-19 157 0 298 3 313 7 14 5 40 20 58 34 56 48 63 74 68 245 l4 157 77 4 c94 6
144 28 179 81 26 39 27 47 30 201 4 192 0 216 -41 263 -51 58 -73 63 -292 63
l-196 0 7 23 c164 510 314 1010 314 1045 0 37 -6 50 -34 78 l-34 34 -767 0
c-855 0 -813 3 -860 -69 -13 -20 -54 -133 -91 -251 -36 -118 -70 -222 -75
-230 -5 -9 -9 30 -9 95 0 132 -15 200 -72 315 -76 156 -234 287 -408 336 -35
10 -116 18 -222 21 l-168 6 68 66 c105 102 168 206 214 351 22 71 23 89 23
365 0 275 -1 294 -23 365 -51 163 -156 309 -291 402 -43 30 -43 31 -38 82 27
285 -214 516 -496 475z m184 -171 c84 -35 148 -123 162 -223 9 -60 1 -66 -63
-49 -90 25 -270 29 -375 10 -49 -10 -97 -18 -105 -19 -22 -3 -15 83 11 142 63
142 221 202 370 139z m108 -431 c102 -36 173 -81 247 -160 100 -106 163 -253
164 -381 l0 -49 -72 7 c-96 9 -144 32 -227 110 -66 62 -73 66 -116 66 -44 0
-50 -4 -104 -60 -36 -38 -79 -70 -117 -87 l-59 -28 -287 -3 -288 -3 0 51 c0
214 172 449 387 530 84 31 147 39 278 36 97 -3 134 -9 194 -29z m37 -613 c69
-62 171 -106 279 -118 l95 -10 0 -105 c0 -204 -53 -335 -190 -471 -140 -140
-282 -196 -475 -187 -166 7 -304 69 -420 186 -129 130 -176 247 -183 449 l-4
132 259 0 c142 0 287 5 323 10 80 13 173 57 231 110 24 21 45 39 45 40 1 0 19
-16 40 -36z m34 -1155 l0 -111 -85 -118 c-47 -65 -89 -130 -95 -145 -6 -16
-10 -170 -10 -396 l0 -369 -105 0 -104 0 -3 383 -3 383 -92 131 -93 131 0 111
0 111 295 0 295 0 0 -111z m508 96 c136 -32 272 -134 334 -251 52 -97 58 -143
58 -446 l0 -278 -309 0 c-303 0 -309 0 -341 -22 -60 -41 -75 -71 -79 -159 l-3
-79 -104 0 -104 0 0 358 0 357 76 105 c110 152 114 162 114 308 l0 122 148 0
c94 0 169 -6 210 -15z m2252 -212 c0 -5 -71 -235 -158 -513 l-159 -505 -711
-3 -711 -2 14 42 c8 24 78 246 155 493 77 248 144 460 150 473 l10 22 705 0
c388 0 705 -3 705 -7z m-1875 -960 c-8 -27 -15 -51 -15 -55 0 -5 -124 -8 -275
-8 l-275 0 0 55 0 55 290 0 289 0 -14 -47z m2093 -357 c2 -93 -1 -143 -9 -152
-10 -12 -375 -14 -2398 -14 -1843 0 -2390 3 -2399 12 -13 13 -18 279 -5 291 3
4 1087 6 2407 5 l2401 -3 3 -139z"/>
<path d="M3855 2110 c-204 -80 -315 -322 -218 -478 94 -152 328 -152 483 0
137 135 153 332 35 436 -24 21 -61 44 -83 50 -59 18 -159 14 -217 -8z m187
-141 c34 -18 50 -72 37 -124 -14 -54 -75 -128 -131 -156 -46 -23 -125 -27
-156 -8 -79 49 -35 199 78 267 58 34 130 43 172 21z"/>
<path d="M2815 4093 c-44 -23 -84 -63 -108 -108 -22 -39 -22 -49 -22 -440 0
-447 -3 -428 73 -508 57 -59 99 -67 359 -67 l223 0 0 -50 c0 -95 41 -150 111
-150 41 0 70 20 194 129 l80 71 531 0 c597 0 602 1 666 67 70 74 68 58 68 503
0 436 -1 443 -58 504 -56 60 -85 66 -323 66 -197 0 -217 -2 -232 -18 -24 -27
-22 -85 4 -108 19 -17 41 -19 225 -22 195 -3 205 -4 219 -25 13 -18 15 -79 15
-398 0 -369 0 -376 -21 -395 -20 -18 -48 -19 -588 -24 l-568 -5 -84 -73 -84
-74 -6 39 c-7 52 -24 80 -59 98 -24 12 -76 15 -283 15 -242 0 -256 1 -281 21
l-26 20 0 383 c0 356 1 384 18 399 16 15 82 17 634 19 589 3 617 4 637 22 27
25 29 86 3 109 -17 15 -76 17 -653 17 -558 -1 -638 -3 -664 -17z"/>
<path d="M3216 3599 c-34 -27 -36 -77 -3 -107 l23 -22 605 0 606 0 21 23 c31
33 29 80 -4 106 -26 21 -35 21 -624 21 -589 0 -598 0 -624 -21z"/>
</g>
</svg>
