<?xml version="1.0" encoding="UTF-8"?>
<svg version="1.1" xmlns="http://www.w3.org/2000/svg" width="512" height="512">
<path d="M0 0 C11.42183046 8.73619951 17.65495458 19.48632198 23.4375 32.5 C23.90196533 33.52867188 24.36643066 34.55734375 24.8449707 35.6171875 C29.06164724 45.00851382 33.08222411 54.48059039 37 64 C41.40834714 63.31463317 45.34262529 61.76495539 49.4375 60.0625 C62.32501283 54.74979411 74.95899272 51.45993781 88.44140625 57.00390625 C93.31994162 59.50508428 96.75322529 62.48589583 100.19921875 66.7421875 C101.98579858 68.25350878 101.98579858 68.25350878 104.57421875 67.9453125 C109.25053626 66.65492614 113.65065733 64.86268123 118.125 63 C119.89747698 62.26850157 121.67088216 61.53924725 123.4453125 60.8125 C124.22406738 60.48894531 125.00282227 60.16539062 125.80517578 59.83203125 C135.49228647 56.15976504 148.13335713 56.65395634 157.58203125 60.7421875 C161.66241811 62.86477969 165.38119576 65.15569999 169 68 C169.67804688 68.52851563 170.35609375 69.05703125 171.0546875 69.6015625 C181.54796322 78.86994222 186.28224627 94.58184511 191.53125 107.2109375 C191.95760742 108.23646729 191.95760742 108.23646729 192.39257812 109.28271484 C193 111 193 111 193 113 C194.01320313 112.65066406 195.02640625 112.30132812 196.0703125 111.94140625 C197.42179229 111.48152771 198.77335947 111.02190591 200.125 110.5625 C200.79015625 110.33240234 201.4553125 110.10230469 202.140625 109.86523438 C216.59546414 104.97609761 231.33330145 105.83082233 245.125 112.25 C255.64895591 117.8293671 263.59051615 125.46463964 269.0625 136.0625 C269.43044678 136.76729492 269.79839355 137.47208984 270.17749023 138.19824219 C279.80321539 157.10822947 287.80391445 177.06103251 295 197 C295.45632813 198.23363281 295.91265625 199.46726562 296.3828125 200.73828125 C309.71053474 238.41633878 313.28995268 278.70503643 311.25 318.375 C311.21329193 319.16784393 311.17658386 319.96068787 311.13876343 320.77755737 C311.02997825 323.04819383 310.90133324 325.31676798 310.765625 327.5859375 C310.69118164 328.8961084 310.61673828 330.2062793 310.54003906 331.55615234 C309.96956178 335.19410557 309.28773585 337.1350323 307 340 C304.73901367 341.51074219 304.73901367 341.51074219 301.98046875 342.796875 C300.90458496 343.30283203 299.82870117 343.80878906 298.72021484 344.33007812 C297.4811841 344.8890318 296.24104893 345.44554176 295 346 C294.33019104 346.30188232 293.66038208 346.60376465 292.97027588 346.91479492 C287.43611385 349.40230799 281.87551944 351.82789884 276.3125 354.25 C274.4985523 355.04263559 272.68475323 355.8356114 270.87109375 356.62890625 C267.11206204 358.27279551 263.35240237 359.91523587 259.59228516 361.55664062 C251.73409821 364.98829984 243.8837699 368.43783045 236.03329468 371.88708496 C231.77256223 373.75888979 227.51125014 375.6293741 223.25 377.5 C221.54166393 378.24999376 219.83333059 378.99999376 218.125 379.75 C207.87500004 384.24999998 207.87500004 384.24999998 205.31266785 385.37492371 C203.60377247 386.1251722 201.89487965 386.87542651 200.18598938 387.62568665 C195.92377627 389.49693247 191.66151923 391.3680781 187.39916992 393.23901367 C177.83333327 397.43803406 168.26843387 401.63917274 158.70541382 405.84460449 C154.36247215 407.75401464 150.01845681 409.66090101 145.671875 411.56201172 C143.99606619 412.2951844 142.3202846 413.02841932 140.64453125 413.76171875 C139.83021637 414.11802368 139.01590149 414.47432861 138.1769104 414.84143066 C133.51670889 416.88440931 128.86857586 418.95185441 124.23136902 421.04649353 C121.46653492 422.29364256 118.69640411 423.52872077 115.92538452 424.76205444 C114.068397 425.59434488 112.21919966 426.44395015 110.37036133 427.29418945 C98.69208433 432.47391347 98.69208433 432.47391347 92 431 C89.0234375 429.453125 89.0234375 429.453125 86.375 427.25 C85.35535156 426.425 84.33570313 425.6 83.28515625 424.75 C82.75164551 424.30269531 82.21813477 423.85539062 81.66845703 423.39453125 C79.366759 421.47072394 77.02026027 419.60530167 74.67456055 417.7355957 C73.41975522 416.7344825 72.16735716 415.73034546 70.91723633 414.72338867 C66.19265497 410.92140461 61.3942409 407.22695138 56.5625 403.5625 C50.183386 398.72029459 43.93575833 393.74146509 37.74072266 388.66650391 C33.68994758 385.35424021 29.59881232 382.10966889 25.4375 378.9375 C20.82130486 375.41715438 16.27053089 371.82966187 11.75 368.1875 C6.41710026 363.89327952 1.01718919 359.7007544 -4.4375 355.5625 C-10.81359706 350.72240994 -17.05920327 345.74686661 -23.25048828 340.6730957 C-27.38439729 337.29188079 -31.56485536 333.98702663 -35.8125 330.75 C-41.65050829 326.29201595 -47.35382858 321.69775644 -53 317 C-54.06154297 316.16082031 -54.06154297 316.16082031 -55.14453125 315.3046875 C-66.22042821 306.26046395 -76.73862716 291.41028115 -78.21948242 276.84057617 C-78.91340706 263.1730248 -77.18121802 252.28526838 -69 241 C-68.58234375 240.40574219 -68.1646875 239.81148437 -67.734375 239.19921875 C-61.15985512 230.67879212 -51.15897034 225.88887162 -41 223 C-40.07828003 222.73074707 -40.07828003 222.73074707 -39.13793945 222.45605469 C-32.25571462 220.66378394 -25.51036228 220.7732322 -18.4375 220.875 C-17.23802734 220.88402344 -16.03855469 220.89304687 -14.80273438 220.90234375 C-11.86827691 220.92572588 -8.93424766 220.9584972 -6 221 C-6.30478271 220.32573975 -6.60956543 219.65147949 -6.92358398 218.95678711 C-16.0591088 198.72101782 -24.96659846 178.3900669 -33.81494141 158.02734375 C-37.00140041 150.69478347 -40.19364756 143.3647469 -43.38742065 136.03536987 C-44.43531791 133.63000882 -45.48244515 131.22431352 -46.52954102 128.81860352 C-50.28273247 120.20065353 -54.05829729 111.59303546 -57.859375 102.99609375 C-58.6739804 101.1509102 -59.48851544 99.30569559 -60.30297852 97.46044922 C-61.84291898 93.97163441 -63.38841887 90.48536086 -64.93725586 87.00048828 C-68.28457729 79.43798816 -71.53311379 71.85871423 -74.45703125 64.12109375 C-74.70297531 63.47310318 -74.94891937 62.82511261 -75.20231628 62.15748596 C-80.07757504 48.96553852 -79.19687778 34.9288179 -74 22 C-73.72285156 21.26523438 -73.44570312 20.53046875 -73.16015625 19.7734375 C-68.42354402 8.81592902 -57.65911945 -0.84973564 -46.75 -5.375 C-31.5087581 -11.10291771 -13.61311396 -8.71992092 0 0 Z M-47.953125 20.765625 C-53.78133081 27.12771225 -57.44076138 35.92285993 -57.27026367 44.58276367 C-55.94109779 56.47081367 -49.7007564 67.96693666 -44.875 78.75 C-44.07579772 80.55084173 -43.27739238 82.35203732 -42.47973633 84.15356445 C-40.82211757 87.89559472 -39.16110245 91.63608848 -37.49755859 95.37548828 C-33.91413318 103.43693339 -30.36913754 111.51522821 -26.82525635 119.59411621 C-25.68482885 122.19358859 -24.54342094 124.79262875 -23.40185547 127.39160156 C-18.55933603 138.42045666 -13.75556673 149.46530049 -8.97802734 160.52246094 C-5.85539228 167.74117224 -2.71161545 174.95027091 0.44921875 182.15234375 C0.83635544 183.0350444 1.22349213 183.91774506 1.62236023 184.82719421 C3.59169077 189.31438935 5.56780441 193.79840503 7.55639648 198.27709961 C10.76820441 205.52457373 13.96508909 212.74924561 16.7734375 220.1640625 C21.80026416 233.28328682 28.00669443 241.12353257 38.79101562 250.08984375 C43.24577987 253.94197411 47.26364738 258.25166434 51.35424805 262.48242188 C52.86785844 264.02343077 54.42957149 265.5169359 56 267 C56.66 267 57.32 267 58 267 C60.91394714 272.24510485 61.48348528 276.49168535 59.8515625 282.2578125 C59 284 59 284 56.3125 285.5625 C51.83220813 286.15423666 48.22341533 286.49593842 44.3046875 283.859375 C42.11893834 281.98587572 40.06825649 280.00301181 38 278 C36.88534029 276.96861554 35.76792362 275.94020625 34.6484375 274.9140625 C28.76728053 269.50380149 22.99879637 264.03972527 17.46289062 258.27490234 C11.84492568 252.46071035 6.84528299 247.59859531 -1 245 C-2.38058594 244.53207031 -2.38058594 244.53207031 -3.7890625 244.0546875 C-16.87995439 240.22067958 -29.71667864 241.32170286 -42.3125 246.3125 C-48.98197104 250.5003074 -54.25909682 255.15804302 -56.58203125 262.953125 C-58.40791241 271.89482339 -55.99974685 279.07335693 -51.33984375 286.7265625 C-43.92859257 297.53146668 -33.95975759 305.16871103 -23.62036133 312.96557617 C-18.57569505 316.77094744 -13.63603697 320.68079583 -8.75 324.6875 C-2.97826446 329.41544839 2.86710665 334.01921936 8.796875 338.546875 C16.4360476 344.38196256 23.96688931 350.35867885 31.45727539 356.38305664 C37.38877694 361.1530798 43.37417453 365.83599848 49.4375 370.4375 C55.81270301 375.27708605 62.0571984 380.25232254 68.24829102 385.32470703 C73.4260669 389.55890266 78.69023265 393.65901603 84.0234375 397.6953125 C87.72621619 400.56229338 91.26923873 403.60215402 94.78125 406.69921875 C96.88210133 408.22215616 96.88210133 408.22215616 99.13769531 407.79394531 C102.92395822 406.74371271 106.43811613 405.19806059 110.015625 403.59765625 C110.80648499 403.24875839 111.59734497 402.89986053 112.41217041 402.54039001 C115.02684087 401.38569177 117.63836328 400.22404144 120.25 399.0625 C122.09546807 398.24621318 123.94117528 397.43046679 125.78710938 396.61523438 C129.62397876 394.92022835 133.45980575 393.22289479 137.29492188 391.52392578 C145.17940711 388.03314483 153.07626261 384.57063504 160.97320557 381.1081543 C165.23538258 379.23892833 169.49651762 377.36732963 173.7578125 375.49609375 C179.71664007 372.87980344 185.67594853 370.26461315 191.63586426 367.65080261 C195.88240116 365.78839591 200.12873298 363.92552192 204.375 362.0625 C205.21075562 361.69585236 206.04651123 361.32920471 206.90759277 360.95144653 C216.74412713 356.6353702 226.57527446 352.30736725 236.3984375 347.9609375 C237.35007782 347.53995285 238.30171814 347.1189682 239.28219604 346.68522644 C243.83917466 344.66902081 248.39549495 342.6513499 252.95068359 340.63110352 C264.92679758 335.32545563 276.94924503 330.13378462 289 325 C289.67498558 318.93700577 290.16340586 312.94425441 290.203125 306.84375 C290.21013931 306.10714645 290.21715363 305.37054291 290.22438049 304.61161804 C290.24178452 302.24101546 290.24823565 299.87066419 290.25 297.5 C290.25067474 296.6828653 290.25134949 295.86573059 290.25204468 295.02383423 C290.20079983 255.74202116 281.5560211 218.02735076 266 182 C265.39416687 180.58758177 264.78837591 179.17514546 264.18261719 177.76269531 C262.45185121 173.73565562 260.70418521 169.7162404 258.9465332 165.7008667 C258.23935182 164.08336451 257.53502536 162.46461075 256.83374023 160.84454346 C249.14177368 142.84537676 249.14177368 142.84537676 234.34375 130.70703125 C224.98824305 127.10023712 215.93083431 127.02035224 206.6875 131.0625 C205.4478153 131.68790646 204.2137734 132.32568144 203 133 C203.67311996 137.78767594 205.54833847 141.82687711 207.52734375 146.1875 C207.87632217 146.96762451 208.2253006 147.74774902 208.58485413 148.55151367 C209.69759172 151.03653389 210.81728702 153.51834185 211.9375 156 C213.05269757 158.48228386 214.16645211 160.96520839 215.2794342 163.44848633 C215.97121945 164.99071102 216.66453827 166.532249 217.35960388 168.07299805 C223.01518869 180.63900757 223.01518869 180.63900757 222 187 C220.4375 189.9375 220.4375 189.9375 218 192 C214.05689052 193.16832874 211.86113204 193.31671493 207.9909668 191.89331055 C204.31322797 189.56526675 203.33023329 187.63714428 201.51953125 183.70703125 C201.22851028 183.08705765 200.93748932 182.46708405 200.63764954 181.82832336 C199.73742277 179.89436905 198.86602849 177.94947543 198 176 C197.47970215 174.85063965 196.9594043 173.7012793 196.42333984 172.51708984 C195.10179106 169.55609827 193.80160106 166.58711092 192.51715088 163.60986328 C191.65318494 161.60798944 190.78399011 159.60845234 189.91357422 157.609375 C188.63371097 154.66912473 187.35544859 151.72818757 186.07861328 148.78662109 C182.66018943 140.91301314 179.23350271 133.04305546 175.79458618 125.17837524 C175.02708865 123.42079088 174.26122511 121.66249191 173.49716187 119.90341187 C169.7194237 111.20608126 165.88212788 102.54430673 161.71875 94.0234375 C161.4049942 93.3677478 161.0912384 92.71205811 160.76797485 92.03649902 C157.48898231 85.45388853 153.48546118 82.59750304 147 79.625 C140.12903937 78.19354987 134.87235961 78.95579237 128.5 81.75 C127.85216553 82.02150879 127.20433105 82.29301758 126.53686523 82.57275391 C121.92279331 84.52946754 117.42580149 86.65161554 113 89 C114.96564765 95.24857876 117.28797713 101.23214431 119.94921875 107.21484375 C120.32552933 108.06945694 120.7018399 108.92407013 121.08955383 109.80458069 C122.28510527 112.51723332 123.4862088 115.22738511 124.6875 117.9375 C125.47367163 119.71924033 126.25948149 121.50114032 127.04492188 123.28320312 C127.6257402 124.5993309 127.6257402 124.5993309 128.21829224 125.94204712 C128.99571289 127.7037769 129.77246938 129.46579992 130.54855347 131.2281189 C132.44192811 135.51763886 134.35875729 139.79327055 136.33056641 144.04736328 C136.88379326 145.25375206 136.88379326 145.25375206 137.44819641 146.48451233 C138.13682303 147.98339407 138.83389219 149.47844136 139.54142761 150.9684906 C142.04768461 156.45276439 143.58151139 161.72899842 142.5 167.8125 C140.19166981 171.17881486 137.8799513 171.9187021 134 173 C129.59062622 172.26510437 126.90330571 171.37147697 124 168 C122.71828145 165.40723714 121.53751873 162.8353832 120.40234375 160.1796875 C119.88235809 158.98684143 119.88235809 158.98684143 119.35186768 157.76989746 C118.60078064 156.04447104 117.85295121 154.31762373 117.10800171 152.58953857 C115.9274888 149.85178278 114.73802934 147.11807545 113.54614258 144.38525391 C110.17500112 136.6495994 106.82376022 128.90535171 103.47460938 121.16015625 C101.4415653 116.45945652 99.40097134 111.76209036 97.35623169 107.06646729 C96.20674951 104.41932962 95.06698974 101.76814602 93.92749023 99.11669922 C93.21646856 97.48123416 92.50498542 95.84596962 91.79296875 94.2109375 C91.4821637 93.48032104 91.17135864 92.74970459 90.85113525 91.99694824 C88.32646604 86.24370763 85.49131728 80.75524627 80.25 77.0625 C68.34569928 73.17070938 56.53637927 79.66527755 46 85 C49.32853474 93.93516457 52.98720516 102.63414468 56.9375 111.3125 C57.49579228 112.55206842 58.0533088 113.79198649 58.61010742 115.03222656 C61.04941434 120.46489325 63.49326201 125.89526997 65.96777344 131.31201172 C67.61499929 134.91856645 69.24560304 138.53226084 70.8664856 142.15072632 C71.49111564 143.53682511 72.12176635 144.92022836 72.75875854 146.3006897 C79.0769618 160.00562971 79.0769618 160.00562971 78 168 C76.0625 171.0625 76.0625 171.0625 73 173 C69.88162127 173.62145626 67.08820266 173.80105436 64 173 C60.53734235 170.05892872 58.86893939 167.07823808 57.0390625 162.953125 C56.77243805 162.3586557 56.5058136 161.7641864 56.23110962 161.15170288 C55.35338875 159.18834577 54.48912984 157.21937234 53.625 155.25 C53.00298086 153.8504364 52.38024582 152.45119077 51.75683594 151.05224609 C49.82467034 146.70727946 47.91128196 142.35418373 46 138 C45.42360993 136.68973143 44.84711612 135.37950849 44.27050781 134.06933594 C41.11868565 126.90341743 37.98579115 119.72932865 34.85871887 112.55258179 C32.46132252 107.05266553 30.0548821 101.55675042 27.64453125 96.0625 C27.27033051 95.20952835 26.89612976 94.3565567 26.5105896 93.47773743 C24.59922839 89.12239786 22.68578275 84.76798514 20.76953125 80.41479492 C20.00904623 78.68671628 19.24862935 76.95860764 18.48828125 75.23046875 C18.11369781 74.37913864 17.73911438 73.52780853 17.35317993 72.65068054 C15.14210211 67.61891582 12.94938639 62.57966657 10.77391052 57.53240967 C9.4236897 54.40204088 8.06579297 51.27503254 6.70700073 48.14837646 C6.07859318 46.69662056 5.453897 45.24325139 4.83328247 43.78814697 C-0.24806401 31.87862652 -5.60864747 21.59149478 -17.3125 15.1875 C-28.73383232 11.50944383 -38.60654475 13.00995203 -47.953125 20.765625 Z " fill="#000000" transform="translate(185,81)"/>
<path d="M0 0 C3.33859155 2.91056699 3.9325406 4.52778419 4.5625 8.9375 C4.69116273 12.62330874 2.97666076 14.74103504 0.63038635 17.47633362 C-2.37888994 20.28863213 -6.00825861 21.67648715 -9.76953125 23.25 C-11.06006912 23.81277397 -11.06006912 23.81277397 -12.37667847 24.38691711 C-15.1823731 25.60633704 -17.99713054 26.80310885 -20.8125 28 C-22.77060685 28.84635499 -24.7280399 29.69427047 -26.68481445 30.54370117 C-30.6149226 32.2472894 -34.54843425 33.94257945 -38.48535156 35.63037109 C-45.26568495 38.53912682 -52.02067282 41.504422 -58.77471924 44.47354126 C-60.6821928 45.31017223 -62.59145046 46.1425762 -64.50146484 46.97338867 C-70.52877137 49.59570995 -76.54586349 52.23696376 -82.53935242 54.93586731 C-85.4643078 56.25184764 -88.39332364 57.55864899 -91.32266235 58.86483765 C-92.7105949 59.48677259 -94.09656097 60.1131186 -95.48031616 60.74429321 C-109.11145441 66.95950439 -109.11145441 66.95950439 -117 67 C-121.21861187 65.15915118 -122.59991825 63.84817331 -124.5625 59.6875 C-125.14849963 54.74836025 -123.88632258 51.44326353 -120.84814453 47.50805664 C-118.07454019 45.24483947 -114.88644838 44.00391051 -111.6171875 42.62109375 C-110.8673912 42.29699524 -110.11759491 41.97289673 -109.34507751 41.63897705 C-106.85777822 40.56536194 -104.36638906 39.50158579 -101.875 38.4375 C-100.12423879 37.68352075 -98.37383759 36.92870505 -96.6237793 36.1730957 C-93.88471949 34.99049224 -91.14547214 33.80835156 -88.40513611 32.62870789 C-79.3841632 28.74397024 -70.39405062 24.79036105 -61.40615845 20.82983398 C-49.12330326 15.42005348 -36.83329443 10.02618934 -24.50521851 4.72012329 C-22.74270388 3.96126817 -20.98131831 3.19979235 -19.2199707 2.43823242 C-18.18187256 1.99326416 -17.14377441 1.5482959 -16.07421875 1.08984375 C-15.18307373 0.70691162 -14.29192871 0.32397949 -13.3737793 -0.07055664 C-8.16774944 -2.10895586 -5.36899855 -2.10924943 0 0 Z " fill="#000000" transform="translate(405,410)"/>
<path d="M0 0 C3.49890004 2.11391877 4.70578686 3.11736059 6 7 C6.64379481 13.24859668 5.05727214 16.45449246 1.6875 21.4375 C1.24398193 22.1183667 0.80046387 22.7992334 0.34350586 23.50073242 C-1.08574023 25.68016426 -2.53997906 27.84108378 -4 30 C-4.49661133 30.74217773 -4.99322266 31.48435547 -5.50488281 32.24902344 C-16.50138219 48.66160243 -16.50138219 48.66160243 -21.875 49.875 C-25.7995889 50.22785295 -27.90117621 49.56759685 -31 47 C-33.75116147 44.43857381 -33.98748552 43.13381961 -34.34375 39.32421875 C-34.25852168 34.46070564 -32.38189785 31.43153967 -29.6875 27.5 C-29.24325684 26.82364502 -28.79901367 26.14729004 -28.34130859 25.45043945 C-26.91213283 23.28773312 -25.45654479 21.14434431 -24 19 C-23.00813396 17.50455619 -22.01724684 16.00846265 -21.02734375 14.51171875 C-20.06169736 13.06910497 -19.0943009 11.62766083 -18.125 10.1875 C-17.67342529 9.51203125 -17.22185059 8.8365625 -16.7565918 8.140625 C-12.11810373 1.38368391 -8.4352564 -1.38332191 0 0 Z " fill="#000000" transform="translate(113,189)"/>
<path d="M0 0 C2.6704403 1.64334788 3.59534049 2.93889283 4.703125 5.84375 C5.79290806 10.69504231 4.90602453 13.90118894 2.5 18.1875 C1.03024522 20.48473867 -0.47031631 22.7433432 -2 25 C-3.23456665 26.86315427 -4.4689235 28.72644757 -5.703125 30.58984375 C-7.04962232 32.60321055 -8.39860685 34.61491606 -9.75 36.625 C-10.41193359 37.61008545 -11.07386719 38.5951709 -11.75585938 39.61010742 C-12.38814453 40.5354126 -13.02042969 41.46071777 -13.671875 42.4140625 C-14.2400293 43.2488916 -14.80818359 44.0837207 -15.39355469 44.94384766 C-17.31073328 47.39771971 -18.95203797 48.83122709 -22.0859375 49.3359375 C-26.21467052 49.40639369 -28.41215089 49.3674057 -32 47.125 C-35.00103651 43.9363987 -35.41119147 41.64296375 -35.33911133 37.25048828 C-34.12119241 29.16785572 -26.94060696 21.25397751 -22.4375 14.6875 C-21.77814453 13.71232422 -21.11878906 12.73714844 -20.43945312 11.73242188 C-19.79814453 10.79333984 -19.15683594 9.85425781 -18.49609375 8.88671875 C-17.92044678 8.04326904 -17.3447998 7.19981934 -16.75170898 6.33081055 C-11.91508704 -0.10476154 -8.0422402 -2.02677424 0 0 Z " fill="#000000" transform="translate(225,16)"/>
<path d="M0 0 C2.89683868 2.2015974 4.39297231 3.78594462 6 7 C6.47753216 11.13861202 6.35218192 13.3830854 4.26953125 17.03125 C0.19799034 21.63624351 -5.92446084 22.11607614 -11.6875 23.25 C-12.82123047 23.49234375 -13.95496094 23.7346875 -15.12304688 23.984375 C-18.41071033 24.68170074 -21.70413804 25.34270994 -25 26 C-25.95430908 26.20302734 -26.90861816 26.40605469 -27.8918457 26.61523438 C-28.76284912 26.79892578 -29.63385254 26.98261719 -30.53125 27.171875 C-31.28341797 27.33268555 -32.03558594 27.49349609 -32.81054688 27.65917969 C-37.29579225 28.35737355 -41.83142416 28.50989626 -45.671875 25.8359375 C-48.20430481 23.17546348 -48.99436345 21.04016042 -49.5 17.4375 C-48.96024433 13.72667978 -48.39398482 11.87278179 -46 9 C-39.62182214 5.37249399 -32.93214859 4.26074595 -25.8125 2.8125 C-24.54857422 2.53986328 -23.28464844 2.26722656 -21.98242188 1.98632812 C-7.13767116 -1.0778496 -7.13767116 -1.0778496 0 0 Z " fill="#000000" transform="translate(83,130)"/>
<path d="M0 0 C1.12535156 -0.04253906 1.12535156 -0.04253906 2.2734375 -0.0859375 C5.67580555 0.58097185 7.22196119 1.89172617 9.625 4.375 C10.84765625 7.59765625 10.84765625 7.59765625 11.6875 11.4375 C11.92001465 12.4740271 11.92001465 12.4740271 12.15722656 13.53149414 C12.4881189 15.02200168 12.80991785 16.51455125 13.12353516 18.00878906 C13.64257726 20.45794 14.19923042 22.89642419 14.76171875 25.3359375 C15.13430907 26.99445617 15.50543192 28.65330527 15.875 30.3125 C16.1380896 31.46407593 16.1380896 31.46407593 16.40649414 32.63891602 C19.20504027 45.72278954 19.20504027 45.72278954 15.875 51.3125 C12.40633288 54.49211152 10.9917333 55.42469939 6.1875 55.25 C2.17377346 54.26417243 0.54255038 53.26886897 -2.375 50.375 C-3.59765625 47.15234375 -3.59765625 47.15234375 -4.4375 43.3125 C-4.59250977 42.62220703 -4.74751953 41.93191406 -4.90722656 41.22070312 C-5.23820933 39.73094904 -5.56000066 38.23912913 -5.87353516 36.74560547 C-6.3942944 34.2837884 -6.9504244 31.83177683 -7.51171875 29.37890625 C-7.88432776 27.71127534 -8.25545082 26.04331164 -8.625 24.375 C-8.80039307 23.59890381 -8.97578613 22.82280762 -9.15649414 22.02319336 C-10.40501929 16.16085465 -11.63009532 10.12425641 -9.0625 4.5 C-6.37313568 1.11339308 -4.20543223 0.07176506 0 0 Z " fill="#000000" transform="translate(132.375,-0.375)"/>
<path d="M0 0 C3.13201221 1.33623251 5.7947448 3.15568478 8.5625 5.125 C9.26568359 5.599375 9.96886719 6.07375 10.69335938 6.5625 C12.81990706 8.01019575 14.91329077 9.49553236 17 11 C17.73774658 11.52819336 18.47549316 12.05638672 19.2355957 12.60058594 C26.38030409 17.8169731 26.38030409 17.8169731 28 23 C27.9002104 27.88969047 26.31882982 30.48002898 23 34 C19.75643838 35.62178081 16.5105095 35.50416479 13 35 C10.11815505 33.81038899 7.63418211 32.18793841 5.0625 30.4375 C4.36809814 29.98294434 3.67369629 29.52838867 2.95825195 29.06005859 C-11.54991915 19.45570014 -11.54991915 19.45570014 -15 14 C-15.53198011 9.212179 -15.72509014 7.13597455 -13.125 3.0625 C-9.18733494 -0.75935138 -5.27649006 -0.75333712 0 0 Z " fill="#000000" transform="translate(72,55)"/>
<path d="M0 0 C3.59479907 2.85221147 5.07866526 4.66353638 5.6015625 9.1953125 C5.2419066 12.79187149 4.78983651 14.92662607 2.296875 17.59765625 C-2.68411231 20.83999704 -9.03851556 21.71091633 -14.7734375 22.9453125 C-15.72605469 23.18378906 -16.67867187 23.42226562 -17.66015625 23.66796875 C-24.04709064 25.18198302 -30.4423525 25.9439635 -36.2734375 22.4453125 C-38.51505731 18.70927949 -39.05172878 15.2776308 -38.7734375 10.9453125 C-37.40768378 7.43337437 -36.26643541 5.64737699 -32.8046875 4.01953125 C-30.14733073 3.1558903 -27.50574346 2.53305565 -24.7734375 1.9453125 C-23.55011719 1.666875 -22.32679688 1.3884375 -21.06640625 1.1015625 C-4.34015225 -2.58114781 -4.34015225 -2.58114781 0 0 Z " fill="#000000" transform="translate(263.7734375,91.0546875)"/>
<path d="M0 0 C2.64352348 2.30242368 2.98942604 3.95921471 3.875 7.375 C4.02375864 11.68900059 3.31114711 13.38092176 1 17 C-1.28420272 18.57311039 -3.21296259 19.72991866 -5.6875 20.875 C-6.31454834 21.1738208 -6.94159668 21.4726416 -7.58764648 21.78051758 C-12.44410089 23.98183406 -15.77414241 25.04517152 -21 24 C-24.67552256 22.00243339 -25.77375004 20.49963533 -27.5 16.6875 C-28.1387966 11.9763751 -27.53132817 10.02034474 -25 6 C-17.79906493 -0.22510742 -9.0206172 -3.5771413 0 0 Z " fill="#000000" transform="translate(446,392)"/>
<path d="M0 0 C4.45605949 2.21054128 8.78037806 5.1694257 12 9 C13.52544248 15.75553097 13.52544248 15.75553097 11.8125 19.8125 C8.7784474 23.47428762 7.24234415 24.78204489 2.4375 25.625 C-3.53958941 25.43364309 -8.44748297 21.57916743 -13 18 C-15.6790573 13.98141405 -15.69610694 10.72358279 -15 6 C-11.15546561 -0.15125502 -6.94163056 -1.16231954 0 0 Z " fill="#000000" transform="translate(31,28)"/>
<path d="M0 0 C3.51344336 2.83027382 5.02101637 5.2750385 5.6875 9.75 C5.08876332 13.94115678 4.1999468 15.72534637 1.25 18.8125 C-5.02486127 21.59237433 -11.12182916 22.64096092 -17.75 20.8125 C-20.83416293 18.75639138 -22.43386831 17.35678932 -23.19140625 13.65625 C-23.38761133 9.8587324 -23.02388232 7.36026463 -21.3125 3.9375 C-15.49581693 -0.88609084 -7.11557035 -3.07263265 0 0 Z " fill="#000000" transform="translate(311.75,81.1875)"/>
</svg>
