<?xml version="1.0" standalone="no"?>
<!DOCTYPE svg PUBLIC "-//W3C//DTD SVG 20010904//EN"
 "http://www.w3.org/TR/2001/REC-SVG-20010904/DTD/svg10.dtd">
<svg version="1.0" xmlns="http://www.w3.org/2000/svg"
 width="512.000000pt" height="512.000000pt" viewBox="0 0 512.000000 512.000000"
 preserveAspectRatio="xMidYMid meet">

<g transform="translate(0.000000,512.000000) scale(0.100000,-0.100000)"
fill="#000000" stroke="none">
<path d="M2460 4314 c-254 -39 -447 -136 -601 -301 -351 -379 -339 -964 28
-1331 59 -59 69 -74 55 -79 -9 -3 -55 -22 -102 -43 -192 -85 -362 -202 -520
-360 -228 -228 -383 -499 -460 -804 -38 -150 -50 -241 -57 -434 l-6 -162 1763
0 1763 0 -6 163 c-7 192 -19 283 -57 433 -75 299 -230 572 -450 794 -183 185
-390 321 -628 411 -23 9 -21 12 48 81 466 460 341 1241 -245 1535 -153 77
-378 119 -525 97z m250 -330 c116 -27 205 -79 300 -174 132 -132 190 -268 190
-450 0 -182 -58 -318 -190 -450 -132 -132 -268 -190 -450 -190 -182 0 -318 58
-450 190 -132 132 -190 268 -190 450 0 182 58 318 190 450 93 94 183 147 295
174 80 19 224 19 305 0z m80 -1599 c418 -67 794 -323 1011 -690 92 -154 167
-365 185 -518 l7 -57 -1433 0 -1432 0 7 58 c17 140 83 335 160 476 85 153 246
342 378 445 190 146 419 246 652 285 111 19 349 19 465 1z"/>
</g>
</svg>
