<?xml version="1.0" standalone="no"?>
<!DOCTYPE svg PUBLIC "-//W3C//DTD SVG 20010904//EN"
 "http://www.w3.org/TR/2001/REC-SVG-20010904/DTD/svg10.dtd">
<svg version="1.0" xmlns="http://www.w3.org/2000/svg"
 width="512.000000pt" height="512.000000pt" viewBox="0 0 512.000000 512.000000"
 preserveAspectRatio="xMidYMid meet">

<g transform="translate(0.000000,512.000000) scale(0.100000,-0.100000)"
fill="#000000" stroke="none">
<path d="M2380 4964 c-1151 -106 -2038 -938 -2207 -2073 -24 -161 -24 -503 0
-661 79 -519 297 -968 646 -1333 378 -395 853 -638 1411 -724 157 -24 499 -24
661 0 910 135 1651 747 1948 1611 90 262 125 480 125 776 0 230 -13 354 -59
545 -231 973 -1013 1691 -2005 1840 -102 15 -429 27 -520 19z m490 -319 c876
-132 1578 -798 1754 -1665 93 -455 31 -933 -174 -1348 -292 -590 -833 -1007
-1473 -1137 -688 -139 -1409 78 -1904 572 -641 642 -802 1608 -403 2421 322
656 948 1091 1685 1171 119 13 384 6 515 -14z"/>
<path d="M2945 3899 c-31 -17 -1254 -1241 -1271 -1271 -17 -32 -18 -101 -3
-131 16 -31 1238 -1255 1271 -1273 41 -22 109 -18 149 9 72 48 87 140 35 215
-14 20 -268 280 -565 577 l-540 539 557 558 c306 307 562 568 569 581 17 30
16 92 -2 126 -27 54 -71 81 -128 81 -29 0 -61 -5 -72 -11z"/>
</g>
</svg>
